<svg width="118" height="144" viewBox="0 0 118 144" fill="none" xmlns="http://www.w3.org/2000/svg">
<path d="M87 5.96689C85.6824 -0.897183 79.8628 0.818835 77.1177 2.53485V13.2887C77.1177 13.7145 76.8496 14.0967 76.4386 14.2082C72.4395 15.2926 66.2142 14.8146 59 21.4112C51.0941 25.5297 45.3743 34.596 43.7273 38.6C41.092 41.3456 36.0909 52.0286 34.2941 59.1636C31.6588 64.6549 27.5 84.3319 27.5 93.484C30.1353 96.2296 33.1961 94.628 34.2941 93.484L37.5882 76.3238C37.5882 61.2229 48.5686 42.5755 54.0588 35.1394C58.6087 28.9768 68.8084 22.1271 74.253 20.1878C74.8871 19.9619 75.4961 20.4865 75.4546 21.1584C74.0264 44.2911 79.2302 59.3279 83 65.5C84.3176 69.6184 85.8039 67.216 88 65.5C78.7765 50.399 79.8627 19.6951 87 5.96689Z" stroke="black" stroke-width="2"/>
<path d="M1.52782 112.837C-2.20834 95.6523 14.7721 86.7022 24.6966 92.5052L29.7196 95.4746C30.1395 95.7228 30.6741 95.6306 31.0136 95.2805C34.3027 91.8886 42.2825 87.0707 50.3123 92.3306C50.4805 92.4408 50.6807 92.497 50.8781 92.5352C54.4012 93.218 61.6599 105.119 57.9918 115.433C57.8464 115.841 57.7376 116.261 57.6689 116.69C56.1675 126.046 46.6518 138.541 41.5 139.5C37.0837 143.305 24.7224 143.384 19.3322 139.736C19.1062 139.583 18.8748 139.436 18.634 139.308C5.95653 132.543 2.00835 120.407 1.7142 114.289C1.69082 113.803 1.63125 113.313 1.52782 112.837Z" stroke="black" stroke-width="2"/>
<path d="M58.3773 88.5451C53.6206 71.6142 70.0356 61.6651 80.2892 66.8645L85.4808 69.5283C85.9148 69.7509 86.4429 69.627 86.7609 69.2572C89.8414 65.6748 97.5189 60.3884 105.849 65.159C106.023 65.2589 106.226 65.303 106.426 65.3294C109.983 65.8003 117.941 77.2466 114.895 87.7609C114.775 88.1774 114.691 88.6032 114.648 89.0347C113.709 98.4641 104.957 111.506 99.8718 112.771C95.6908 116.833 83.3564 117.65 77.7578 114.332C77.523 114.193 77.2833 114.059 77.0352 113.946C63.9761 107.951 59.3095 96.0726 58.6501 89.9832C58.5977 89.4992 58.509 89.0138 58.3773 88.5451Z" stroke="black" stroke-width="2"/>
<path d="M22 102C24.4242 104.264 31.0182 107.433 38 102" stroke="black" stroke-width="2"/>
<path d="M79 73C81.4242 74.5092 88.0182 76.6222 95 73" stroke="black" stroke-width="2"/>
</svg>
