<svg width="148" height="75" viewBox="0 0 148 75" fill="none" xmlns="http://www.w3.org/2000/svg">
<path d="M144 3H4C8.4586 50.0011 37.0531 60.1557 42.0467 63.6373C47.0403 67.1188 72.8781 75.4624 91.3885 69.4399C138.65 54.063 140.136 29.4019 144 3Z" stroke="black" stroke-width="6"/>
<path d="M131.489 6.0885H16.5107C20.1724 44.621 38.4811 51.6773 47.7575 55.8001C51.8587 58.6544 73.0786 65.4947 88.2808 60.5572C127.095 47.9509 128.316 27.7333 131.489 6.0885Z" stroke="black"/>
<rect x="48" y="19" width="4" height="9" rx="2" fill="black"/>
<rect x="50" y="31" width="4" height="9" rx="2" fill="black"/>
<rect x="41" y="25" width="4" height="9" rx="2" fill="black"/>
<rect x="56" y="23" width="4" height="9" rx="2" fill="black"/>
<rect x="66" y="25" width="4" height="9" rx="2" fill="black"/>
<rect x="60" y="34" width="4" height="9" rx="2" fill="black"/>
<rect x="76" y="25" width="4" height="9" rx="2" fill="black"/>
<rect x="72" y="34" width="4" height="9" rx="2" fill="black"/>
<rect x="86" y="23" width="4" height="9" rx="2" fill="black"/>
<rect x="83" y="34" width="4" height="9" rx="2" fill="black"/>
<rect x="96" y="19" width="4" height="9" rx="2" fill="black"/>
<rect x="94" y="32" width="4" height="9" rx="2" fill="black"/>
<rect x="102" y="29" width="4" height="9" rx="2" fill="black"/>
</svg>
