<svg width="173" height="169" viewBox="0 0 173 169" fill="none" xmlns="http://www.w3.org/2000/svg">
<path d="M112.64 20.0159L115.472 19.0225L115.076 16.4063L118.676 17.7457L120.765 17.3189L121.394 20.9249C122.091 20.7826 123.665 20.71 124.39 21.5578C125.296 22.6175 125.073 40.2976 128.094 43.83C131.23 46.3014 137.613 52.0928 138.061 55.4868C139.612 62.0855 139.625 79.275 127.261 95.244C123.302 101.378 109.695 116.467 86.9453 127.752C82.4031 129.856 70.6021 134.617 59.7363 136.837C56.0755 137.1 46.7751 137.036 38.8605 134.669C37.5285 133.351 34.9804 130.275 35.4439 128.521L42.4999 123.138C45.0913 120.188 53.032 113.352 64.0642 109.605C72.1353 106.365 91.6743 94.961 105.262 75.2566C109.02 68.8874 116.94 54.3239 118.552 47.0237C118.716 44.6575 118.814 39.2343 118.179 33.732L117.661 30.1936C116.792 27.743 114.713 22.8705 113.338 22.9853C111.963 23.1001 113.105 21.9955 113.848 21.4289L112.64 20.0159Z" fill="#FBF9FB"/>
<path d="M117.661 30.1936C118.853 36.7549 118.752 44.1476 118.552 47.0237C116.94 54.3239 109.02 68.8874 105.262 75.2566C91.6743 94.961 72.1353 106.365 64.0642 109.605C53.032 113.352 45.0913 120.188 42.4999 123.138L35.4439 128.521C34.9804 130.275 37.5285 133.351 38.8605 134.669C46.7751 137.036 56.0755 137.1 59.7363 136.837C70.6021 134.617 82.4031 129.856 86.9453 127.752C109.695 116.467 123.302 101.378 127.261 95.244C139.625 79.275 139.612 62.0855 138.061 55.4868C137.613 52.0928 131.23 46.3014 128.094 43.83C125.073 40.2976 125.296 22.6175 124.39 21.5578C123.665 20.71 122.091 20.7826 121.394 20.9249L120.765 17.3189L118.676 17.7457L115.076 16.4063L115.472 19.0225L112.64 20.0159L113.848 21.4289C113.105 21.9955 111.963 23.1001 113.338 22.9853C114.713 22.8705 116.792 27.743 117.661 30.1936ZM117.661 30.1936L120.201 47.5168C119.151 52.987 115.014 66.9991 106.866 79.2857C102.952 84.995 91.7644 98.511 78.3198 106.9C70.4814 111.129 52.9428 120.424 45.4956 123.77L36.048 129.227" stroke="black" stroke-width="2"/>
<path d="M150.133 42.1353C149.791 41.0868 149.728 40.1202 149.856 39.4236C149.994 38.6789 150.28 38.4992 150.38 38.4714C150.48 38.4435 150.826 38.4464 151.385 38.9965C151.908 39.511 152.433 40.3487 152.775 41.3973C153.117 42.4458 153.18 43.4124 153.052 44.109C152.915 44.8537 152.628 45.0334 152.528 45.0612C152.429 45.0891 152.082 45.0862 151.523 44.5361C151 44.0216 150.475 43.1839 150.133 42.1353Z" fill="#FBF9FB" stroke="black" stroke-width="2"/>
</svg>
