<svg width="136" height="120" viewBox="0 0 136 120" fill="none" xmlns="http://www.w3.org/2000/svg">
<path d="M74.2475 2.4338L89.0148 7.07775L129.32 85.9202L133.799 94.6805C125.59 101.963 104.528 116.486 85.9429 116.326C79.3836 116.343 63.0009 115.542 49.9442 112.208C45.9559 111.189 43.0471 110.317 40.8485 109.55L43.5873 110.858C41.5046 110.416 38.0306 108.958 34.2383 107.153L35.5876 107.953C30.4952 105.524 20.0615 100.373 19.0654 99.203C18.6591 98.9793 18.2554 98.7532 17.8549 98.5254C11.7643 95.0618 6.39973 91.1979 3.6602 88.9987L7.79213 83.9315L74.2475 2.4338Z" fill="#FBF9FB"/>
<path d="M74.2475 2.4338L89.0148 7.07775L129.32 85.9202M74.2475 2.4338L7.79213 83.9315M74.2475 2.4338L117.626 86.4341M120.71 92.4056L133.799 94.6805M120.71 92.4056C116.181 96.8388 104.764 102.742 99.6211 105.139C91.5356 107.449 75.36 108.377 68.2829 108.552C64.8008 109.926 42.6945 108.455 29.9092 104.131M120.71 92.4056L117.626 86.4341M133.799 94.6805C125.59 101.963 104.528 116.486 85.9429 116.326C79.3836 116.343 63.0009 115.542 49.9442 112.208C33.6234 108.039 35.3791 106.333 29.9092 104.131M133.799 94.6805L129.32 85.9202M3.6602 88.9987C6.39973 91.1979 11.7643 95.0618 17.8549 98.5254M3.6602 88.9987L9.37426 93.6333M3.6602 88.9987L7.79213 83.9315M29.9092 104.131C29.2473 103.907 28.5799 103.664 27.9093 103.404M17.8549 98.5254C18.2554 98.7532 18.6591 98.9793 19.0654 99.203M17.8549 98.5254L22.8821 100.965M27.9093 103.404L35.5876 107.953C30.4952 105.524 20.0615 100.373 19.0654 99.203M27.9093 103.404C24.959 102.26 21.9469 100.79 19.0654 99.203M27.9093 103.404L22.8821 100.965M19.0654 99.203C25.1204 102.638 38.5018 109.779 43.5873 110.858L22.8821 100.965M7.79213 83.9315C10.3853 86.4055 17.9607 91.9757 27.5165 94.4647C33.6353 96.3675 48.4765 100.303 58.8904 100.822C64.3009 101.534 78.4754 102.241 91.8892 99.3719C97.1486 97.648 109.659 92.6469 117.626 86.4341M117.626 86.4341L123.585 86.1722L129.32 85.9202" stroke="black" stroke-width="2"/>
<path d="M70.4867 24.3436L68.5679 29.537C68.2376 30.4308 68.5839 31.4336 69.3953 31.9332L72.3473 33.7509C73.794 34.6417 75.6223 33.437 75.3746 31.7562L74.3414 24.7452C74.0394 22.6962 71.2045 22.4009 70.4867 24.3436Z" fill="#3D3D3D"/>
<path d="M92.9175 29.5714L91.8482 31.8345C91.3787 32.828 91.7988 34.0142 92.7889 34.4909L94.434 35.283C95.9119 35.9946 97.5708 34.7225 97.267 33.1106L96.6912 30.0554C96.3323 28.1508 93.7455 27.819 92.9175 29.5714Z" fill="#3D3D3D"/>
<path d="M97.9175 39.5714L96.8482 41.8345C96.3787 42.828 96.7988 44.0142 97.7889 44.4909L99.434 45.283C100.912 45.9946 102.571 44.7225 102.267 43.1106L101.691 40.0554C101.332 38.1508 98.7455 37.819 97.9175 39.5714Z" fill="#3D3D3D"/>
<path d="M104.918 51.5714L103.848 53.8345C103.379 54.828 103.799 56.0142 104.789 56.4909L106.434 57.283C107.912 57.9946 109.571 56.7225 109.267 55.1106L108.691 52.0554C108.332 50.1508 105.745 49.819 104.918 51.5714Z" fill="#3D3D3D"/>
<path d="M62.9904 39.6371L62.2987 41.8268C62.0386 42.6502 62.3363 43.5476 63.037 44.0522L64.1012 44.8186C65.5192 45.8398 67.4728 44.6793 67.2543 42.9456L66.8818 39.9895C66.6136 37.8606 63.6368 37.591 62.9904 39.6371Z" fill="#3D3D3D"/>
<path d="M75.4237 41.37L73.2707 46.0885C72.8232 47.0691 73.2333 48.2278 74.1978 48.7087L77.5102 50.3601C78.9843 51.0951 80.6652 49.8327 80.3703 48.2122L79.2109 41.8422C78.8603 39.9157 76.2366 39.5886 75.4237 41.37Z" fill="#3D3D3D"/>
<path d="M51.5609 49.9872L49.4079 54.7057C48.9604 55.6862 49.3705 56.845 50.335 57.3259L53.6474 58.9773C55.1215 59.7123 56.8024 58.4499 56.5075 56.8293L55.3481 50.4593C54.9975 48.5329 52.3738 48.2058 51.5609 49.9872Z" fill="#3D3D3D"/>
<path d="M65.5186 57.1991L64.6692 59.0382C64.2143 60.0233 64.6278 61.1915 65.6011 61.6709L66.9079 62.3146C68.3833 63.0414 70.0565 61.7757 69.7586 60.1582L69.3012 57.6754C68.9477 55.7564 66.3367 55.4277 65.5186 57.1991Z" fill="#3D3D3D"/>
<path d="M80.0637 57.9414L77.9107 62.66C77.4633 63.6405 77.8733 64.7992 78.8378 65.2801L82.1502 66.9316C83.6244 67.6665 85.3052 66.4042 85.0103 64.7836L83.8509 58.4136C83.5003 56.4871 80.8766 56.16 80.0637 57.9414Z" fill="#3D3D3D"/>
<path d="M91.3323 74.5129L89.1792 79.2314C88.7318 80.2119 89.1418 81.3706 90.1063 81.8515L93.4187 83.503C94.8929 84.2379 96.5737 82.9756 96.2788 81.355L95.1195 74.985C94.7688 73.0585 92.1451 72.7314 91.3323 74.5129Z" fill="#3D3D3D"/>
<path d="M40.9552 66.5586L38.8021 71.2771C38.3547 72.2577 38.7648 73.4164 39.7293 73.8973L43.0417 75.5488C44.5158 76.2837 46.1967 75.0213 45.9018 73.4008L44.7424 67.0308C44.3918 65.1043 41.7681 64.7772 40.9552 66.5586Z" fill="#3D3D3D"/>
<path d="M56.2009 71.8615L54.0478 76.58C53.6004 77.5605 54.0104 78.7192 54.975 79.2001L58.2874 80.8516C59.7615 81.5866 61.4424 80.3242 61.1475 78.7036L59.9881 72.3336C59.6375 70.4072 57.0138 70.0801 56.2009 71.8615Z" fill="#3D3D3D"/>
<path d="M74.098 75.1757L71.9449 79.8942C71.4975 80.8747 71.9075 82.0334 72.8721 82.5143L76.1845 84.1658C77.6586 84.9008 79.3395 83.6384 79.0445 82.0178L77.8852 75.6478C77.5346 73.7214 74.9109 73.3943 74.098 75.1757Z" fill="#3D3D3D"/>
</svg>
