<svg width="140" height="150" viewBox="0 0 140 150" fill="none" xmlns="http://www.w3.org/2000/svg">
<path d="M63.4975 2.80951C64.5263 10.5713 64.8154 27.6033 57.7416 33.6367" stroke="#372F2F" stroke-width="2"/>
<path d="M63.5994 3.23493C62.6981 1.8195 60.1975 -0.0710965 56.5873 1.75038C55.1519 2.47461 54.7116 4.22659 55.1344 5.7778C57.0033 12.6353 59.0062 23.4363 56.5711 28.2108C56.1541 29.0284 55.7148 29.8779 55.7719 30.7939C55.9073 32.9642 56.7517 35.0813 59.4571 32.3276" stroke="#372F2F" stroke-width="2"/>
<path d="M24.2069 31.7556C20.2986 33.9335 12.2085 42.6509 11.1142 60.0973C9.90919 67.9847 8.02671 85.8079 10.1372 94.0014C10.6908 97.4448 12.658 105.179 16.0973 108.57C18.7353 111.748 25.692 117.734 32.4142 116.251C37.2344 115.603 49.6887 111.571 60.9445 100.623C65.9601 96.2381 77.0269 85.4547 81.1697 77.4025C84.7522 71.9284 91.292 59.2144 88.7908 52.1511C88.2697 49.3551 86.4849 43.2866 83.5146 41.3794M24.2069 31.7556C26.8645 32.6739 35.2151 33.3155 39.0582 33.5215C44.6861 33.5215 41.4032 35.1107 39.0582 35.9054C32.2579 37.318 26.3239 42.7921 24.2069 45.3526C22.8781 47.401 24.5 47.3244 25.4771 47.0301L31.5349 46.0589C40.133 45.1407 49.1871 42.1446 52.6394 40.7614C53.8119 39.49 55.0821 41.2912 55.5706 42.3507C56.5086 42.3507 57.9807 49.1786 58.5995 52.5925C58.4432 54.429 59.6417 53.7109 60.2605 53.1223C66.0447 47.1891 67.1 42.8215 66.9045 41.3794C65.1849 37.2827 66.188 36.7294 66.9045 36.9649L83.5146 41.3794M24.2069 31.7556C22.4156 31.4908 20.1618 30.2547 25.4771 27.4293C27.9197 26.3698 34.1534 24.604 39.5468 26.0167C41.6312 26.5464 45.331 26.9879 43.455 24.5157C42.1523 22.9853 39.5468 19.7656 39.5468 19.1299C39.0257 18.5413 38.5306 17.4524 40.7192 17.8055C44.5298 18.041 53.0693 20.0128 56.7431 26.0167C57.1665 27.7237 58.7558 30.3077 61.7261 26.9879C65.3738 24.9572 73.7831 21.3196 78.2385 23.0148C80.16 23.4562 82.8502 24.604 78.2385 25.6635C76.5123 26.311 72.7669 27.9238 71.5945 29.1952C70.0963 30.1958 68.2138 32.0205 72.6692 31.3142C77.0009 31.4614 86.6412 33.9806 90.5495 42.8804L83.5146 41.3794" stroke="#372F2F" stroke-width="2"/>
<mask id="path-4-inside-1_1_371" fill="white">
<path d="M21.8076 50.8778C21.8076 50.8778 21.814 50.9184 21.8195 50.9905C21.8216 51.0603 21.837 51.1709 21.8336 51.2963C21.8325 51.4233 21.8378 51.5819 21.8251 51.7516C21.8138 51.9389 21.7948 52.1258 21.7681 52.3118C21.7378 52.5229 21.6983 52.7329 21.6495 52.9411C21.5973 53.1658 21.5355 53.3886 21.4645 53.609C21.3132 54.0683 21.1212 54.5158 20.8902 54.9472C20.6686 55.3674 20.4043 55.7682 20.1007 56.1443C19.8111 56.5015 19.4999 56.8082 19.2015 57.0504C19.064 57.1616 18.9209 57.267 18.7726 57.3663C18.6369 57.4551 18.5134 57.5292 18.4055 57.5861C18.1921 57.7015 18.0468 57.7519 18.0468 57.7519C17.0304 58.1056 15.8889 57.6476 15.4976 56.7289C15.3988 56.4943 15.3549 56.2437 15.3686 55.993C15.3686 55.993 15.377 55.8524 15.4324 55.6334C15.4591 55.5232 15.4987 55.3942 15.5504 55.2501C15.6092 55.0921 15.676 54.9365 15.7504 54.7839C15.9131 54.4527 16.1398 54.0906 16.4266 53.7313C16.7124 53.3715 17.0577 53.0142 17.4425 52.683C17.8254 52.3514 18.2372 52.0481 18.6739 51.7761C18.884 51.6471 19.0994 51.5252 19.3197 51.4109C19.5238 51.3046 19.7326 51.2058 19.9455 51.1147C20.1474 51.0283 20.3401 50.9542 20.5174 50.8925C20.6921 50.8292 20.8606 50.7849 20.9941 50.7447C21.125 50.7028 21.2464 50.6821 21.3202 50.6624C21.3978 50.645 21.4425 50.6378 21.4425 50.6378C21.5244 50.6248 21.6087 50.6417 21.6768 50.6849C21.7449 50.7281 21.7912 50.7939 21.8056 50.8679L21.8076 50.8778ZM61.2838 53.5683C61.2838 53.5683 61.2709 53.6044 61.2535 53.6686C61.2397 53.7308 61.2064 53.8292 61.1884 53.941C61.168 54.0544 61.1362 54.1956 61.1195 54.3468C61.0755 54.6994 61.0642 55.0546 61.0856 55.4089C61.097 55.6036 61.1177 55.8041 61.1488 56.0063C61.2142 56.4143 61.3214 56.816 61.4687 57.2061C61.6139 57.5951 61.8014 57.9611 62.0172 58.2826C62.2322 58.6046 62.4762 58.8818 62.7188 59.1011C62.8412 59.2103 62.9601 59.3066 63.0731 59.3881C63.1872 59.469 63.2921 59.5364 63.3849 59.5885C63.5685 59.6939 63.6979 59.7408 63.6979 59.7408C63.8707 59.8024 64.0515 59.8436 64.2359 59.8633C65.3785 59.9809 66.4101 59.2392 66.5401 58.2068C66.5401 58.2068 66.5559 58.0815 66.5402 57.8855C66.5334 57.787 66.5174 57.6715 66.4927 57.5424C66.4672 57.4139 66.4293 57.2736 66.3811 57.1244C66.2823 56.8273 66.1279 56.5018 65.9161 56.1781C65.7052 55.8539 65.4373 55.5313 65.1273 55.2314C64.8171 54.9292 64.4766 54.6535 64.1101 54.408C63.9314 54.2898 63.7472 54.1786 63.558 54.0745C63.381 53.9767 63.1992 53.886 63.0132 53.8028C62.8476 53.7283 62.6787 53.6599 62.5069 53.5978C62.3516 53.5392 62.1988 53.4975 62.0788 53.4602C61.9615 53.4214 61.8497 53.4015 61.7827 53.3829C61.7119 53.3664 61.6705 53.3594 61.6705 53.3594C61.589 53.3458 61.5048 53.3595 61.4336 53.398C61.3625 53.4364 61.3092 53.4969 61.2838 53.5683ZM48.0965 61.8888C48.0965 61.8888 48.0549 61.8943 47.9834 61.9084C47.9157 61.9247 47.8032 61.9408 47.6844 61.9756C47.563 62.0088 47.4088 62.0451 47.2511 62.0983C46.8818 62.2179 46.5241 62.3651 46.1819 62.5384C45.9887 62.6357 45.8002 62.7405 45.6169 62.8525C45.2408 63.0851 44.8894 63.3487 44.5672 63.6399C44.2453 63.9288 43.9646 64.2418 43.7408 64.5583C43.5161 64.8742 43.3488 65.194 43.238 65.4873C43.1872 65.623 43.1444 65.761 43.1097 65.9008C43.0797 66.0288 43.0591 66.1436 43.0483 66.2416C43.0246 66.4367 43.0354 66.5623 43.0354 66.5623C43.05 66.7223 43.0879 66.8924 43.1504 67.0508C43.5372 68.03 44.729 68.5405 45.8125 68.191C45.8125 68.191 45.9437 68.1486 46.1314 68.0498C46.2415 67.9918 46.3482 67.9286 46.4509 67.8604C46.578 67.7748 46.7 67.6832 46.8165 67.586C47.0677 67.3753 47.3227 67.1067 47.5506 66.7927C47.7793 66.479 47.9813 66.1199 48.1421 65.7366C48.3052 65.3521 48.4286 64.9548 48.5105 64.5497C48.5489 64.3528 48.578 64.1545 48.5978 63.9553C48.6335 63.6023 48.6367 63.2472 48.6071 62.8937C48.5966 62.7419 48.5706 62.5999 48.5548 62.4861C48.5415 62.3739 48.5121 62.2744 48.5009 62.212C48.4861 62.1473 48.4746 62.1107 48.4746 62.1107C48.4521 62.0386 48.4013 61.9763 48.3317 61.9355C48.2622 61.8947 48.1786 61.8781 48.0965 61.8888ZM22.3102 84.2187C22.3102 84.2187 22.2687 84.2241 22.1971 84.2383C22.1294 84.2546 22.0169 84.2707 21.8981 84.3054C21.7767 84.3387 21.6225 84.375 21.4648 84.4282C21.0955 84.5477 20.7378 84.6949 20.3956 84.8682C20.2024 84.9656 20.0139 85.0704 19.8306 85.1823C19.4545 85.4149 19.1031 85.6785 18.7809 85.9698C18.459 86.2586 18.1784 86.5716 17.9545 86.8882C17.7298 87.2041 17.5625 87.5238 17.4517 87.8171C17.4009 87.9528 17.3581 88.0908 17.3234 88.2306C17.2934 88.3586 17.2728 88.4734 17.262 88.5714C17.2383 88.7665 17.2491 88.8921 17.2491 88.8921C17.2637 89.0521 17.3016 89.2223 17.3642 89.3807C17.7509 90.3598 18.9427 90.8703 20.0262 90.5208C20.0262 90.5208 20.1574 90.4784 20.3451 90.3796C20.4552 90.3217 20.5619 90.2585 20.6646 90.1902C20.7917 90.1046 20.9137 90.0131 21.0302 89.9159C21.2814 89.7051 21.5365 89.4366 21.7643 89.1225C21.993 88.8088 22.195 88.4497 22.3558 88.0664C22.519 87.6819 22.6423 87.2846 22.7242 86.8795C22.7626 86.6826 22.7917 86.4843 22.8115 86.2852C22.8473 85.9321 22.8504 85.577 22.8208 85.2235C22.8103 85.0717 22.7843 84.9297 22.7685 84.816C22.7552 84.7038 22.7258 84.6042 22.7146 84.5418C22.6998 84.4772 22.6883 84.4405 22.6883 84.4405C22.6659 84.3684 22.6151 84.3061 22.5455 84.2652C22.4759 84.2244 22.3923 84.2079 22.3102 84.2187ZM25.3228 66.6448C25.3228 66.6448 25.2847 66.6589 25.2207 66.6876C25.1608 66.7173 25.0582 66.7567 24.9552 66.8149C24.8491 66.8721 24.7127 66.9393 24.5781 67.0229C24.2623 67.2133 23.9649 67.4276 23.6893 67.6636C23.5341 67.7949 23.3865 67.9334 23.2469 68.0784C23.0996 68.2241 22.9662 68.38 22.8372 68.5403C22.7091 68.7001 22.59 68.8656 22.4804 69.0363C22.2607 69.3742 22.0877 69.7256 21.97 70.0678C21.8515 70.4097 21.7892 70.7428 21.7723 71.0388C21.757 71.2867 21.7734 71.5354 21.8214 71.7799C21.8381 71.8724 21.8656 71.9493 21.8787 72.0001C21.8941 72.0515 21.9068 72.0803 21.9068 72.0803C21.9577 72.1923 22.0193 72.3001 22.091 72.4024C22.7324 73.3054 24.0623 73.5673 25.0613 72.9878C25.0613 72.9878 25.0902 72.9711 25.1355 72.9372C25.1786 72.9025 25.2503 72.8544 25.3232 72.7874C25.5188 72.613 25.6913 72.4187 25.8374 72.2083C26.0131 71.958 26.1754 71.6537 26.2975 71.3128C26.4203 70.9721 26.5042 70.5952 26.541 70.2047C26.5608 70.0082 26.5696 69.811 26.5674 69.6137C26.5646 69.4155 26.5555 69.2187 26.5286 69.0229C26.5077 68.8317 26.4758 68.6415 26.4331 68.4533C26.3591 68.1169 26.2537 67.7867 26.118 67.4664C26.0616 67.3279 25.9933 67.2018 25.9435 67.0996C25.8965 66.9984 25.8379 66.9126 25.8082 66.8571C25.7743 66.8003 25.7522 66.7688 25.7522 66.7688C25.7081 66.7059 25.6409 66.659 25.5624 66.6363C25.4839 66.6136 25.399 66.6167 25.3228 66.6448ZM41.3742 49.063C41.3803 48.9868 41.3527 48.9115 41.2975 48.8537C41.2423 48.7959 41.1639 48.7603 41.0796 48.7547C41.0796 48.7547 41.035 48.7518 40.9565 48.7517C40.881 48.7545 40.7597 48.7479 40.6245 48.7594C40.4871 48.7688 40.3151 48.7746 40.1329 48.7969C39.9316 48.8192 39.7313 48.8485 39.5325 48.8847C39.3073 48.9255 39.0841 48.9746 38.8633 49.0318C38.6256 49.0932 38.3907 49.1628 38.159 49.2406C37.6775 49.4052 37.2119 49.6058 36.7671 49.8401C36.3344 50.0648 35.9265 50.3266 35.5491 50.6217C35.1906 50.9029 34.889 51.2 34.6562 51.4815C34.5405 51.623 34.4396 51.758 34.3559 51.884C34.2731 52.0106 34.2049 52.1254 34.1538 52.225C34.0498 52.4225 34.0091 52.5552 34.0091 52.5552C33.9406 52.7826 33.9212 53.0198 33.9517 53.2539C34.0854 54.2405 35.0786 54.9423 36.1703 54.8216C36.1703 54.8216 36.3215 54.8049 36.5531 54.741C36.6696 54.71 36.8054 54.6662 36.9563 54.6107C37.1065 54.5546 37.2691 54.4842 37.4412 54.4018C37.7836 54.2351 38.1533 54.0095 38.5141 53.7307C38.8929 53.4369 39.2396 53.111 39.5495 52.7575C39.8715 52.3945 40.1597 52.008 40.4112 51.602C40.5306 51.4065 40.6415 51.2068 40.7437 51.0034C40.839 50.8146 40.9256 50.6223 41.0035 50.4271C41.0725 50.2548 41.1341 50.0801 41.1884 49.9035C41.2399 49.7439 41.2716 49.5911 41.3022 49.4696C41.3347 49.3505 41.3455 49.2412 41.3597 49.1739C41.371 49.1037 41.3744 49.0634 41.3744 49.0634L41.3742 49.063ZM57.6042 71.2368C57.6042 71.2368 57.5911 71.2742 57.5732 71.3409C57.5592 71.4056 57.5251 71.5074 57.5068 71.6243C57.4859 71.7426 57.4534 71.8898 57.4364 72.0484C57.415 72.2228 57.4011 72.3979 57.3948 72.5733C57.3876 72.7711 57.3896 72.9691 57.4008 73.1668C57.4126 73.3787 57.4338 73.5901 57.4645 73.8005C57.5311 74.2363 57.6397 74.6659 57.789 75.0846C57.9304 75.4898 58.117 75.881 58.346 76.2521C58.5644 76.6042 58.8125 76.9109 59.0592 77.1564C59.1838 77.2786 59.3045 77.3874 59.4195 77.4798C59.5357 77.5717 59.6422 77.649 59.7367 77.7093C59.9232 77.8312 60.0552 77.8881 60.0552 77.8881C60.2606 77.9761 60.4806 78.0329 60.7064 78.0564C61.821 78.1688 62.8256 77.4433 62.9497 76.436C62.9497 76.436 62.9659 76.3048 62.9502 76.0971C62.9434 75.9927 62.9273 75.87 62.9022 75.7324C62.8764 75.5954 62.8381 75.4452 62.7892 75.2851C62.6889 74.9659 62.5322 74.6136 62.317 74.2598C62.1026 73.9057 61.8304 73.5496 61.5151 73.2152C61.2008 72.8792 60.8547 72.5687 60.4806 72.2872C60.2992 72.1525 60.1118 72.0243 59.919 71.9032C59.7393 71.7901 59.5544 71.6838 59.3647 71.5847C59.1967 71.4968 59.025 71.4148 58.8499 71.339C58.6918 71.2683 58.5365 71.2153 58.4143 71.1689C58.2948 71.1211 58.1812 71.0935 58.113 71.0699C58.041 71.0483 57.9989 71.0385 57.9989 71.0385C57.9175 71.0202 57.8315 71.0304 57.7582 71.0673C57.6849 71.1041 57.6298 71.1647 57.6042 71.2368ZM60.911 86.4889C60.911 86.4889 60.8848 86.5201 60.8431 86.5775C60.8059 86.6342 60.7359 86.7199 60.6753 86.8244C60.6117 86.9295 60.5266 87.0582 60.4517 87.2026C60.2719 87.539 60.1221 87.8878 60.0036 88.2457C59.9361 88.449 59.8777 88.6546 59.8285 88.8621C59.7296 89.2929 59.6726 89.7306 59.658 90.1702C59.641 90.5948 59.6718 91.0199 59.7499 91.4388C59.8252 91.8369 59.9452 92.2007 60.0866 92.5069C60.1523 92.648 60.2255 92.7861 60.3062 92.9207C60.3813 93.0423 60.4533 93.1474 60.5199 93.233C60.6505 93.4044 60.7536 93.498 60.7536 93.498C60.9145 93.643 61.1007 93.7632 61.3048 93.8537C62.3133 94.297 63.5286 93.9176 64.0192 93.0062C64.0192 93.0062 64.0831 92.8874 64.1452 92.6871C64.1776 92.5868 64.2078 92.4661 64.2353 92.3291C64.2634 92.1782 64.2833 92.0261 64.2947 91.8734C64.3187 91.5423 64.3015 91.1629 64.2299 90.7644C64.1535 90.3452 64.0302 89.9341 63.8618 89.5374C63.6917 89.1264 63.4748 88.7224 63.2311 88.3499C63.1101 88.1679 62.9811 87.9905 62.8443 87.8179C62.604 87.5141 62.3371 87.2281 62.0463 86.9627C61.9236 86.848 61.7969 86.7511 61.699 86.6705C61.6042 86.5893 61.5073 86.5288 61.4518 86.4859C61.3919 86.4438 61.3559 86.4219 61.3559 86.4219C61.2862 86.3798 61.2014 86.3634 61.1188 86.3758C61.0361 86.3883 60.9618 86.4287 60.911 86.4889ZM74.0267 63.041C73.9519 63.0129 73.8678 63.0128 73.793 63.0408C73.7181 63.0687 73.6586 63.1223 73.6275 63.1899C73.6275 63.1899 73.6094 63.229 73.5831 63.2999C73.56 63.3697 73.5157 63.4757 73.4785 63.604C73.3755 63.945 73.2989 64.2922 73.2493 64.6428C73.2173 64.864 73.1948 65.0862 73.1819 65.309C73.1674 65.5499 73.1627 65.7912 73.1678 66.0324C73.1817 66.538 73.2384 67.0419 73.3374 67.5396C73.4311 68.025 73.5716 68.502 73.7575 68.9652C73.9353 69.4061 74.1488 69.8018 74.3684 70.1292C74.4795 70.2924 74.5884 70.4397 74.6937 70.5675C74.7999 70.6951 74.8984 70.8042 74.9867 70.8919C75.1607 71.0678 75.2873 71.1597 75.2873 71.1597C75.5277 71.3327 75.8095 71.4523 76.1102 71.5092C77.1598 71.7043 78.1859 71.0935 78.4019 70.1451C78.4019 70.1451 78.4345 70.0014 78.4442 69.7655C78.4504 69.6472 78.449 69.5063 78.4407 69.3469C78.4316 69.1878 78.4112 69.0115 78.3815 68.8218C78.3194 68.4432 78.2042 68.0152 78.0299 67.5732C77.8563 67.1311 77.6246 66.6748 77.3465 66.2334C77.0714 65.793 76.7592 65.3724 76.4128 64.9752C76.2464 64.7864 76.0723 64.6033 75.891 64.4262C75.7237 64.2622 75.5494 64.1041 75.3687 63.9523C75.0829 63.7109 74.7788 63.4879 74.4587 63.2848C74.3395 63.2073 74.2305 63.1514 74.1633 63.111C74.0929 63.0715 74.0514 63.0519 74.0514 63.0519C74.0435 63.0477 74.0352 63.0441 74.0267 63.041ZM48.5925 83.489C48.5925 83.489 48.5588 83.5139 48.5037 83.5611C48.453 83.6084 48.363 83.677 48.2771 83.7662C48.1883 83.8549 48.0723 83.9624 47.9624 84.0871C47.7011 84.3765 47.4657 84.6843 47.2585 85.0075C47.1439 85.1858 47.0331 85.3744 46.9297 85.5703C46.7229 85.9686 46.555 86.3823 46.4279 86.807C46.3022 87.2164 46.223 87.6363 46.1915 88.0603C46.1626 88.4632 46.1857 88.8424 46.2446 89.1699C46.2722 89.3209 46.308 89.4707 46.352 89.6185C46.3939 89.7527 46.4367 89.87 46.4796 89.9672C46.5627 90.1612 46.6389 90.274 46.6389 90.274C46.7537 90.4422 46.905 90.6033 47.0836 90.7356C47.9507 91.3784 49.2303 91.2642 49.9417 90.4808C49.9417 90.4808 50.0345 90.3787 50.1463 90.1969C50.2034 90.106 50.264 89.9952 50.3259 89.8676C50.392 89.7267 50.4503 89.5829 50.5007 89.4367C50.6091 89.1198 50.6899 88.747 50.7226 88.3444C50.7561 87.9207 50.7417 87.4949 50.6797 87.0738C50.6186 86.6374 50.5154 86.2066 50.3714 85.7865C50.3005 85.5841 50.2206 85.3844 50.1319 85.188C49.976 84.842 49.7899 84.5078 49.5753 84.1886C49.4853 84.0515 49.3869 83.9306 49.3125 83.8316C49.2412 83.7326 49.1624 83.6536 49.1193 83.6002C49.0718 83.5467 49.0424 83.5178 49.0424 83.5178C48.9857 83.462 48.9074 83.428 48.8238 83.4226C48.7402 83.4173 48.6574 83.4411 48.5925 83.489ZM29.8184 97.6505C29.8037 97.6238 29.7834 97.6 29.7585 97.5804C29.7336 97.5609 29.7047 97.5459 29.6735 97.5365C29.6422 97.527 29.6092 97.5232 29.5763 97.5253C29.5434 97.5273 29.5113 97.5352 29.4818 97.5485L29.3965 97.5869C29.3461 97.6137 29.2606 97.6492 29.1736 97.7014C29.0842 97.7527 28.9696 97.8132 28.8553 97.8881C28.5856 98.0608 28.3317 98.2527 28.0958 98.4619C27.966 98.5775 27.8343 98.701 27.7118 98.8331C27.4567 99.099 27.229 99.3854 27.0314 99.6887C26.6297 100.291 26.3931 100.946 26.3332 101.474C26.3188 101.596 26.3111 101.718 26.3102 101.84C26.31 101.938 26.3154 102.036 26.3262 102.134C26.3469 102.3 26.3767 102.401 26.3767 102.401C26.4439 102.628 26.5716 102.838 26.7487 103.011C26.9257 103.184 27.1468 103.315 27.3927 103.393C27.6386 103.472 27.9019 103.495 28.1598 103.46C28.4178 103.426 28.6625 103.335 28.8729 103.196C28.8729 103.196 28.966 103.134 29.0976 103.016C29.1631 102.957 29.2358 102.884 29.3136 102.797C29.3906 102.711 29.4697 102.61 29.5499 102.499C29.8699 102.053 30.1401 101.409 30.245 100.712C30.3017 100.364 30.3231 100.012 30.3089 99.6604C30.3051 99.4881 30.2883 99.3173 30.2674 99.1537C30.2465 98.9901 30.2173 98.8326 30.1845 98.6851C30.1512 98.5377 30.1136 98.4001 30.0742 98.2763C30.0373 98.1533 29.9899 98.0412 29.9559 97.9506C29.9243 97.8607 29.8822 97.7846 29.8616 97.7352L29.8217 97.6569L29.8184 97.6505ZM70.6059 49.1524C70.6059 49.1524 70.6153 49.1907 70.6368 49.2565C70.6606 49.3188 70.6874 49.4224 70.7366 49.5319C70.7841 49.6437 70.8377 49.7856 70.9108 49.9307C70.9824 50.0783 71.0677 50.2377 71.1661 50.4036C71.2697 50.578 71.3813 50.7484 71.5006 50.9143C71.6247 51.0874 71.7608 51.2619 71.9073 51.4338C72.2023 51.7749 72.5392 52.1048 72.9006 52.3979C73.2603 52.6934 73.6454 52.9507 74.0304 53.1556C74.4149 53.3613 74.7994 53.5142 75.1492 53.615C75.3107 53.6611 75.4747 53.7 75.6404 53.7315C75.7917 53.7584 75.9269 53.777 76.0421 53.7866C76.2713 53.8074 76.417 53.797 76.417 53.797C76.635 53.7806 76.8622 53.7316 77.0739 53.6476C78.1008 53.2398 78.5673 52.1571 78.1158 51.2292C78.1158 51.2292 78.057 51.1083 77.9282 50.9358C77.8525 50.8341 77.7711 50.7361 77.6844 50.6419C77.5753 50.5249 77.4598 50.4129 77.3384 50.3061C77.0745 50.0754 76.7434 49.8416 76.3611 49.6329C75.979 49.4235 75.5459 49.2389 75.0877 49.0923C74.6293 48.9441 74.1575 48.8323 73.6777 48.7581C73.4459 48.7236 73.2127 48.6977 72.9786 48.6803C72.7604 48.6639 72.5415 48.6557 72.3225 48.6558C72.1282 48.6558 71.9341 48.6627 71.7404 48.6765C71.5643 48.6868 71.4008 48.7115 71.2691 48.7266C71.1391 48.7394 71.0256 48.767 70.9534 48.7775C70.9145 48.7846 70.8758 48.7928 70.8374 48.8022C70.7569 48.8231 70.6881 48.8709 70.6451 48.936C70.6021 49.001 70.5881 49.0784 70.6059 49.1524ZM38.5255 80.6056C38.5255 80.6056 38.4865 80.6229 38.421 80.6574C38.3596 80.6932 38.2547 80.7414 38.1487 80.8105C38.0397 80.8787 37.8998 80.9595 37.7613 81.0582C37.4338 81.2862 37.127 81.5375 36.8439 81.8097C36.6828 81.9641 36.5288 82.1244 36.382 82.2901C36.0803 82.6354 35.8125 83.0038 35.5817 83.3911C35.3496 83.7771 35.1645 84.1761 35.0356 84.5628C34.9059 84.9492 34.833 85.3232 34.8077 85.6541C34.7965 85.8068 34.7936 85.96 34.7992 86.113C34.8062 86.2522 34.8185 86.3754 34.8355 86.4787C34.8674 86.6847 34.9133 86.8101 34.9133 86.8101C34.9854 87.0049 35.0924 87.1877 35.23 87.3512C35.9124 88.1555 37.1872 88.3077 38.0773 87.6911C38.0773 87.6911 38.1933 87.6107 38.348 87.4567C38.4393 87.3661 38.5253 87.2713 38.6059 87.1728C38.7057 87.0491 38.7988 86.9211 38.8847 86.7892C39.0701 86.5028 39.2427 86.1566 39.3762 85.7713C39.5104 85.3861 39.606 84.9622 39.6546 84.525C39.7051 84.0875 39.7132 83.6469 39.6787 83.2081C39.6608 82.9965 39.6333 82.7857 39.5963 82.5761C39.5611 82.3727 39.5159 82.1772 39.4666 81.9944C39.4168 81.8116 39.3621 81.6414 39.3061 81.4886C39.2532 81.3364 39.1878 81.1986 39.1403 81.0867C39.0958 80.9758 39.039 80.8825 39.0105 80.8218C38.9778 80.7599 38.9564 80.7258 38.9564 80.7258C38.915 80.66 38.8474 80.6109 38.7673 80.5886C38.6873 80.5662 38.6008 80.5723 38.5255 80.6056ZM44.1066 101.05C44.0914 100.992 44.051 100.941 43.9945 100.909C43.9379 100.878 43.8697 100.868 43.8048 100.881L43.712 100.901C43.6563 100.917 43.5639 100.933 43.466 100.966C43.366 100.998 43.2389 101.033 43.1089 101.082C42.9649 101.134 42.8232 101.192 42.6841 101.254C42.5272 101.325 42.3737 101.401 42.224 101.483C42.0682 101.568 41.9088 101.661 41.7561 101.764C41.4402 101.97 41.1459 102.202 40.8767 102.456C40.3327 102.959 39.9363 103.547 39.7437 104.049C39.6957 104.175 39.6567 104.293 39.6283 104.401C39.6006 104.509 39.5807 104.607 39.5694 104.689C39.5472 104.856 39.5507 104.96 39.5507 104.96C39.5571 105.139 39.5998 105.316 39.6767 105.482C39.8425 105.836 40.1571 106.116 40.5512 106.26C40.9453 106.404 41.3867 106.401 41.7783 106.251C41.7783 106.251 41.8846 106.211 42.0425 106.123C42.1343 106.071 42.223 106.015 42.3084 105.955C42.4147 105.879 42.5167 105.798 42.6142 105.713C43.0389 105.346 43.4653 104.775 43.7443 104.119C43.8879 103.791 43.9982 103.453 44.0737 103.108C44.1118 102.942 44.1412 102.775 44.1618 102.606C44.1818 102.449 44.1946 102.291 44.2 102.133C44.205 101.983 44.2034 101.841 44.1963 101.712C44.1916 101.585 44.174 101.466 44.1639 101.371C44.1559 101.277 44.1344 101.194 44.1267 101.141L44.1079 101.057C44.1077 101.055 44.1073 101.052 44.1066 101.05Z"/>
</mask>
<path d="M21.8076 50.8778C21.8076 50.8778 21.814 50.9184 21.8195 50.9905C21.8216 51.0603 21.837 51.1709 21.8336 51.2963C21.8325 51.4233 21.8378 51.5819 21.8251 51.7516C21.8138 51.9389 21.7948 52.1258 21.7681 52.3118C21.7378 52.5229 21.6983 52.7329 21.6495 52.9411C21.5973 53.1658 21.5355 53.3886 21.4645 53.609C21.3132 54.0683 21.1212 54.5158 20.8902 54.9472C20.6686 55.3674 20.4043 55.7682 20.1007 56.1443C19.8111 56.5015 19.4999 56.8082 19.2015 57.0504C19.064 57.1616 18.9209 57.267 18.7726 57.3663C18.6369 57.4551 18.5134 57.5292 18.4055 57.5861C18.1921 57.7015 18.0468 57.7519 18.0468 57.7519C17.0304 58.1056 15.8889 57.6476 15.4976 56.7289C15.3988 56.4943 15.3549 56.2437 15.3686 55.993C15.3686 55.993 15.377 55.8524 15.4324 55.6334C15.4591 55.5232 15.4987 55.3942 15.5504 55.2501C15.6092 55.0921 15.676 54.9365 15.7504 54.7839C15.9131 54.4527 16.1398 54.0906 16.4266 53.7313C16.7124 53.3715 17.0577 53.0142 17.4425 52.683C17.8254 52.3514 18.2372 52.0481 18.6739 51.7761C18.884 51.6471 19.0994 51.5252 19.3197 51.4109C19.5238 51.3046 19.7326 51.2058 19.9455 51.1147C20.1474 51.0283 20.3401 50.9542 20.5174 50.8925C20.6921 50.8292 20.8606 50.7849 20.9941 50.7447C21.125 50.7028 21.2464 50.6821 21.3202 50.6624C21.3978 50.645 21.4425 50.6378 21.4425 50.6378C21.5244 50.6248 21.6087 50.6417 21.6768 50.6849C21.7449 50.7281 21.7912 50.7939 21.8056 50.8679L21.8076 50.8778ZM61.2838 53.5683C61.2838 53.5683 61.2709 53.6044 61.2535 53.6686C61.2397 53.7308 61.2064 53.8292 61.1884 53.941C61.168 54.0544 61.1362 54.1956 61.1195 54.3468C61.0755 54.6994 61.0642 55.0546 61.0856 55.4089C61.097 55.6036 61.1177 55.8041 61.1488 56.0063C61.2142 56.4143 61.3214 56.816 61.4687 57.2061C61.6139 57.5951 61.8014 57.9611 62.0172 58.2826C62.2322 58.6046 62.4762 58.8818 62.7188 59.1011C62.8412 59.2103 62.9601 59.3066 63.0731 59.3881C63.1872 59.469 63.2921 59.5364 63.3849 59.5885C63.5685 59.6939 63.6979 59.7408 63.6979 59.7408C63.8707 59.8024 64.0515 59.8436 64.2359 59.8633C65.3785 59.9809 66.4101 59.2392 66.5401 58.2068C66.5401 58.2068 66.5559 58.0815 66.5402 57.8855C66.5334 57.787 66.5174 57.6715 66.4927 57.5424C66.4672 57.4139 66.4293 57.2736 66.3811 57.1244C66.2823 56.8273 66.1279 56.5018 65.9161 56.1781C65.7052 55.8539 65.4373 55.5313 65.1273 55.2314C64.8171 54.9292 64.4766 54.6535 64.1101 54.408C63.9314 54.2898 63.7472 54.1786 63.558 54.0745C63.381 53.9767 63.1992 53.886 63.0132 53.8028C62.8476 53.7283 62.6787 53.6599 62.5069 53.5978C62.3516 53.5392 62.1988 53.4975 62.0788 53.4602C61.9615 53.4214 61.8497 53.4015 61.7827 53.3829C61.7119 53.3664 61.6705 53.3594 61.6705 53.3594C61.589 53.3458 61.5048 53.3595 61.4336 53.398C61.3625 53.4364 61.3092 53.4969 61.2838 53.5683ZM48.0965 61.8888C48.0965 61.8888 48.0549 61.8943 47.9834 61.9084C47.9157 61.9247 47.8032 61.9408 47.6844 61.9756C47.563 62.0088 47.4088 62.0451 47.2511 62.0983C46.8818 62.2179 46.5241 62.3651 46.1819 62.5384C45.9887 62.6357 45.8002 62.7405 45.6169 62.8525C45.2408 63.0851 44.8894 63.3487 44.5672 63.6399C44.2453 63.9288 43.9646 64.2418 43.7408 64.5583C43.5161 64.8742 43.3488 65.194 43.238 65.4873C43.1872 65.623 43.1444 65.761 43.1097 65.9008C43.0797 66.0288 43.0591 66.1436 43.0483 66.2416C43.0246 66.4367 43.0354 66.5623 43.0354 66.5623C43.05 66.7223 43.0879 66.8924 43.1504 67.0508C43.5372 68.03 44.729 68.5405 45.8125 68.191C45.8125 68.191 45.9437 68.1486 46.1314 68.0498C46.2415 67.9918 46.3482 67.9286 46.4509 67.8604C46.578 67.7748 46.7 67.6832 46.8165 67.586C47.0677 67.3753 47.3227 67.1067 47.5506 66.7927C47.7793 66.479 47.9813 66.1199 48.1421 65.7366C48.3052 65.3521 48.4286 64.9548 48.5105 64.5497C48.5489 64.3528 48.578 64.1545 48.5978 63.9553C48.6335 63.6023 48.6367 63.2472 48.6071 62.8937C48.5966 62.7419 48.5706 62.5999 48.5548 62.4861C48.5415 62.3739 48.5121 62.2744 48.5009 62.212C48.4861 62.1473 48.4746 62.1107 48.4746 62.1107C48.4521 62.0386 48.4013 61.9763 48.3317 61.9355C48.2622 61.8947 48.1786 61.8781 48.0965 61.8888ZM22.3102 84.2187C22.3102 84.2187 22.2687 84.2241 22.1971 84.2383C22.1294 84.2546 22.0169 84.2707 21.8981 84.3054C21.7767 84.3387 21.6225 84.375 21.4648 84.4282C21.0955 84.5477 20.7378 84.6949 20.3956 84.8682C20.2024 84.9656 20.0139 85.0704 19.8306 85.1823C19.4545 85.4149 19.1031 85.6785 18.7809 85.9698C18.459 86.2586 18.1784 86.5716 17.9545 86.8882C17.7298 87.2041 17.5625 87.5238 17.4517 87.8171C17.4009 87.9528 17.3581 88.0908 17.3234 88.2306C17.2934 88.3586 17.2728 88.4734 17.262 88.5714C17.2383 88.7665 17.2491 88.8921 17.2491 88.8921C17.2637 89.0521 17.3016 89.2223 17.3642 89.3807C17.7509 90.3598 18.9427 90.8703 20.0262 90.5208C20.0262 90.5208 20.1574 90.4784 20.3451 90.3796C20.4552 90.3217 20.5619 90.2585 20.6646 90.1902C20.7917 90.1046 20.9137 90.0131 21.0302 89.9159C21.2814 89.7051 21.5365 89.4366 21.7643 89.1225C21.993 88.8088 22.195 88.4497 22.3558 88.0664C22.519 87.6819 22.6423 87.2846 22.7242 86.8795C22.7626 86.6826 22.7917 86.4843 22.8115 86.2852C22.8473 85.9321 22.8504 85.577 22.8208 85.2235C22.8103 85.0717 22.7843 84.9297 22.7685 84.816C22.7552 84.7038 22.7258 84.6042 22.7146 84.5418C22.6998 84.4772 22.6883 84.4405 22.6883 84.4405C22.6659 84.3684 22.6151 84.3061 22.5455 84.2652C22.4759 84.2244 22.3923 84.2079 22.3102 84.2187ZM25.3228 66.6448C25.3228 66.6448 25.2847 66.6589 25.2207 66.6876C25.1608 66.7173 25.0582 66.7567 24.9552 66.8149C24.8491 66.8721 24.7127 66.9393 24.5781 67.0229C24.2623 67.2133 23.9649 67.4276 23.6893 67.6636C23.5341 67.7949 23.3865 67.9334 23.2469 68.0784C23.0996 68.2241 22.9662 68.38 22.8372 68.5403C22.7091 68.7001 22.59 68.8656 22.4804 69.0363C22.2607 69.3742 22.0877 69.7256 21.97 70.0678C21.8515 70.4097 21.7892 70.7428 21.7723 71.0388C21.757 71.2867 21.7734 71.5354 21.8214 71.7799C21.8381 71.8724 21.8656 71.9493 21.8787 72.0001C21.8941 72.0515 21.9068 72.0803 21.9068 72.0803C21.9577 72.1923 22.0193 72.3001 22.091 72.4024C22.7324 73.3054 24.0623 73.5673 25.0613 72.9878C25.0613 72.9878 25.0902 72.9711 25.1355 72.9372C25.1786 72.9025 25.2503 72.8544 25.3232 72.7874C25.5188 72.613 25.6913 72.4187 25.8374 72.2083C26.0131 71.958 26.1754 71.6537 26.2975 71.3128C26.4203 70.9721 26.5042 70.5952 26.541 70.2047C26.5608 70.0082 26.5696 69.811 26.5674 69.6137C26.5646 69.4155 26.5555 69.2187 26.5286 69.0229C26.5077 68.8317 26.4758 68.6415 26.4331 68.4533C26.3591 68.1169 26.2537 67.7867 26.118 67.4664C26.0616 67.3279 25.9933 67.2018 25.9435 67.0996C25.8965 66.9984 25.8379 66.9126 25.8082 66.8571C25.7743 66.8003 25.7522 66.7688 25.7522 66.7688C25.7081 66.7059 25.6409 66.659 25.5624 66.6363C25.4839 66.6136 25.399 66.6167 25.3228 66.6448ZM41.3742 49.063C41.3803 48.9868 41.3527 48.9115 41.2975 48.8537C41.2423 48.7959 41.1639 48.7603 41.0796 48.7547C41.0796 48.7547 41.035 48.7518 40.9565 48.7517C40.881 48.7545 40.7597 48.7479 40.6245 48.7594C40.4871 48.7688 40.3151 48.7746 40.1329 48.7969C39.9316 48.8192 39.7313 48.8485 39.5325 48.8847C39.3073 48.9255 39.0841 48.9746 38.8633 49.0318C38.6256 49.0932 38.3907 49.1628 38.159 49.2406C37.6775 49.4052 37.2119 49.6058 36.7671 49.8401C36.3344 50.0648 35.9265 50.3266 35.5491 50.6217C35.1906 50.9029 34.889 51.2 34.6562 51.4815C34.5405 51.623 34.4396 51.758 34.3559 51.884C34.2731 52.0106 34.2049 52.1254 34.1538 52.225C34.0498 52.4225 34.0091 52.5552 34.0091 52.5552C33.9406 52.7826 33.9212 53.0198 33.9517 53.2539C34.0854 54.2405 35.0786 54.9423 36.1703 54.8216C36.1703 54.8216 36.3215 54.8049 36.5531 54.741C36.6696 54.71 36.8054 54.6662 36.9563 54.6107C37.1065 54.5546 37.2691 54.4842 37.4412 54.4018C37.7836 54.2351 38.1533 54.0095 38.5141 53.7307C38.8929 53.4369 39.2396 53.111 39.5495 52.7575C39.8715 52.3945 40.1597 52.008 40.4112 51.602C40.5306 51.4065 40.6415 51.2068 40.7437 51.0034C40.839 50.8146 40.9256 50.6223 41.0035 50.4271C41.0725 50.2548 41.1341 50.0801 41.1884 49.9035C41.2399 49.7439 41.2716 49.5911 41.3022 49.4696C41.3347 49.3505 41.3455 49.2412 41.3597 49.1739C41.371 49.1037 41.3744 49.0634 41.3744 49.0634L41.3742 49.063ZM57.6042 71.2368C57.6042 71.2368 57.5911 71.2742 57.5732 71.3409C57.5592 71.4056 57.5251 71.5074 57.5068 71.6243C57.4859 71.7426 57.4534 71.8898 57.4364 72.0484C57.415 72.2228 57.4011 72.3979 57.3948 72.5733C57.3876 72.7711 57.3896 72.9691 57.4008 73.1668C57.4126 73.3787 57.4338 73.5901 57.4645 73.8005C57.5311 74.2363 57.6397 74.6659 57.789 75.0846C57.9304 75.4898 58.117 75.881 58.346 76.2521C58.5644 76.6042 58.8125 76.9109 59.0592 77.1564C59.1838 77.2786 59.3045 77.3874 59.4195 77.4798C59.5357 77.5717 59.6422 77.649 59.7367 77.7093C59.9232 77.8312 60.0552 77.8881 60.0552 77.8881C60.2606 77.9761 60.4806 78.0329 60.7064 78.0564C61.821 78.1688 62.8256 77.4433 62.9497 76.436C62.9497 76.436 62.9659 76.3048 62.9502 76.0971C62.9434 75.9927 62.9273 75.87 62.9022 75.7324C62.8764 75.5954 62.8381 75.4452 62.7892 75.2851C62.6889 74.9659 62.5322 74.6136 62.317 74.2598C62.1026 73.9057 61.8304 73.5496 61.5151 73.2152C61.2008 72.8792 60.8547 72.5687 60.4806 72.2872C60.2992 72.1525 60.1118 72.0243 59.919 71.9032C59.7393 71.7901 59.5544 71.6838 59.3647 71.5847C59.1967 71.4968 59.025 71.4148 58.8499 71.339C58.6918 71.2683 58.5365 71.2153 58.4143 71.1689C58.2948 71.1211 58.1812 71.0935 58.113 71.0699C58.041 71.0483 57.9989 71.0385 57.9989 71.0385C57.9175 71.0202 57.8315 71.0304 57.7582 71.0673C57.6849 71.1041 57.6298 71.1647 57.6042 71.2368ZM60.911 86.4889C60.911 86.4889 60.8848 86.5201 60.8431 86.5775C60.8059 86.6342 60.7359 86.7199 60.6753 86.8244C60.6117 86.9295 60.5266 87.0582 60.4517 87.2026C60.2719 87.539 60.1221 87.8878 60.0036 88.2457C59.9361 88.449 59.8777 88.6546 59.8285 88.8621C59.7296 89.2929 59.6726 89.7306 59.658 90.1702C59.641 90.5948 59.6718 91.0199 59.7499 91.4388C59.8252 91.8369 59.9452 92.2007 60.0866 92.5069C60.1523 92.648 60.2255 92.7861 60.3062 92.9207C60.3813 93.0423 60.4533 93.1474 60.5199 93.233C60.6505 93.4044 60.7536 93.498 60.7536 93.498C60.9145 93.643 61.1007 93.7632 61.3048 93.8537C62.3133 94.297 63.5286 93.9176 64.0192 93.0062C64.0192 93.0062 64.0831 92.8874 64.1452 92.6871C64.1776 92.5868 64.2078 92.4661 64.2353 92.3291C64.2634 92.1782 64.2833 92.0261 64.2947 91.8734C64.3187 91.5423 64.3015 91.1629 64.2299 90.7644C64.1535 90.3452 64.0302 89.9341 63.8618 89.5374C63.6917 89.1264 63.4748 88.7224 63.2311 88.3499C63.1101 88.1679 62.9811 87.9905 62.8443 87.8179C62.604 87.5141 62.3371 87.2281 62.0463 86.9627C61.9236 86.848 61.7969 86.7511 61.699 86.6705C61.6042 86.5893 61.5073 86.5288 61.4518 86.4859C61.3919 86.4438 61.3559 86.4219 61.3559 86.4219C61.2862 86.3798 61.2014 86.3634 61.1188 86.3758C61.0361 86.3883 60.9618 86.4287 60.911 86.4889ZM74.0267 63.041C73.9519 63.0129 73.8678 63.0128 73.793 63.0408C73.7181 63.0687 73.6586 63.1223 73.6275 63.1899C73.6275 63.1899 73.6094 63.229 73.5831 63.2999C73.56 63.3697 73.5157 63.4757 73.4785 63.604C73.3755 63.945 73.2989 64.2922 73.2493 64.6428C73.2173 64.864 73.1948 65.0862 73.1819 65.309C73.1674 65.5499 73.1627 65.7912 73.1678 66.0324C73.1817 66.538 73.2384 67.0419 73.3374 67.5396C73.4311 68.025 73.5716 68.502 73.7575 68.9652C73.9353 69.4061 74.1488 69.8018 74.3684 70.1292C74.4795 70.2924 74.5884 70.4397 74.6937 70.5675C74.7999 70.6951 74.8984 70.8042 74.9867 70.8919C75.1607 71.0678 75.2873 71.1597 75.2873 71.1597C75.5277 71.3327 75.8095 71.4523 76.1102 71.5092C77.1598 71.7043 78.1859 71.0935 78.4019 70.1451C78.4019 70.1451 78.4345 70.0014 78.4442 69.7655C78.4504 69.6472 78.449 69.5063 78.4407 69.3469C78.4316 69.1878 78.4112 69.0115 78.3815 68.8218C78.3194 68.4432 78.2042 68.0152 78.0299 67.5732C77.8563 67.1311 77.6246 66.6748 77.3465 66.2334C77.0714 65.793 76.7592 65.3724 76.4128 64.9752C76.2464 64.7864 76.0723 64.6033 75.891 64.4262C75.7237 64.2622 75.5494 64.1041 75.3687 63.9523C75.0829 63.7109 74.7788 63.4879 74.4587 63.2848C74.3395 63.2073 74.2305 63.1514 74.1633 63.111C74.0929 63.0715 74.0514 63.0519 74.0514 63.0519C74.0435 63.0477 74.0352 63.0441 74.0267 63.041ZM48.5925 83.489C48.5925 83.489 48.5588 83.5139 48.5037 83.5611C48.453 83.6084 48.363 83.677 48.2771 83.7662C48.1883 83.8549 48.0723 83.9624 47.9624 84.0871C47.7011 84.3765 47.4657 84.6843 47.2585 85.0075C47.1439 85.1858 47.0331 85.3744 46.9297 85.5703C46.7229 85.9686 46.555 86.3823 46.4279 86.807C46.3022 87.2164 46.223 87.6363 46.1915 88.0603C46.1626 88.4632 46.1857 88.8424 46.2446 89.1699C46.2722 89.3209 46.308 89.4707 46.352 89.6185C46.3939 89.7527 46.4367 89.87 46.4796 89.9672C46.5627 90.1612 46.6389 90.274 46.6389 90.274C46.7537 90.4422 46.905 90.6033 47.0836 90.7356C47.9507 91.3784 49.2303 91.2642 49.9417 90.4808C49.9417 90.4808 50.0345 90.3787 50.1463 90.1969C50.2034 90.106 50.264 89.9952 50.3259 89.8676C50.392 89.7267 50.4503 89.5829 50.5007 89.4367C50.6091 89.1198 50.6899 88.747 50.7226 88.3444C50.7561 87.9207 50.7417 87.4949 50.6797 87.0738C50.6186 86.6374 50.5154 86.2066 50.3714 85.7865C50.3005 85.5841 50.2206 85.3844 50.1319 85.188C49.976 84.842 49.7899 84.5078 49.5753 84.1886C49.4853 84.0515 49.3869 83.9306 49.3125 83.8316C49.2412 83.7326 49.1624 83.6536 49.1193 83.6002C49.0718 83.5467 49.0424 83.5178 49.0424 83.5178C48.9857 83.462 48.9074 83.428 48.8238 83.4226C48.7402 83.4173 48.6574 83.4411 48.5925 83.489ZM29.8184 97.6505C29.8037 97.6238 29.7834 97.6 29.7585 97.5804C29.7336 97.5609 29.7047 97.5459 29.6735 97.5365C29.6422 97.527 29.6092 97.5232 29.5763 97.5253C29.5434 97.5273 29.5113 97.5352 29.4818 97.5485L29.3965 97.5869C29.3461 97.6137 29.2606 97.6492 29.1736 97.7014C29.0842 97.7527 28.9696 97.8132 28.8553 97.8881C28.5856 98.0608 28.3317 98.2527 28.0958 98.4619C27.966 98.5775 27.8343 98.701 27.7118 98.8331C27.4567 99.099 27.229 99.3854 27.0314 99.6887C26.6297 100.291 26.3931 100.946 26.3332 101.474C26.3188 101.596 26.3111 101.718 26.3102 101.84C26.31 101.938 26.3154 102.036 26.3262 102.134C26.3469 102.3 26.3767 102.401 26.3767 102.401C26.4439 102.628 26.5716 102.838 26.7487 103.011C26.9257 103.184 27.1468 103.315 27.3927 103.393C27.6386 103.472 27.9019 103.495 28.1598 103.46C28.4178 103.426 28.6625 103.335 28.8729 103.196C28.8729 103.196 28.966 103.134 29.0976 103.016C29.1631 102.957 29.2358 102.884 29.3136 102.797C29.3906 102.711 29.4697 102.61 29.5499 102.499C29.8699 102.053 30.1401 101.409 30.245 100.712C30.3017 100.364 30.3231 100.012 30.3089 99.6604C30.3051 99.4881 30.2883 99.3173 30.2674 99.1537C30.2465 98.9901 30.2173 98.8326 30.1845 98.6851C30.1512 98.5377 30.1136 98.4001 30.0742 98.2763C30.0373 98.1533 29.9899 98.0412 29.9559 97.9506C29.9243 97.8607 29.8822 97.7846 29.8616 97.7352L29.8217 97.6569L29.8184 97.6505ZM70.6059 49.1524C70.6059 49.1524 70.6153 49.1907 70.6368 49.2565C70.6606 49.3188 70.6874 49.4224 70.7366 49.5319C70.7841 49.6437 70.8377 49.7856 70.9108 49.9307C70.9824 50.0783 71.0677 50.2377 71.1661 50.4036C71.2697 50.578 71.3813 50.7484 71.5006 50.9143C71.6247 51.0874 71.7608 51.2619 71.9073 51.4338C72.2023 51.7749 72.5392 52.1048 72.9006 52.3979C73.2603 52.6934 73.6454 52.9507 74.0304 53.1556C74.4149 53.3613 74.7994 53.5142 75.1492 53.615C75.3107 53.6611 75.4747 53.7 75.6404 53.7315C75.7917 53.7584 75.9269 53.777 76.0421 53.7866C76.2713 53.8074 76.417 53.797 76.417 53.797C76.635 53.7806 76.8622 53.7316 77.0739 53.6476C78.1008 53.2398 78.5673 52.1571 78.1158 51.2292C78.1158 51.2292 78.057 51.1083 77.9282 50.9358C77.8525 50.8341 77.7711 50.7361 77.6844 50.6419C77.5753 50.5249 77.4598 50.4129 77.3384 50.3061C77.0745 50.0754 76.7434 49.8416 76.3611 49.6329C75.979 49.4235 75.5459 49.2389 75.0877 49.0923C74.6293 48.9441 74.1575 48.8323 73.6777 48.7581C73.4459 48.7236 73.2127 48.6977 72.9786 48.6803C72.7604 48.6639 72.5415 48.6557 72.3225 48.6558C72.1282 48.6558 71.9341 48.6627 71.7404 48.6765C71.5643 48.6868 71.4008 48.7115 71.2691 48.7266C71.1391 48.7394 71.0256 48.767 70.9534 48.7775C70.9145 48.7846 70.8758 48.7928 70.8374 48.8022C70.7569 48.8231 70.6881 48.8709 70.6451 48.936C70.6021 49.001 70.5881 49.0784 70.6059 49.1524ZM38.5255 80.6056C38.5255 80.6056 38.4865 80.6229 38.421 80.6574C38.3596 80.6932 38.2547 80.7414 38.1487 80.8105C38.0397 80.8787 37.8998 80.9595 37.7613 81.0582C37.4338 81.2862 37.127 81.5375 36.8439 81.8097C36.6828 81.9641 36.5288 82.1244 36.382 82.2901C36.0803 82.6354 35.8125 83.0038 35.5817 83.3911C35.3496 83.7771 35.1645 84.1761 35.0356 84.5628C34.9059 84.9492 34.833 85.3232 34.8077 85.6541C34.7965 85.8068 34.7936 85.96 34.7992 86.113C34.8062 86.2522 34.8185 86.3754 34.8355 86.4787C34.8674 86.6847 34.9133 86.8101 34.9133 86.8101C34.9854 87.0049 35.0924 87.1877 35.23 87.3512C35.9124 88.1555 37.1872 88.3077 38.0773 87.6911C38.0773 87.6911 38.1933 87.6107 38.348 87.4567C38.4393 87.3661 38.5253 87.2713 38.6059 87.1728C38.7057 87.0491 38.7988 86.9211 38.8847 86.7892C39.0701 86.5028 39.2427 86.1566 39.3762 85.7713C39.5104 85.3861 39.606 84.9622 39.6546 84.525C39.7051 84.0875 39.7132 83.6469 39.6787 83.2081C39.6608 82.9965 39.6333 82.7857 39.5963 82.5761C39.5611 82.3727 39.5159 82.1772 39.4666 81.9944C39.4168 81.8116 39.3621 81.6414 39.3061 81.4886C39.2532 81.3364 39.1878 81.1986 39.1403 81.0867C39.0958 80.9758 39.039 80.8825 39.0105 80.8218C38.9778 80.7599 38.9564 80.7258 38.9564 80.7258C38.915 80.66 38.8474 80.6109 38.7673 80.5886C38.6873 80.5662 38.6008 80.5723 38.5255 80.6056ZM44.1066 101.05C44.0914 100.992 44.051 100.941 43.9945 100.909C43.9379 100.878 43.8697 100.868 43.8048 100.881L43.712 100.901C43.6563 100.917 43.5639 100.933 43.466 100.966C43.366 100.998 43.2389 101.033 43.1089 101.082C42.9649 101.134 42.8232 101.192 42.6841 101.254C42.5272 101.325 42.3737 101.401 42.224 101.483C42.0682 101.568 41.9088 101.661 41.7561 101.764C41.4402 101.97 41.1459 102.202 40.8767 102.456C40.3327 102.959 39.9363 103.547 39.7437 104.049C39.6957 104.175 39.6567 104.293 39.6283 104.401C39.6006 104.509 39.5807 104.607 39.5694 104.689C39.5472 104.856 39.5507 104.96 39.5507 104.96C39.5571 105.139 39.5998 105.316 39.6767 105.482C39.8425 105.836 40.1571 106.116 40.5512 106.26C40.9453 106.404 41.3867 106.401 41.7783 106.251C41.7783 106.251 41.8846 106.211 42.0425 106.123C42.1343 106.071 42.223 106.015 42.3084 105.955C42.4147 105.879 42.5167 105.798 42.6142 105.713C43.0389 105.346 43.4653 104.775 43.7443 104.119C43.8879 103.791 43.9982 103.453 44.0737 103.108C44.1118 102.942 44.1412 102.775 44.1618 102.606C44.1818 102.449 44.1946 102.291 44.2 102.133C44.205 101.983 44.2034 101.841 44.1963 101.712C44.1916 101.585 44.174 101.466 44.1639 101.371C44.1559 101.277 44.1344 101.194 44.1267 101.141L44.1079 101.057C44.1077 101.055 44.1073 101.052 44.1066 101.05Z" stroke="black" stroke-width="2" mask="url(#path-4-inside-1_1_371)"/>
<path d="M51.0807 33.2558C49.6397 33.605 46.1094 35.0033 43.5154 37.8028" stroke="#372F2F" stroke-width="2"/>
<path d="M62.3027 43.8612C62.3811 42.3807 62.0531 38.5978 60.1144 35.3103" stroke="#372F2F" stroke-width="2"/>
<path d="M107.785 33.5523C108.075 41.3766 106.752 58.3595 99.1387 63.6967" stroke="#372F2F" stroke-width="2"/>
<path d="M107.846 33.9854C107.083 32.4911 104.772 30.3724 101.006 31.8442C99.5086 32.4293 98.9045 34.1318 99.1786 35.7161C100.39 42.7196 101.363 53.6616 98.4867 58.1844C97.9943 58.9588 97.4765 59.763 97.4468 60.6803C97.3762 62.8537 98.0166 65.0412 100.97 62.5558" stroke="#372F2F" stroke-width="2"/>
<path d="M65.9323 58.6519C61.8355 60.4502 52.9571 68.3631 50.2172 85.6278C48.2714 93.3659 44.7113 110.931 46.0372 119.287C46.2626 122.768 47.4892 130.653 50.5923 134.354C52.9179 137.768 59.2771 144.385 66.1094 143.545C70.9693 143.356 83.7491 140.52 95.9901 130.686C101.398 126.795 113.435 117.107 118.321 109.483C122.406 104.372 130.119 92.3338 128.297 85.0655C128.043 82.2329 126.84 76.0226 124.064 73.8431M65.9323 58.6519C68.4911 59.8174 76.7436 61.2461 80.55 61.8147C86.1527 62.3471 82.7341 63.6187 80.3245 64.1879C73.421 64.9509 66.9957 69.8391 64.646 72.1878C63.1294 74.1013 64.7513 74.1785 65.7518 73.978L71.8743 73.5842C80.5208 73.4835 89.8177 71.3574 93.3854 70.307C94.6729 69.1522 95.767 71.0654 96.1531 72.1664C97.0868 72.2551 97.9064 79.1917 98.1995 82.6489C97.8701 84.4623 99.1312 83.8608 99.8029 83.3334C106.122 77.974 107.586 73.7259 107.528 72.2718C106.204 68.0307 107.255 67.5748 107.946 67.877L124.064 73.8431M65.9323 58.6519C64.1741 58.2187 62.0474 56.775 67.6061 54.4651C70.138 53.6414 76.5108 52.4732 81.7463 54.3898C83.7713 55.1144 87.4127 55.9039 85.779 53.2653C84.6269 51.6185 82.3377 48.1668 82.3978 47.5339C81.9347 46.8987 81.5449 45.7678 83.6903 46.3264C87.4615 46.9213 95.7762 49.6921 98.8655 56.0166C99.1255 57.756 100.463 60.4788 103.734 57.4549C107.558 55.7783 116.273 52.9526 120.548 55.0616C122.42 55.6829 124.989 57.0801 120.298 57.6985C118.518 58.1798 114.637 59.431 113.35 60.5858C111.763 61.4402 109.717 63.0787 114.219 62.797C118.517 63.3533 127.876 66.7732 130.925 76.0029L124.064 73.8431" stroke="#372F2F" stroke-width="2"/>
<mask id="path-10-inside-2_1_371" fill="white">
<path d="M61.7348 77.4613C61.7348 77.4613 61.7373 77.5023 61.736 77.5746C61.7314 77.6443 61.7363 77.7558 61.7211 77.8803C61.708 78.0067 61.6983 78.1651 61.6696 78.3328C61.6406 78.5182 61.604 78.7024 61.5598 78.8851C61.5097 79.0924 61.4505 79.2977 61.3822 79.5004C61.3089 79.7191 61.2264 79.935 61.1349 80.1477C60.9408 80.5907 60.7073 81.018 60.4366 81.4256C60.1762 81.823 59.8751 82.1969 59.5373 82.5426C59.2152 82.8709 58.8765 83.1467 58.5565 83.3596C58.409 83.4573 58.2566 83.5487 58.0996 83.6335C57.9561 83.7091 57.8261 83.7712 57.7134 83.8176C57.49 83.9123 57.3405 83.9488 57.3405 83.9488C56.2952 84.2047 55.2022 83.6408 54.8995 82.6892C54.8234 82.4463 54.8034 82.1927 54.8408 81.9444C54.8408 81.9444 54.8625 81.8052 54.9383 81.5924C54.9753 81.4852 55.027 81.3606 55.092 81.2221C55.1655 81.0703 55.2467 80.9217 55.3353 80.7768C55.5285 80.4625 55.7885 80.1235 56.108 79.7929C56.4265 79.4618 56.8041 79.1388 57.2185 78.8455C57.6311 78.5515 58.0697 78.2886 58.5302 78.0591C58.7516 77.9505 58.9775 77.8496 59.2077 77.7566C59.4209 77.6701 59.6381 77.5915 59.8586 77.5209C60.0678 77.454 60.2666 77.3984 60.449 77.3539C60.6289 77.3074 60.8009 77.2792 60.9375 77.2518C61.0718 77.2225 61.1946 77.2134 61.27 77.2007C61.3489 77.1907 61.3941 77.1878 61.3941 77.1878C61.4768 77.1826 61.5591 77.2074 61.6229 77.2568C61.6866 77.3063 61.7265 77.3762 61.7338 77.4512L61.7348 77.4613ZM100.779 83.8742C100.779 83.8742 100.763 83.9089 100.74 83.9712C100.72 84.0318 100.678 84.1266 100.649 84.2363C100.618 84.3471 100.573 84.4847 100.542 84.6337C100.465 84.9805 100.42 85.3331 100.408 85.6878C100.401 85.8827 100.403 86.0843 100.414 86.2885C100.441 86.7009 100.51 87.1108 100.619 87.5132C100.727 87.9141 100.879 88.2962 101.064 88.6367C101.247 88.9776 101.464 89.2766 101.685 89.518C101.796 89.6382 101.905 89.7454 102.01 89.8372C102.116 89.9285 102.214 90.0055 102.302 90.0661C102.474 90.1884 102.599 90.2474 102.599 90.2474C102.765 90.325 102.941 90.3831 103.123 90.4203C104.249 90.6454 105.346 90.0047 105.573 88.9892C105.573 88.9892 105.601 88.8659 105.604 88.6693C105.606 88.5706 105.601 88.4541 105.589 88.3232C105.576 88.1929 105.551 88.0496 105.517 87.8965C105.447 87.5914 105.324 87.2528 105.144 86.9105C104.965 86.5678 104.729 86.2213 104.448 85.8934C104.168 85.5632 103.855 85.2566 103.514 84.9775C103.347 84.843 103.174 84.7148 102.996 84.5933C102.829 84.4792 102.656 84.3717 102.479 84.2713C102.321 84.1814 102.159 84.0974 101.994 84.0193C101.845 83.9463 101.697 83.8903 101.581 83.8418C101.468 83.7921 101.359 83.7616 101.294 83.7368C101.225 83.7137 101.184 83.7028 101.184 83.7028C101.104 83.6816 101.019 83.6873 100.945 83.7188C100.87 83.7503 100.811 83.8056 100.779 83.8742ZM86.8641 90.9099C86.8641 90.9099 86.8223 90.9114 86.7497 90.9187C86.6808 90.9285 86.5672 90.9339 86.4457 90.9572C86.3217 90.9789 86.1647 91.0004 86.0027 91.0385C85.6237 91.1225 85.2537 91.2352 84.8967 91.3754C84.6951 91.454 84.4975 91.5405 84.3045 91.6346C83.9081 91.8306 83.5333 92.0598 83.185 92.3192C82.8373 92.5763 82.5282 92.8614 82.2754 93.1553C82.0219 93.4486 81.825 93.7511 81.687 94.0326C81.6236 94.1629 81.5679 94.2962 81.5201 94.4321C81.4782 94.5566 81.4468 94.669 81.4268 94.7656C81.3848 94.9575 81.3836 95.0836 81.3836 95.0836C81.383 95.2442 81.4046 95.4172 81.4519 95.5808C81.7443 96.5921 82.8824 97.2131 83.9942 96.9677C83.9942 96.9677 84.1289 96.9379 84.325 96.8573C84.4401 96.81 84.5523 96.7572 84.661 96.699C84.7956 96.6258 84.9258 96.5462 85.0509 96.4604C85.321 96.2744 85.6002 96.0312 85.8567 95.7401C86.1141 95.4494 86.3492 95.111 86.5456 94.7447C86.7443 94.3773 86.9047 93.9935 87.0246 93.598C87.0814 93.4056 87.1291 93.2109 87.1677 93.0145C87.2367 92.6665 87.2734 92.3132 87.2774 91.9585C87.2813 91.8064 87.2689 91.6626 87.2639 91.5479C87.2613 91.4349 87.2414 91.333 87.2361 91.2698C87.2275 91.2041 87.2196 91.1665 87.2196 91.1665C87.204 91.0926 87.1593 91.0258 87.0939 90.9786C87.0285 90.9314 86.9469 90.907 86.8641 90.9099ZM59.0811 110.7C59.0811 110.7 59.0392 110.702 58.9666 110.709C58.8977 110.719 58.7841 110.724 58.6626 110.748C58.5386 110.769 58.3816 110.791 58.2196 110.829C57.8406 110.913 57.4707 111.025 57.1136 111.166C56.912 111.244 56.7145 111.331 56.5214 111.425C56.125 111.621 55.7502 111.85 55.4019 112.11C55.0542 112.367 54.7451 112.652 54.4924 112.946C54.2388 113.239 54.0419 113.541 53.9039 113.823C53.8406 113.953 53.7849 114.086 53.7371 114.222C53.6951 114.347 53.6638 114.459 53.6437 114.556C53.6017 114.748 53.6005 114.874 53.6005 114.874C53.6 115.034 53.6215 115.207 53.6688 115.371C53.9613 116.382 55.0994 117.003 56.2111 116.758C56.2111 116.758 56.3458 116.728 56.5419 116.648C56.6571 116.6 56.7692 116.547 56.8779 116.489C57.0125 116.416 57.1427 116.336 57.2678 116.251C57.5379 116.065 57.8172 115.821 58.0736 115.53C58.331 115.24 58.5661 114.901 58.7625 114.535C58.9612 114.168 59.1216 113.784 59.2415 113.388C59.2983 113.196 59.346 113.001 59.3846 112.805C59.4536 112.457 59.4903 112.103 59.4943 111.749C59.4982 111.597 59.4858 111.453 59.4808 111.338C59.4782 111.225 59.4583 111.123 59.4531 111.06C59.4445 110.994 59.4365 110.957 59.4365 110.957C59.421 110.883 59.3763 110.816 59.3109 110.769C59.2455 110.722 59.1638 110.697 59.0811 110.7ZM63.7426 93.4901C63.7426 93.4901 63.7033 93.5005 63.637 93.523C63.5745 93.547 63.4687 93.5764 63.3606 93.6246C63.2496 93.6716 63.1074 93.7256 62.9655 93.7961C62.6331 93.9557 62.3168 94.141 62.0201 94.3498C61.8532 94.4659 61.6931 94.5897 61.5405 94.7209C61.38 94.852 61.2324 94.9946 61.0889 95.142C60.9462 95.2889 60.812 95.4424 60.6868 95.602C60.4361 95.9175 60.2307 96.251 60.0811 96.5805C59.9308 96.9097 59.8372 97.2354 59.7924 97.5285C59.7537 97.7738 59.7465 98.023 59.7711 98.2709C59.779 98.3646 59.7992 98.4437 59.8073 98.4955C59.8178 98.5482 59.8277 98.578 59.8277 98.578C59.8678 98.6944 59.919 98.8075 59.9807 98.9162C60.5338 99.8757 61.8329 100.262 62.8822 99.7799C62.8822 99.7799 62.9126 99.766 62.9609 99.7365C63.0071 99.7061 63.083 99.6649 63.1619 99.6052C63.3731 99.45 63.5633 99.2729 63.7286 99.0773C63.9272 98.8448 64.1176 98.5572 64.2714 98.2294C64.4259 97.9018 64.5451 97.5345 64.6186 97.1492C64.6569 96.9556 64.6844 96.76 64.7008 96.5635C64.7168 96.3659 64.7264 96.169 64.7181 95.9716C64.7153 95.7792 64.7016 95.5869 64.6769 95.3955C64.6351 95.0536 64.5614 94.715 64.4566 94.3832C64.4135 94.24 64.3575 94.108 64.3175 94.0016C64.2803 93.8963 64.2301 93.8054 64.2058 93.7473C64.1775 93.6876 64.1584 93.6542 64.1584 93.6542C64.1204 93.5874 64.058 93.5343 63.982 93.5043C63.906 93.4743 63.8212 93.4693 63.7426 93.4901ZM81.3853 77.5056C81.3986 77.4303 81.3783 77.3528 81.3288 77.29C81.2793 77.2273 81.2046 77.1844 81.1212 77.1709C81.1212 77.1709 81.077 77.1637 80.9989 77.1562C80.9235 77.1519 80.8034 77.1339 80.6677 77.1325C80.53 77.1288 80.3583 77.1184 80.1748 77.1233C79.9723 77.1265 79.7701 77.1367 79.5688 77.1539C79.3407 77.1732 79.1138 77.201 78.8886 77.237C78.6462 77.2756 78.4058 77.3227 78.1678 77.3782C77.6728 77.4966 77.1904 77.6522 76.7254 77.8434C76.2734 78.0262 75.8425 78.2482 75.4389 78.5062C75.0554 78.7523 74.7271 79.0196 74.4687 79.2777C74.3401 79.4077 74.2269 79.5326 74.1317 79.6501C74.0372 79.7682 73.9585 79.8761 73.8982 79.9704C73.776 80.1572 73.7229 80.2854 73.7229 80.2854C73.6332 80.5054 73.5914 80.7396 73.5997 80.9755C73.6394 81.9703 74.5618 82.763 75.66 82.7461C75.66 82.7461 75.8121 82.7438 76.0487 82.7021C76.1677 82.6822 76.3069 82.6514 76.4624 82.6105C76.6172 82.5689 76.7857 82.5142 76.9649 82.4484C77.3215 82.3148 77.711 82.1253 78.0965 81.8818C78.5013 81.6252 78.8773 81.3335 79.2193 81.0109C79.5742 80.68 79.8977 80.3225 80.1865 79.9422C80.3238 79.7588 80.4532 79.5705 80.5741 79.3777C80.6868 79.1987 80.7913 79.0155 80.8873 78.8286C80.9722 78.6635 81.0501 78.4954 81.1208 78.3248C81.1872 78.1708 81.2332 78.0216 81.2752 77.9036C81.3188 77.7881 81.3399 77.6803 81.3604 77.6147C81.3782 77.5458 81.3855 77.5061 81.3855 77.5061L81.3853 77.5056ZM95.4448 101.115C95.4448 101.115 95.4283 101.151 95.4042 101.216C95.3841 101.279 95.3405 101.377 95.3113 101.492C95.2792 101.608 95.233 101.751 95.201 101.907C95.1632 102.079 95.1329 102.252 95.11 102.426C95.0841 102.622 95.0673 102.82 95.0598 103.017C95.0515 103.23 95.0526 103.442 95.0633 103.654C95.0884 104.094 95.1558 104.532 95.2648 104.963C95.3673 105.38 95.516 105.787 95.7089 106.178C95.893 106.55 96.1109 106.878 96.3334 107.146C96.4458 107.279 96.5557 107.399 96.6615 107.502C96.7684 107.605 96.8671 107.692 96.9555 107.761C97.1296 107.9 97.2556 107.969 97.2556 107.969C97.4518 108.076 97.6655 108.153 97.888 108.198C98.987 108.415 100.056 107.788 100.275 106.797C100.275 106.797 100.303 106.668 100.307 106.46C100.31 106.355 100.306 106.231 100.294 106.092C100.281 105.953 100.257 105.8 100.224 105.636C100.154 105.309 100.031 104.943 99.8505 104.571C99.6707 104.198 99.4333 103.818 99.1511 103.455C98.87 103.091 98.5548 102.749 98.209 102.433C98.0411 102.282 97.8667 102.137 97.6862 101.998C97.518 101.868 97.344 101.745 97.1646 101.628C97.0057 101.525 96.8424 101.427 96.6753 101.335C96.5246 101.25 96.3751 101.182 96.2578 101.124C96.1433 101.065 96.0329 101.027 95.9672 100.997C95.8976 100.969 95.8565 100.955 95.8565 100.955C95.7773 100.929 95.6906 100.931 95.6142 100.961C95.5378 100.991 95.4772 101.046 95.4448 101.115ZM97.294 116.612C97.294 116.612 97.2649 116.64 97.218 116.694C97.1756 116.747 97.0978 116.825 97.0276 116.924C96.9543 117.022 96.8574 117.142 96.7692 117.279C96.5584 117.597 96.3762 117.93 96.2244 118.275C96.138 118.471 96.0604 118.67 95.9918 118.872C95.8526 119.292 95.7545 119.722 95.6983 120.158C95.6413 120.579 95.6317 121.005 95.6698 121.43C95.7071 121.833 95.7921 122.207 95.904 122.525C95.956 122.672 96.0158 122.816 96.0834 122.958C96.1467 123.086 96.2084 123.197 96.2666 123.289C96.3805 123.472 96.4742 123.575 96.4742 123.575C96.6207 123.734 96.7947 123.872 96.9893 123.981C97.9513 124.518 99.1971 124.255 99.7716 123.394C99.7716 123.394 99.8466 123.282 99.9273 123.088C99.969 122.991 100.011 122.874 100.051 122.74C100.093 122.593 100.127 122.443 100.153 122.292C100.208 121.965 100.227 121.586 100.194 121.182C100.157 120.758 100.073 120.337 99.9432 119.926C99.8127 119.501 99.635 119.078 99.4276 118.684C99.3244 118.491 99.2127 118.303 99.0929 118.118C98.8824 117.793 98.6437 117.483 98.3793 117.191C98.2681 117.065 98.1511 116.957 98.0613 116.867C97.9746 116.777 97.8839 116.708 97.8327 116.66C97.777 116.613 97.7432 116.587 97.7432 116.587C97.6778 116.539 97.595 116.514 97.5115 116.519C97.4281 116.524 97.3503 116.557 97.294 116.612ZM112.569 94.5099C112.497 94.4749 112.414 94.4668 112.336 94.4876C112.259 94.5083 112.195 94.5561 112.158 94.6204C112.158 94.6204 112.136 94.6576 112.103 94.7257C112.073 94.793 112.019 94.8943 111.97 95.0185C111.835 95.3483 111.726 95.6866 111.644 96.031C111.591 96.2482 111.547 96.4673 111.513 96.6878C111.476 96.9262 111.449 97.166 111.431 97.4066C111.397 97.9113 111.406 98.4183 111.457 98.9231C111.505 99.4152 111.599 99.9034 111.741 100.382C111.876 100.838 112.051 101.252 112.239 101.599C112.334 101.772 112.428 101.929 112.521 102.066C112.615 102.203 112.702 102.321 112.782 102.416C112.939 102.608 113.056 102.711 113.056 102.711C113.279 102.906 113.548 103.052 113.842 103.137C114.869 103.431 115.948 102.92 116.253 101.996C116.253 101.996 116.299 101.856 116.331 101.622C116.348 101.505 116.36 101.365 116.367 101.205C116.373 101.046 116.369 100.868 116.357 100.677C116.331 100.294 116.257 99.857 116.125 99.4005C115.995 98.9439 115.807 98.4678 115.572 98.0021C115.34 97.5376 115.069 97.0893 114.762 96.6611C114.614 96.4575 114.458 96.2588 114.294 96.0653C114.143 95.8862 113.984 95.7123 113.819 95.5441C113.557 95.2767 113.276 95.0259 112.976 94.7935C112.865 94.7051 112.762 94.6391 112.698 94.5925C112.632 94.5465 112.593 94.5231 112.593 94.5231C112.585 94.5182 112.577 94.5138 112.569 94.5099ZM85.3145 112.46C85.3145 112.46 85.2786 112.482 85.2193 112.523C85.1643 112.566 85.0682 112.626 84.9743 112.706C84.8775 112.786 84.7518 112.882 84.6307 112.996C84.3431 113.259 84.0797 113.543 83.8428 113.846C83.7119 114.012 83.5837 114.19 83.4623 114.375C83.2187 114.752 83.0124 115.148 82.8457 115.558C82.6819 115.954 82.5633 116.365 82.4919 116.784C82.4249 117.182 82.412 117.562 82.4397 117.893C82.4529 118.046 82.4744 118.199 82.5042 118.35C82.5332 118.488 82.5647 118.609 82.5983 118.709C82.6626 118.91 82.7278 119.03 82.7278 119.03C82.8262 119.208 82.9616 119.383 83.1268 119.531C83.9293 120.253 85.2139 120.261 85.9962 119.548C85.9962 119.548 86.0982 119.455 86.2267 119.285C86.2922 119.2 86.363 119.095 86.4367 118.974C86.5158 118.84 86.5875 118.702 86.6515 118.562C86.7894 118.256 86.9051 117.893 86.9758 117.495C87.0491 117.077 87.0751 116.651 87.0533 116.226C87.0336 115.786 86.9717 115.347 86.8681 114.916C86.8167 114.707 86.756 114.501 86.6862 114.297C86.5638 113.938 86.4102 113.588 86.2267 113.25C86.1501 113.105 86.0636 112.975 85.9989 112.869C85.9372 112.764 85.8663 112.678 85.8284 112.621C85.7862 112.563 85.7597 112.531 85.7597 112.531C85.7085 112.47 85.6338 112.429 85.551 112.416C85.4683 112.403 85.3837 112.419 85.3145 112.46ZM65.2849 124.782C65.2728 124.754 65.2548 124.728 65.2319 124.707C65.209 124.685 65.1816 124.667 65.1514 124.655C65.1212 124.642 65.0887 124.635 65.0557 124.634C65.0228 124.633 64.9901 124.638 64.9594 124.649L64.8709 124.679C64.8182 124.701 64.7298 124.728 64.6382 124.772C64.5443 124.814 64.4245 124.864 64.3037 124.927C64.0189 125.074 63.7479 125.241 63.4933 125.427C63.3531 125.53 63.2104 125.64 63.0758 125.76C62.7968 126.001 62.543 126.264 62.3176 126.547C61.8607 127.109 61.5633 127.738 61.4536 128.259C61.4278 128.379 61.4086 128.5 61.396 128.621C61.3866 128.719 61.3827 128.817 61.3843 128.915C61.3892 129.082 61.4092 129.185 61.4092 129.185C61.4547 129.418 61.562 129.639 61.7219 129.828C61.8817 130.017 62.0894 130.168 62.3268 130.27C62.5641 130.371 62.8241 130.419 63.0842 130.409C63.3442 130.399 63.5964 130.332 63.819 130.213C63.819 130.213 63.9176 130.161 64.0597 130.056C64.1305 130.003 64.2098 129.937 64.2954 129.858C64.3804 129.779 64.4686 129.687 64.5589 129.583C64.9197 129.17 65.2496 128.554 65.4199 127.871C65.5093 127.529 65.5639 127.181 65.5831 126.829C65.5956 126.657 65.595 126.486 65.5897 126.321C65.5844 126.156 65.5702 125.997 65.5515 125.847C65.5322 125.697 65.5079 125.556 65.4804 125.429C65.4553 125.303 65.4187 125.187 65.3934 125.094C65.3704 125.001 65.3357 124.922 65.3199 124.87L65.2876 124.789L65.2849 124.782ZM110.477 80.36C110.477 80.36 110.483 80.399 110.498 80.4665C110.516 80.5308 110.533 80.6365 110.572 80.7501C110.608 80.866 110.648 81.0123 110.707 81.1636C110.765 81.3174 110.835 81.4841 110.917 81.6586C111.003 81.842 111.098 82.0221 111.202 82.1986C111.309 82.3826 111.428 82.5693 111.557 82.7543C111.819 83.1218 112.123 83.482 112.455 83.8081C112.785 84.1362 113.144 84.4288 113.508 84.6692C113.871 84.9104 114.24 85.0989 114.578 85.2324C114.735 85.2936 114.894 85.3478 115.056 85.3948C115.204 85.4359 115.337 85.4672 115.451 85.4877C115.677 85.5301 115.823 85.5335 115.823 85.5335C116.042 85.5378 116.273 85.5105 116.491 85.4469C117.552 85.1381 118.119 84.1043 117.757 83.138C117.757 83.138 117.71 83.012 117.598 82.8281C117.532 82.7197 117.461 82.6144 117.383 82.5125C117.286 82.3857 117.181 82.2632 117.071 82.1455C116.83 81.8908 116.522 81.6267 116.161 81.3828C115.801 81.1382 115.387 80.9134 114.945 80.7242C114.503 80.5332 114.043 80.3773 113.573 80.2581C113.345 80.2018 113.116 80.1539 112.884 80.1145C112.669 80.0775 112.451 80.0486 112.233 80.028C112.04 80.0096 111.846 79.9981 111.652 79.9936C111.476 79.9872 111.31 79.9963 111.178 79.9989C111.047 79.9992 110.932 80.0161 110.859 80.0196C110.819 80.023 110.78 80.0275 110.741 80.0332C110.659 80.0464 110.586 80.0875 110.537 80.1482C110.488 80.2089 110.467 80.2846 110.477 80.36ZM75.5655 108.637C75.5655 108.637 75.525 108.651 75.4565 108.679C75.392 108.709 75.283 108.747 75.171 108.806C75.056 108.863 74.9091 108.93 74.7618 109.016C74.4142 109.212 74.0851 109.433 73.7774 109.677C73.6025 109.815 73.434 109.96 73.2722 110.111C72.9392 110.427 72.6378 110.768 72.3713 111.132C72.1038 111.494 71.8817 111.874 71.7169 112.247C71.5511 112.619 71.4431 112.984 71.3867 113.311C71.3611 113.462 71.3438 113.615 71.3348 113.767C71.3287 113.907 71.3292 114.03 71.3364 114.135C71.3486 114.343 71.3825 114.472 71.3825 114.472C71.4358 114.673 71.525 114.865 71.6466 115.041C72.2498 115.906 73.5045 116.178 74.4489 115.649C74.4489 115.649 74.572 115.58 74.7406 115.441C74.84 115.359 74.9347 115.273 75.0242 115.183C75.1353 115.069 75.24 114.95 75.3381 114.827C75.5497 114.56 75.7543 114.231 75.9236 113.86C76.0937 113.49 76.2289 113.077 76.3187 112.646C76.4103 112.215 76.46 111.777 76.4673 111.337C76.4694 111.125 76.462 110.912 76.445 110.7C76.4292 110.494 76.4028 110.295 76.3709 110.109C76.3386 109.922 76.3003 109.748 76.259 109.59C76.2207 109.434 76.1687 109.29 76.132 109.174C76.0982 109.06 76.0504 108.962 76.0278 108.898C76.0011 108.834 75.9831 108.798 75.9831 108.798C75.9481 108.728 75.8854 108.673 75.8078 108.643C75.7302 108.613 75.6435 108.611 75.5655 108.637ZM79.1874 129.518C79.1778 129.458 79.1424 129.404 79.0891 129.367C79.0358 129.33 78.9688 129.314 78.903 129.321L78.8087 129.332C78.7518 129.343 78.6582 129.351 78.5576 129.374C78.4551 129.396 78.3253 129.419 78.1912 129.455C78.0429 129.494 77.8964 129.538 77.752 129.587C77.5892 129.642 77.4291 129.703 77.2723 129.771C77.1091 129.841 76.9417 129.918 76.7798 130.007C76.4459 130.182 76.131 130.385 75.839 130.612C75.2499 131.061 74.7996 131.609 74.5604 132.091C74.5007 132.211 74.4507 132.325 74.4122 132.43C74.3743 132.536 74.3454 132.63 74.3263 132.712C74.2884 132.875 74.282 132.979 74.282 132.979C74.2715 133.159 74.2973 133.339 74.3581 133.511C74.4897 133.879 74.7764 134.187 75.1551 134.368C75.5338 134.549 75.9735 134.588 76.3775 134.476C76.3775 134.476 76.4871 134.445 76.6527 134.373C76.7489 134.33 76.8426 134.282 76.9333 134.231C77.0463 134.165 77.1555 134.094 77.2606 134.019C77.7181 133.693 78.1966 133.166 78.5365 132.538C78.7104 132.226 78.8521 131.9 78.96 131.564C79.0136 131.402 79.0587 131.238 79.0952 131.072C79.13 130.918 79.1576 130.762 79.1779 130.605C79.1972 130.456 79.209 130.315 79.2141 130.186C79.2215 130.059 79.2151 129.938 79.2141 129.843C79.215 129.748 79.2015 129.664 79.1988 129.611L79.188 129.525C79.1881 129.523 79.1879 129.521 79.1874 129.518Z"/>
</mask>
<path d="M61.7348 77.4613C61.7348 77.4613 61.7373 77.5023 61.736 77.5746C61.7314 77.6443 61.7363 77.7558 61.7211 77.8803C61.708 78.0067 61.6983 78.1651 61.6696 78.3328C61.6406 78.5182 61.604 78.7024 61.5598 78.8851C61.5097 79.0924 61.4505 79.2977 61.3822 79.5004C61.3089 79.7191 61.2264 79.935 61.1349 80.1477C60.9408 80.5907 60.7073 81.018 60.4366 81.4256C60.1762 81.823 59.8751 82.1969 59.5373 82.5426C59.2152 82.8709 58.8765 83.1467 58.5565 83.3596C58.409 83.4573 58.2566 83.5487 58.0996 83.6335C57.9561 83.7091 57.8261 83.7712 57.7134 83.8176C57.49 83.9123 57.3405 83.9488 57.3405 83.9488C56.2952 84.2047 55.2022 83.6408 54.8995 82.6892C54.8234 82.4463 54.8034 82.1927 54.8408 81.9444C54.8408 81.9444 54.8625 81.8052 54.9383 81.5924C54.9753 81.4852 55.027 81.3606 55.092 81.2221C55.1655 81.0703 55.2467 80.9217 55.3353 80.7768C55.5285 80.4625 55.7885 80.1235 56.108 79.7929C56.4265 79.4618 56.8041 79.1388 57.2185 78.8455C57.6311 78.5515 58.0697 78.2886 58.5302 78.0591C58.7516 77.9505 58.9775 77.8496 59.2077 77.7566C59.4209 77.6701 59.6381 77.5915 59.8586 77.5209C60.0678 77.454 60.2666 77.3984 60.449 77.3539C60.6289 77.3074 60.8009 77.2792 60.9375 77.2518C61.0718 77.2225 61.1946 77.2134 61.27 77.2007C61.3489 77.1907 61.3941 77.1878 61.3941 77.1878C61.4768 77.1826 61.5591 77.2074 61.6229 77.2568C61.6866 77.3063 61.7265 77.3762 61.7338 77.4512L61.7348 77.4613ZM100.779 83.8742C100.779 83.8742 100.763 83.9089 100.74 83.9712C100.72 84.0318 100.678 84.1266 100.649 84.2363C100.618 84.3471 100.573 84.4847 100.542 84.6337C100.465 84.9805 100.42 85.3331 100.408 85.6878C100.401 85.8827 100.403 86.0843 100.414 86.2885C100.441 86.7009 100.51 87.1108 100.619 87.5132C100.727 87.9141 100.879 88.2962 101.064 88.6367C101.247 88.9776 101.464 89.2766 101.685 89.518C101.796 89.6382 101.905 89.7454 102.01 89.8372C102.116 89.9285 102.214 90.0055 102.302 90.0661C102.474 90.1884 102.599 90.2474 102.599 90.2474C102.765 90.325 102.941 90.3831 103.123 90.4203C104.249 90.6454 105.346 90.0047 105.573 88.9892C105.573 88.9892 105.601 88.8659 105.604 88.6693C105.606 88.5706 105.601 88.4541 105.589 88.3232C105.576 88.1929 105.551 88.0496 105.517 87.8965C105.447 87.5914 105.324 87.2528 105.144 86.9105C104.965 86.5678 104.729 86.2213 104.448 85.8934C104.168 85.5632 103.855 85.2566 103.514 84.9775C103.347 84.843 103.174 84.7148 102.996 84.5933C102.829 84.4792 102.656 84.3717 102.479 84.2713C102.321 84.1814 102.159 84.0974 101.994 84.0193C101.845 83.9463 101.697 83.8903 101.581 83.8418C101.468 83.7921 101.359 83.7616 101.294 83.7368C101.225 83.7137 101.184 83.7028 101.184 83.7028C101.104 83.6816 101.019 83.6873 100.945 83.7188C100.87 83.7503 100.811 83.8056 100.779 83.8742ZM86.8641 90.9099C86.8641 90.9099 86.8223 90.9114 86.7497 90.9187C86.6808 90.9285 86.5672 90.9339 86.4457 90.9572C86.3217 90.9789 86.1647 91.0004 86.0027 91.0385C85.6237 91.1225 85.2537 91.2352 84.8967 91.3754C84.6951 91.454 84.4975 91.5405 84.3045 91.6346C83.9081 91.8306 83.5333 92.0598 83.185 92.3192C82.8373 92.5763 82.5282 92.8614 82.2754 93.1553C82.0219 93.4486 81.825 93.7511 81.687 94.0326C81.6236 94.1629 81.5679 94.2962 81.5201 94.4321C81.4782 94.5566 81.4468 94.669 81.4268 94.7656C81.3848 94.9575 81.3836 95.0836 81.3836 95.0836C81.383 95.2442 81.4046 95.4172 81.4519 95.5808C81.7443 96.5921 82.8824 97.2131 83.9942 96.9677C83.9942 96.9677 84.1289 96.9379 84.325 96.8573C84.4401 96.81 84.5523 96.7572 84.661 96.699C84.7956 96.6258 84.9258 96.5462 85.0509 96.4604C85.321 96.2744 85.6002 96.0312 85.8567 95.7401C86.1141 95.4494 86.3492 95.111 86.5456 94.7447C86.7443 94.3773 86.9047 93.9935 87.0246 93.598C87.0814 93.4056 87.1291 93.2109 87.1677 93.0145C87.2367 92.6665 87.2734 92.3132 87.2774 91.9585C87.2813 91.8064 87.2689 91.6626 87.2639 91.5479C87.2613 91.4349 87.2414 91.333 87.2361 91.2698C87.2275 91.2041 87.2196 91.1665 87.2196 91.1665C87.204 91.0926 87.1593 91.0258 87.0939 90.9786C87.0285 90.9314 86.9469 90.907 86.8641 90.9099ZM59.0811 110.7C59.0811 110.7 59.0392 110.702 58.9666 110.709C58.8977 110.719 58.7841 110.724 58.6626 110.748C58.5386 110.769 58.3816 110.791 58.2196 110.829C57.8406 110.913 57.4707 111.025 57.1136 111.166C56.912 111.244 56.7145 111.331 56.5214 111.425C56.125 111.621 55.7502 111.85 55.4019 112.11C55.0542 112.367 54.7451 112.652 54.4924 112.946C54.2388 113.239 54.0419 113.541 53.9039 113.823C53.8406 113.953 53.7849 114.086 53.7371 114.222C53.6951 114.347 53.6638 114.459 53.6437 114.556C53.6017 114.748 53.6005 114.874 53.6005 114.874C53.6 115.034 53.6215 115.207 53.6688 115.371C53.9613 116.382 55.0994 117.003 56.2111 116.758C56.2111 116.758 56.3458 116.728 56.5419 116.648C56.6571 116.6 56.7692 116.547 56.8779 116.489C57.0125 116.416 57.1427 116.336 57.2678 116.251C57.5379 116.065 57.8172 115.821 58.0736 115.53C58.331 115.24 58.5661 114.901 58.7625 114.535C58.9612 114.168 59.1216 113.784 59.2415 113.388C59.2983 113.196 59.346 113.001 59.3846 112.805C59.4536 112.457 59.4903 112.103 59.4943 111.749C59.4982 111.597 59.4858 111.453 59.4808 111.338C59.4782 111.225 59.4583 111.123 59.4531 111.06C59.4445 110.994 59.4365 110.957 59.4365 110.957C59.421 110.883 59.3763 110.816 59.3109 110.769C59.2455 110.722 59.1638 110.697 59.0811 110.7ZM63.7426 93.4901C63.7426 93.4901 63.7033 93.5005 63.637 93.523C63.5745 93.547 63.4687 93.5764 63.3606 93.6246C63.2496 93.6716 63.1074 93.7256 62.9655 93.7961C62.6331 93.9557 62.3168 94.141 62.0201 94.3498C61.8532 94.4659 61.6931 94.5897 61.5405 94.7209C61.38 94.852 61.2324 94.9946 61.0889 95.142C60.9462 95.2889 60.812 95.4424 60.6868 95.602C60.4361 95.9175 60.2307 96.251 60.0811 96.5805C59.9308 96.9097 59.8372 97.2354 59.7924 97.5285C59.7537 97.7738 59.7465 98.023 59.7711 98.2709C59.779 98.3646 59.7992 98.4437 59.8073 98.4955C59.8178 98.5482 59.8277 98.578 59.8277 98.578C59.8678 98.6944 59.919 98.8075 59.9807 98.9162C60.5338 99.8757 61.8329 100.262 62.8822 99.7799C62.8822 99.7799 62.9126 99.766 62.9609 99.7365C63.0071 99.7061 63.083 99.6649 63.1619 99.6052C63.3731 99.45 63.5633 99.2729 63.7286 99.0773C63.9272 98.8448 64.1176 98.5572 64.2714 98.2294C64.4259 97.9018 64.5451 97.5345 64.6186 97.1492C64.6569 96.9556 64.6844 96.76 64.7008 96.5635C64.7168 96.3659 64.7264 96.169 64.7181 95.9716C64.7153 95.7792 64.7016 95.5869 64.6769 95.3955C64.6351 95.0536 64.5614 94.715 64.4566 94.3832C64.4135 94.24 64.3575 94.108 64.3175 94.0016C64.2803 93.8963 64.2301 93.8054 64.2058 93.7473C64.1775 93.6876 64.1584 93.6542 64.1584 93.6542C64.1204 93.5874 64.058 93.5343 63.982 93.5043C63.906 93.4743 63.8212 93.4693 63.7426 93.4901ZM81.3853 77.5056C81.3986 77.4303 81.3783 77.3528 81.3288 77.29C81.2793 77.2273 81.2046 77.1844 81.1212 77.1709C81.1212 77.1709 81.077 77.1637 80.9989 77.1562C80.9235 77.1519 80.8034 77.1339 80.6677 77.1325C80.53 77.1288 80.3583 77.1184 80.1748 77.1233C79.9723 77.1265 79.7701 77.1367 79.5688 77.1539C79.3407 77.1732 79.1138 77.201 78.8886 77.237C78.6462 77.2756 78.4058 77.3227 78.1678 77.3782C77.6728 77.4966 77.1904 77.6522 76.7254 77.8434C76.2734 78.0262 75.8425 78.2482 75.4389 78.5062C75.0554 78.7523 74.7271 79.0196 74.4687 79.2777C74.3401 79.4077 74.2269 79.5326 74.1317 79.6501C74.0372 79.7682 73.9585 79.8761 73.8982 79.9704C73.776 80.1572 73.7229 80.2854 73.7229 80.2854C73.6332 80.5054 73.5914 80.7396 73.5997 80.9755C73.6394 81.9703 74.5618 82.763 75.66 82.7461C75.66 82.7461 75.8121 82.7438 76.0487 82.7021C76.1677 82.6822 76.3069 82.6514 76.4624 82.6105C76.6172 82.5689 76.7857 82.5142 76.9649 82.4484C77.3215 82.3148 77.711 82.1253 78.0965 81.8818C78.5013 81.6252 78.8773 81.3335 79.2193 81.0109C79.5742 80.68 79.8977 80.3225 80.1865 79.9422C80.3238 79.7588 80.4532 79.5705 80.5741 79.3777C80.6868 79.1987 80.7913 79.0155 80.8873 78.8286C80.9722 78.6635 81.0501 78.4954 81.1208 78.3248C81.1872 78.1708 81.2332 78.0216 81.2752 77.9036C81.3188 77.7881 81.3399 77.6803 81.3604 77.6147C81.3782 77.5458 81.3855 77.5061 81.3855 77.5061L81.3853 77.5056ZM95.4448 101.115C95.4448 101.115 95.4283 101.151 95.4042 101.216C95.3841 101.279 95.3405 101.377 95.3113 101.492C95.2792 101.608 95.233 101.751 95.201 101.907C95.1632 102.079 95.1329 102.252 95.11 102.426C95.0841 102.622 95.0673 102.82 95.0598 103.017C95.0515 103.23 95.0526 103.442 95.0633 103.654C95.0884 104.094 95.1558 104.532 95.2648 104.963C95.3673 105.38 95.516 105.787 95.7089 106.178C95.893 106.55 96.1109 106.878 96.3334 107.146C96.4458 107.279 96.5557 107.399 96.6615 107.502C96.7684 107.605 96.8671 107.692 96.9555 107.761C97.1296 107.9 97.2556 107.969 97.2556 107.969C97.4518 108.076 97.6655 108.153 97.888 108.198C98.987 108.415 100.056 107.788 100.275 106.797C100.275 106.797 100.303 106.668 100.307 106.46C100.31 106.355 100.306 106.231 100.294 106.092C100.281 105.953 100.257 105.8 100.224 105.636C100.154 105.309 100.031 104.943 99.8505 104.571C99.6707 104.198 99.4333 103.818 99.1511 103.455C98.87 103.091 98.5548 102.749 98.209 102.433C98.0411 102.282 97.8667 102.137 97.6862 101.998C97.518 101.868 97.344 101.745 97.1646 101.628C97.0057 101.525 96.8424 101.427 96.6753 101.335C96.5246 101.25 96.3751 101.182 96.2578 101.124C96.1433 101.065 96.0329 101.027 95.9672 100.997C95.8976 100.969 95.8565 100.955 95.8565 100.955C95.7773 100.929 95.6906 100.931 95.6142 100.961C95.5378 100.991 95.4772 101.046 95.4448 101.115ZM97.294 116.612C97.294 116.612 97.2649 116.64 97.218 116.694C97.1756 116.747 97.0978 116.825 97.0276 116.924C96.9543 117.022 96.8574 117.142 96.7692 117.279C96.5584 117.597 96.3762 117.93 96.2244 118.275C96.138 118.471 96.0604 118.67 95.9918 118.872C95.8526 119.292 95.7545 119.722 95.6983 120.158C95.6413 120.579 95.6317 121.005 95.6698 121.43C95.7071 121.833 95.7921 122.207 95.904 122.525C95.956 122.672 96.0158 122.816 96.0834 122.958C96.1467 123.086 96.2084 123.197 96.2666 123.289C96.3805 123.472 96.4742 123.575 96.4742 123.575C96.6207 123.734 96.7947 123.872 96.9893 123.981C97.9513 124.518 99.1971 124.255 99.7716 123.394C99.7716 123.394 99.8466 123.282 99.9273 123.088C99.969 122.991 100.011 122.874 100.051 122.74C100.093 122.593 100.127 122.443 100.153 122.292C100.208 121.965 100.227 121.586 100.194 121.182C100.157 120.758 100.073 120.337 99.9432 119.926C99.8127 119.501 99.635 119.078 99.4276 118.684C99.3244 118.491 99.2127 118.303 99.0929 118.118C98.8824 117.793 98.6437 117.483 98.3793 117.191C98.2681 117.065 98.1511 116.957 98.0613 116.867C97.9746 116.777 97.8839 116.708 97.8327 116.66C97.777 116.613 97.7432 116.587 97.7432 116.587C97.6778 116.539 97.595 116.514 97.5115 116.519C97.4281 116.524 97.3503 116.557 97.294 116.612ZM112.569 94.5099C112.497 94.4749 112.414 94.4668 112.336 94.4876C112.259 94.5083 112.195 94.5561 112.158 94.6204C112.158 94.6204 112.136 94.6576 112.103 94.7257C112.073 94.793 112.019 94.8943 111.97 95.0185C111.835 95.3483 111.726 95.6866 111.644 96.031C111.591 96.2482 111.547 96.4673 111.513 96.6878C111.476 96.9262 111.449 97.166 111.431 97.4066C111.397 97.9113 111.406 98.4183 111.457 98.9231C111.505 99.4152 111.599 99.9034 111.741 100.382C111.876 100.838 112.051 101.252 112.239 101.599C112.334 101.772 112.428 101.929 112.521 102.066C112.615 102.203 112.702 102.321 112.782 102.416C112.939 102.608 113.056 102.711 113.056 102.711C113.279 102.906 113.548 103.052 113.842 103.137C114.869 103.431 115.948 102.92 116.253 101.996C116.253 101.996 116.299 101.856 116.331 101.622C116.348 101.505 116.36 101.365 116.367 101.205C116.373 101.046 116.369 100.868 116.357 100.677C116.331 100.294 116.257 99.857 116.125 99.4005C115.995 98.9439 115.807 98.4678 115.572 98.0021C115.34 97.5376 115.069 97.0893 114.762 96.6611C114.614 96.4575 114.458 96.2588 114.294 96.0653C114.143 95.8862 113.984 95.7123 113.819 95.5441C113.557 95.2767 113.276 95.0259 112.976 94.7935C112.865 94.7051 112.762 94.6391 112.698 94.5925C112.632 94.5465 112.593 94.5231 112.593 94.5231C112.585 94.5182 112.577 94.5138 112.569 94.5099ZM85.3145 112.46C85.3145 112.46 85.2786 112.482 85.2193 112.523C85.1643 112.566 85.0682 112.626 84.9743 112.706C84.8775 112.786 84.7518 112.882 84.6307 112.996C84.3431 113.259 84.0797 113.543 83.8428 113.846C83.7119 114.012 83.5837 114.19 83.4623 114.375C83.2187 114.752 83.0124 115.148 82.8457 115.558C82.6819 115.954 82.5633 116.365 82.4919 116.784C82.4249 117.182 82.412 117.562 82.4397 117.893C82.4529 118.046 82.4744 118.199 82.5042 118.35C82.5332 118.488 82.5647 118.609 82.5983 118.709C82.6626 118.91 82.7278 119.03 82.7278 119.03C82.8262 119.208 82.9616 119.383 83.1268 119.531C83.9293 120.253 85.2139 120.261 85.9962 119.548C85.9962 119.548 86.0982 119.455 86.2267 119.285C86.2922 119.2 86.363 119.095 86.4367 118.974C86.5158 118.84 86.5875 118.702 86.6515 118.562C86.7894 118.256 86.9051 117.893 86.9758 117.495C87.0491 117.077 87.0751 116.651 87.0533 116.226C87.0336 115.786 86.9717 115.347 86.8681 114.916C86.8167 114.707 86.756 114.501 86.6862 114.297C86.5638 113.938 86.4102 113.588 86.2267 113.25C86.1501 113.105 86.0636 112.975 85.9989 112.869C85.9372 112.764 85.8663 112.678 85.8284 112.621C85.7862 112.563 85.7597 112.531 85.7597 112.531C85.7085 112.47 85.6338 112.429 85.551 112.416C85.4683 112.403 85.3837 112.419 85.3145 112.46ZM65.2849 124.782C65.2728 124.754 65.2548 124.728 65.2319 124.707C65.209 124.685 65.1816 124.667 65.1514 124.655C65.1212 124.642 65.0887 124.635 65.0557 124.634C65.0228 124.633 64.9901 124.638 64.9594 124.649L64.8709 124.679C64.8182 124.701 64.7298 124.728 64.6382 124.772C64.5443 124.814 64.4245 124.864 64.3037 124.927C64.0189 125.074 63.7479 125.241 63.4933 125.427C63.3531 125.53 63.2104 125.64 63.0758 125.76C62.7968 126.001 62.543 126.264 62.3176 126.547C61.8607 127.109 61.5633 127.738 61.4536 128.259C61.4278 128.379 61.4086 128.5 61.396 128.621C61.3866 128.719 61.3827 128.817 61.3843 128.915C61.3892 129.082 61.4092 129.185 61.4092 129.185C61.4547 129.418 61.562 129.639 61.7219 129.828C61.8817 130.017 62.0894 130.168 62.3268 130.27C62.5641 130.371 62.8241 130.419 63.0842 130.409C63.3442 130.399 63.5964 130.332 63.819 130.213C63.819 130.213 63.9176 130.161 64.0597 130.056C64.1305 130.003 64.2098 129.937 64.2954 129.858C64.3804 129.779 64.4686 129.687 64.5589 129.583C64.9197 129.17 65.2496 128.554 65.4199 127.871C65.5093 127.529 65.5639 127.181 65.5831 126.829C65.5956 126.657 65.595 126.486 65.5897 126.321C65.5844 126.156 65.5702 125.997 65.5515 125.847C65.5322 125.697 65.5079 125.556 65.4804 125.429C65.4553 125.303 65.4187 125.187 65.3934 125.094C65.3704 125.001 65.3357 124.922 65.3199 124.87L65.2876 124.789L65.2849 124.782ZM110.477 80.36C110.477 80.36 110.483 80.399 110.498 80.4665C110.516 80.5308 110.533 80.6365 110.572 80.7501C110.608 80.866 110.648 81.0123 110.707 81.1636C110.765 81.3174 110.835 81.4841 110.917 81.6586C111.003 81.842 111.098 82.0221 111.202 82.1986C111.309 82.3826 111.428 82.5693 111.557 82.7543C111.819 83.1218 112.123 83.482 112.455 83.8081C112.785 84.1362 113.144 84.4288 113.508 84.6692C113.871 84.9104 114.24 85.0989 114.578 85.2324C114.735 85.2936 114.894 85.3478 115.056 85.3948C115.204 85.4359 115.337 85.4672 115.451 85.4877C115.677 85.5301 115.823 85.5335 115.823 85.5335C116.042 85.5378 116.273 85.5105 116.491 85.4469C117.552 85.1381 118.119 84.1043 117.757 83.138C117.757 83.138 117.71 83.012 117.598 82.8281C117.532 82.7197 117.461 82.6144 117.383 82.5125C117.286 82.3857 117.181 82.2632 117.071 82.1455C116.83 81.8908 116.522 81.6267 116.161 81.3828C115.801 81.1382 115.387 80.9134 114.945 80.7242C114.503 80.5332 114.043 80.3773 113.573 80.2581C113.345 80.2018 113.116 80.1539 112.884 80.1145C112.669 80.0775 112.451 80.0486 112.233 80.028C112.04 80.0096 111.846 79.9981 111.652 79.9936C111.476 79.9872 111.31 79.9963 111.178 79.9989C111.047 79.9992 110.932 80.0161 110.859 80.0196C110.819 80.023 110.78 80.0275 110.741 80.0332C110.659 80.0464 110.586 80.0875 110.537 80.1482C110.488 80.2089 110.467 80.2846 110.477 80.36ZM75.5655 108.637C75.5655 108.637 75.525 108.651 75.4565 108.679C75.392 108.709 75.283 108.747 75.171 108.806C75.056 108.863 74.9091 108.93 74.7618 109.016C74.4142 109.212 74.0851 109.433 73.7774 109.677C73.6025 109.815 73.434 109.96 73.2722 110.111C72.9392 110.427 72.6378 110.768 72.3713 111.132C72.1038 111.494 71.8817 111.874 71.7169 112.247C71.5511 112.619 71.4431 112.984 71.3867 113.311C71.3611 113.462 71.3438 113.615 71.3348 113.767C71.3287 113.907 71.3292 114.03 71.3364 114.135C71.3486 114.343 71.3825 114.472 71.3825 114.472C71.4358 114.673 71.525 114.865 71.6466 115.041C72.2498 115.906 73.5045 116.178 74.4489 115.649C74.4489 115.649 74.572 115.58 74.7406 115.441C74.84 115.359 74.9347 115.273 75.0242 115.183C75.1353 115.069 75.24 114.95 75.3381 114.827C75.5497 114.56 75.7543 114.231 75.9236 113.86C76.0937 113.49 76.2289 113.077 76.3187 112.646C76.4103 112.215 76.46 111.777 76.4673 111.337C76.4694 111.125 76.462 110.912 76.445 110.7C76.4292 110.494 76.4028 110.295 76.3709 110.109C76.3386 109.922 76.3003 109.748 76.259 109.59C76.2207 109.434 76.1687 109.29 76.132 109.174C76.0982 109.06 76.0504 108.962 76.0278 108.898C76.0011 108.834 75.9831 108.798 75.9831 108.798C75.9481 108.728 75.8854 108.673 75.8078 108.643C75.7302 108.613 75.6435 108.611 75.5655 108.637ZM79.1874 129.518C79.1778 129.458 79.1424 129.404 79.0891 129.367C79.0358 129.33 78.9688 129.314 78.903 129.321L78.8087 129.332C78.7518 129.343 78.6582 129.351 78.5576 129.374C78.4551 129.396 78.3253 129.419 78.1912 129.455C78.0429 129.494 77.8964 129.538 77.752 129.587C77.5892 129.642 77.4291 129.703 77.2723 129.771C77.1091 129.841 76.9417 129.918 76.7798 130.007C76.4459 130.182 76.131 130.385 75.839 130.612C75.2499 131.061 74.7996 131.609 74.5604 132.091C74.5007 132.211 74.4507 132.325 74.4122 132.43C74.3743 132.536 74.3454 132.63 74.3263 132.712C74.2884 132.875 74.282 132.979 74.282 132.979C74.2715 133.159 74.2973 133.339 74.3581 133.511C74.4897 133.879 74.7764 134.187 75.1551 134.368C75.5338 134.549 75.9735 134.588 76.3775 134.476C76.3775 134.476 76.4871 134.445 76.6527 134.373C76.7489 134.33 76.8426 134.282 76.9333 134.231C77.0463 134.165 77.1555 134.094 77.2606 134.019C77.7181 133.693 78.1966 133.166 78.5365 132.538C78.7104 132.226 78.8521 131.9 78.96 131.564C79.0136 131.402 79.0587 131.238 79.0952 131.072C79.13 130.918 79.1576 130.762 79.1779 130.605C79.1972 130.456 79.209 130.315 79.2141 130.186C79.2215 130.059 79.2151 129.938 79.2141 129.843C79.215 129.748 79.2015 129.664 79.1988 129.611L79.188 129.525C79.1881 129.523 79.1879 129.521 79.1874 129.518Z" stroke="black" stroke-width="2" mask="url(#path-10-inside-2_1_371)"/>
<path d="M92.5436 62.6873C91.0761 62.8987 87.4294 63.9567 84.5821 66.4982" stroke="#372F2F" stroke-width="2"/>
<path d="M102.712 74.3067C102.93 72.8402 102.962 69.0432 101.343 65.5871" stroke="#372F2F" stroke-width="2"/>
</svg>
