<svg width="113" height="138" viewBox="0 0 113 138" fill="none" xmlns="http://www.w3.org/2000/svg">
<path d="M66.1943 21.4975C68.6948 20.6697 73.9374 21.046 75.2618 21.4038C75.4358 21.4508 75.6119 21.4975 75.7921 21.4975L78.6692 21.4975H83.7394C83.8857 21.4975 84.0303 21.5296 84.1628 21.5915L90.321 24.4695C90.3656 24.4904 90.4086 24.5145 90.4497 24.5417L96.0584 28.255L100.973 32.3846L105.773 37.5185C105.849 37.5992 105.91 37.692 105.955 37.7929L108.859 44.2812C108.894 44.3588 108.918 44.4404 108.933 44.5242L110.41 53.3258C110.419 53.3805 110.423 53.4359 110.423 53.4914V62.6224C110.423 62.7356 110.404 62.848 110.367 62.9548L107.777 70.3018L105.887 74.8069L103.665 81.0598C103.634 81.1455 103.592 81.2267 103.54 81.301L100.973 84.9431L99.1614 87.8213C99.1092 87.9043 99.045 87.9792 98.971 88.0435L96.1126 90.5273C96.0765 90.5587 96.0427 90.5926 96.0115 90.6288L93.8562 93.126C93.8123 93.1768 93.7635 93.223 93.7104 93.264L90.388 95.8303L87.3638 98.0828L83.9616 100.335L81.0267 102.521C80.9673 102.565 80.9032 102.603 80.8356 102.633L79.0412 103.431C78.1088 103.845 72.4554 106.021 71.4867 106.342C64.2286 108.745 60.1459 115.352 59.0118 118.355L56.0581 123.855C56.0113 123.942 55.952 124.022 55.8827 124.092C54.8117 125.18 52.3642 128.01 50.3172 131.495C48.2002 135.099 44.1427 136 42.3786 136H36.3302L28.1561 134.893C28.0616 134.88 27.9694 134.854 27.8823 134.815L20.584 131.553C20.4971 131.515 20.4163 131.464 20.3438 131.402L15.1607 126.99L10.7263 122.219C10.6587 122.147 10.6023 122.064 10.559 121.975L5.70999 111.973C3.0638 104.465 -1.0945 86.0694 3.44182 72.5543C9.11223 55.6605 10.2463 56.036 12.5145 51.5309C14.239 48.1057 21.3359 40.792 25.1727 37.0669C25.5082 36.7412 26.0448 36.6583 26.4997 36.7665C27.678 37.0467 30.2823 37.4187 35.1961 37.6405C41.8494 37.9408 49.8131 34.2617 52.9634 32.3846C63.9261 26.0025 62.7921 22.6237 66.1943 21.4975Z" stroke="black"/>
<path d="M25.4234 36.5C18.7568 42.3333 4.82344 58.3 2.42344 75.5C0.92344 82.3333 -0.67656 98.9 4.92344 110.5C7.0901 115.167 12.3234 125.2 15.9234 128C19.0901 132 29.1234 139.2 43.9234 136C46.9234 135 54.4234 129.4 60.4234 115C61.5901 112.667 67.0234 107.1 79.4234 103.5C86.0901 100 100.323 90.7 103.923 81.5C107.757 75 114.423 59.1 110.423 47.5C109.59 42.1667 104.523 30 90.9234 24C88.2568 22.5 81.2234 19.8 74.4234 21C71.7568 20.6667 66.1234 20.4001 64.9234 22" stroke="black" stroke-width="2"/>
<path d="M80.878 21C86.6534 24.5618 97.8192 35.4254 96.2791 50.3852C96.0224 55.6007 92.9679 69.3138 82.8032 82.4417L68.5572 94.2721L60.4716 98.8516L54.6962 103.049L50.8459 106.102L46.9957 109.537L43.9154 114.117L41.6053 118.314L38.9101 121.367L36.985 123.657L34.6748 125.947L32.7497 127.473L30.4395 128.237L28.5144 129H26.9743H25.8192H24.2791H22.3539H21.1989H19.6587L18.5037 128.237H17.3486H16.1935H15.4234" stroke="black"/>
<path d="M72.4234 22V2C72.4234 1.44772 72.8711 1 73.4234 1H75.4234C75.9757 1 76.4234 1.44772 76.4234 2V22C76.4234 22.5523 75.9757 23 75.4234 23H73.4234C72.8711 23 72.4234 22.5523 72.4234 22Z" stroke="black"/>
<path d="M15.4234 31.9199C22.2568 24.2532 41.6234 11.5199 64.4234 21.9199C58.2568 30.0865 39.8234 43.5198 15.4234 31.9199Z" stroke="black" stroke-width="2"/>
<path d="M81.4234 21C88.4234 25.6667 100.823 39.8 94.4234 59C92.2568 67.3333 83.9234 86.1 67.9234 94.5C59.2568 99.1667 42.0234 110.2 42.4234 117C39.4234 122.333 30.1234 132 16.9234 128" stroke="black"/>
</svg>
