<svg width="117" height="125" viewBox="0 0 117 125" fill="none" xmlns="http://www.w3.org/2000/svg">
<path d="M84.0674 80.5951C90.021 80.5951 94.8473 75.3914 94.8473 68.9722C94.8473 62.5531 90.021 57.3494 84.0674 57.3494C78.1138 57.3494 73.2874 62.5531 73.2874 68.9722C73.2874 75.3914 78.1138 80.5951 84.0674 80.5951Z" stroke="black" stroke-width="2" stroke-linecap="round" stroke-linejoin="round"/>
<path d="M53.5717 47.8166C59.5362 47.8166 64.3715 41.3068 64.3715 33.2766C64.3715 25.2464 59.5362 18.7366 53.5717 18.7366C47.6071 18.7366 42.7719 25.2464 42.7719 33.2766C42.7719 41.3068 47.6071 47.8166 53.5717 47.8166Z" stroke="black" stroke-width="2" stroke-linecap="round" stroke-linejoin="round"/>
<path d="M68.7958 64.1678C74.7494 64.1678 79.5757 58.9641 79.5757 52.5449C79.5757 46.1258 74.7494 40.9221 68.7958 40.9221C62.8422 40.9221 58.0158 46.1258 58.0158 52.5449C58.0158 58.9641 62.8422 64.1678 68.7958 64.1678Z" stroke="black" stroke-width="2" stroke-linecap="round" stroke-linejoin="round"/>
<path d="M74.4013 41.6976C80.3549 41.6976 85.1813 36.4939 85.1813 30.0748C85.1813 23.6556 80.3549 18.4519 74.4013 18.4519C68.4478 18.4519 63.6214 23.6556 63.6214 30.0748C63.6214 36.4939 68.4478 41.6976 74.4013 41.6976Z" stroke="black" stroke-width="2" stroke-linecap="round" stroke-linejoin="round"/>
<path d="M89.6369 58.1246C95.5905 58.1246 100.417 52.9209 100.417 46.5018C100.417 40.0826 95.5905 34.8789 89.6369 34.8789C83.6833 34.8789 78.857 40.0826 78.857 46.5018C78.857 52.9209 83.6833 58.1246 89.6369 58.1246Z" stroke="black" stroke-width="2" stroke-linecap="round" stroke-linejoin="round"/>
<path d="M47.9905 70.1732C53.9441 70.1732 58.7704 64.9694 58.7704 58.5503C58.7704 52.1312 53.9441 46.9274 47.9905 46.9274C42.0369 46.9274 37.2106 52.1312 37.2106 58.5503C37.2106 64.9694 42.0369 70.1732 47.9905 70.1732Z" stroke="black" stroke-width="2" stroke-linecap="round" stroke-linejoin="round"/>
<path d="M63.226 86.6004C69.1796 86.6004 74.006 81.3967 74.006 74.9776C74.006 68.5584 69.1796 63.3547 63.226 63.3547C57.2725 63.3547 52.4461 68.5584 52.4461 74.9776C52.4461 81.3967 57.2725 86.6004 63.226 86.6004Z" stroke="black" stroke-width="2" stroke-linecap="round" stroke-linejoin="round"/>
<path d="M42.3849 92.6441C48.3385 92.6441 53.1648 87.4404 53.1648 81.0212C53.1648 74.6021 48.3385 69.3984 42.3849 69.3984C36.4313 69.3984 31.605 74.6021 31.605 81.0212C31.605 87.4404 36.4313 92.6441 42.3849 92.6441Z" stroke="black" stroke-width="2" stroke-linecap="round" stroke-linejoin="round"/>
<path d="M78.444 103.993C84.4085 103.993 89.2438 98.3714 89.2438 91.4362C89.2438 84.501 84.4085 78.8789 78.444 78.8789C72.4794 78.8789 67.6442 84.501 67.6442 91.4362C67.6442 98.3714 72.4794 103.993 78.444 103.993Z" stroke="black" stroke-width="2" stroke-linecap="round" stroke-linejoin="round"/>
<path d="M56.8443 111.924C62.8089 111.924 67.6441 105.858 67.6441 98.3758C67.6441 90.8931 62.8089 84.8271 56.8443 84.8271C50.8798 84.8271 46.0445 90.8931 46.0445 98.3758C46.0445 105.858 50.8798 111.924 56.8443 111.924Z" stroke="black" stroke-width="2" stroke-linecap="round" stroke-linejoin="round"/>
<path d="M31.605 53.901C37.5586 53.901 42.3849 48.6973 42.3849 42.2782C42.3849 35.859 37.5586 30.6553 31.605 30.6553C25.6514 30.6553 20.8251 35.859 20.8251 42.2782C20.8251 48.6973 25.6514 53.901 31.605 53.901Z" stroke="black" stroke-width="2" stroke-linecap="round" stroke-linejoin="round"/>
<path d="M25.4267 74.9137C32.1142 74.9137 37.5356 70.1793 37.5356 64.3391C37.5356 58.499 32.1142 53.7646 25.4267 53.7646C18.7391 53.7646 13.3178 58.499 13.3178 64.3391C13.3178 70.1793 18.7391 74.9137 25.4267 74.9137Z" stroke="black" stroke-width="2" stroke-linecap="round" stroke-linejoin="round"/>
<path d="M16.5947 100.868C21.2965 102.758 27.3306 98.6557 30.0724 91.704C32.8143 84.7523 31.2255 77.5842 26.5238 75.6935C21.822 73.8028 15.7879 77.9055 13.0461 84.8572C10.3042 91.8089 11.893 98.9771 16.5947 100.868Z" stroke="black" stroke-width="2" stroke-linecap="round" stroke-linejoin="round"/>
<path d="M3.81018 116.612C5.91448 121.188 12.3536 122.678 18.1924 119.94C24.0312 117.202 27.0586 111.274 24.9543 106.698C22.85 102.122 16.4108 100.632 10.5721 103.37C4.73327 106.107 1.70588 112.036 3.81018 116.612Z" stroke="black" stroke-width="2" stroke-linecap="round" stroke-linejoin="round"/>
<path d="M35.1983 115.89C41.1519 115.89 45.9782 110.686 45.9782 104.267C45.9782 97.8477 41.1519 92.644 35.1983 92.644C29.2447 92.644 24.4184 97.8477 24.4184 104.267C24.4184 110.686 29.2447 115.89 35.1983 115.89Z" stroke="black" stroke-width="2" stroke-linecap="round" stroke-linejoin="round"/>
<path d="M89.0051 1.37442C86.6821 -0.2663 86.1014 3.88108 86.1014 6.15986C89.0051 10.9453 106.427 30.7708 112.234 30.7708C116.88 30.7708 116.106 27.5805 115.138 25.9853C94.8124 20.5163 91.9087 3.42532 89.0051 1.37442Z" stroke="black" stroke-width="2"/>
<path d="M101.436 23.406C98.001 23.406 90.7869 25.8893 89.4128 35.8227C88.2677 36.0986 85.8058 35.8227 85.1187 32.5116C84.2599 28.3727 96.2834 21.7504 97.1422 18.4393" stroke="black" stroke-width="2"/>
</svg>
