<svg width="176" height="171" viewBox="0 0 176 171" fill="none" xmlns="http://www.w3.org/2000/svg">
<path d="M119.675 31.7831C120.744 38.3658 120.503 45.7552 120.249 48.6271C118.5 55.8956 110.307 70.3072 106.429 76.6044C92.4729 96.0492 72.7223 107.083 64.5916 110.17C53.4908 113.708 45.4226 120.394 42.7761 123.294L35.6199 128.543C35.1234 130.288 37.613 133.411 38.9199 134.755C46.7885 137.27 56.086 137.51 59.7512 137.315C70.6569 135.301 82.5455 130.763 87.1266 128.745C110.085 117.891 123.974 103.061 128.048 97.003C140.71 81.2698 141.022 64.0831 139.595 57.4564C139.212 54.0546 132.938 48.1439 129.849 45.6138C126.896 42.0251 127.452 24.3523 126.566 23.2757C125.857 22.4144 124.282 22.4573 123.583 22.5864L123.022 18.9693L120.925 19.3566L117.351 17.9496L117.698 20.5728L114.847 21.5126L116.029 22.9481C115.275 23.5007 114.113 24.5835 115.489 24.4947C116.866 24.4058 118.854 29.3166 119.675 31.7831ZM119.675 31.7831L121.888 49.1512C120.736 54.6006 116.336 68.5322 107.957 80.663C103.937 86.2976 92.496 99.6003 78.8957 107.735C70.979 111.815 53.2683 120.777 45.7594 123.983L36.2105 129.261" stroke="black" stroke-width="2"/>
<path d="M151.917 44.3349C151.595 43.28 151.55 42.3124 151.691 41.6184C151.843 40.8764 152.133 40.7022 152.233 40.6762C152.333 40.6502 152.679 40.6597 153.228 41.2202C153.741 41.7445 154.25 42.5919 154.572 43.6467C154.894 44.7016 154.939 45.6692 154.798 46.3632C154.647 47.1052 154.357 47.2794 154.257 47.3054C154.157 47.3314 153.81 47.3219 153.262 46.7614C152.748 46.2371 152.239 45.3897 151.917 44.3349Z" stroke="black" stroke-width="2"/>
</svg>
