<svg width="103" height="123" viewBox="0 0 103 123" fill="none" xmlns="http://www.w3.org/2000/svg">
<path d="M50.7396 30.6681C43.4001 35.3711 24.0803 39.0903 5.51735 16.343C14.9359 11.1383 37.1664 6.71658 50.7396 30.6681Z" fill="#FBF9FB" stroke="black" stroke-width="2"/>
<rect x="49" y="4.57132" width="6" height="44" rx="2" fill="#0D0A0A"/>
<path d="M48.1562 38.5055C51.922 40.1192 56.0015 37.8331 57.5706 36.4883C61.9545 33.8582 67.5293 33.4309 71.0197 33.6054L82.1641 35.7603C79.4782 34.5561 81.0982 35.236 82.4514 35.8159L82.1641 35.7603C82.5925 35.9524 83.1304 36.1924 83.7963 36.4883C88.638 38.64 94.5556 46.126 95.9005 47.919C100.204 59.2153 101.28 63.8325 101.28 66.0738C103.432 75.2184 100.159 86.2457 99.2628 90.9525L91.1933 106.418C86.3517 115.024 76.1752 119.417 73.0371 121.21C66.5815 122.286 62.2778 120.762 59.5879 119.193C56.8981 115.428 50.3134 115.38 46.0545 116.949C38.523 121.79 29.9156 120.538 27.2258 119.193C21.3081 114.352 12.7402 106.194 9.82624 101.711C1.75678 90.4146 0.636017 74.5908 1.08432 68.091C1.08432 55.7189 8.70548 45.0053 12.5161 41.1951C20.5855 34.2021 29.7758 33.3504 33.3622 33.7987L48.1562 38.5055Z" fill="#FBF9FB"/>
<path d="M73.0371 33.7987C72.4977 33.7158 71.8125 33.6451 71.0197 33.6054M71.0197 33.6054C67.5293 33.4309 61.9545 33.8582 57.5706 36.4883C56.0015 37.8331 51.922 40.1192 48.1562 38.5055L33.3622 33.7987C29.7758 33.3504 20.5855 34.2021 12.5161 41.1951C8.70548 45.0053 1.08432 55.7189 1.08432 68.091C0.636017 74.5908 1.75678 90.4146 9.82624 101.711C12.7402 106.194 21.3081 114.352 27.2258 119.193C29.9156 120.538 38.523 121.79 46.0545 116.949C50.3134 115.38 56.8981 115.428 59.5879 119.193C62.2778 120.762 66.5815 122.286 73.0371 121.21C76.1752 119.417 86.3517 115.024 91.1933 106.418L99.2628 90.9525C100.159 86.2457 103.432 75.2184 101.28 66.0738C101.28 63.8325 100.204 59.2153 95.9005 47.919C94.5556 46.126 88.638 38.64 83.7963 36.4883C78.9547 34.3366 80.8824 35.1435 82.4514 35.8159L71.0197 33.6054Z" stroke="black" stroke-width="2"/>
<path d="M55 31.4572C57.2396 23.3514 68.975 8.16377 98 12.2593C94.566 22.0716 81.1583 39.6483 55 31.4572Z" fill="#FBF9FB" stroke="black" stroke-width="2"/>
</svg>
