<svg width="224" height="131" viewBox="0 0 224 131" fill="none" xmlns="http://www.w3.org/2000/svg">
<mask id="path-1-outside-1_1_6" maskUnits="userSpaceOnUse" x="78.8765" y="67.9961" width="37.9359" height="40.7795" fill="black">
<rect fill="white" x="78.8765" y="67.9961" width="37.9359" height="40.7795"/>
<path d="M83.2768 106.65L87.2902 71.4915L101.828 70.7515C104.439 70.6187 106.585 70.8792 108.268 71.5331C109.951 72.187 111.162 73.1609 111.899 74.4546C112.647 75.7478 112.919 77.2758 112.712 79.0385C112.541 80.3671 112.113 81.5722 111.429 82.6539C110.755 83.7236 109.891 84.6323 108.837 85.3801C107.782 86.1165 106.603 86.6544 105.3 86.9937L105.25 87.3377C106.66 87.3228 107.922 87.6341 109.035 88.2715C110.16 88.9083 111.015 89.8376 111.6 91.0594C112.185 92.2699 112.379 93.7165 112.18 95.3992C111.969 97.2874 111.299 98.9998 110.171 100.536C109.054 102.061 107.541 103.299 105.632 104.249C103.723 105.188 101.486 105.723 98.9213 105.854L83.2768 106.65ZM92.5152 99.3699L97.7244 99.1047C99.5289 99.0129 100.907 98.5957 101.859 97.8531C102.822 97.0987 103.363 96.104 103.482 94.8691C103.584 93.965 103.466 93.1973 103.126 92.566C102.786 91.9234 102.25 91.4443 101.517 91.1289C100.784 90.8021 99.8721 90.6665 98.7826 90.7219L93.4202 90.9948L92.5152 99.3699ZM94.0801 85.5167L98.7616 85.2784C99.6695 85.2322 100.496 85.0366 101.241 84.6914C101.997 84.3457 102.61 83.8708 103.08 83.2666C103.561 82.6618 103.843 81.9477 103.926 81.1242C104.06 79.9454 103.746 79.0397 102.986 78.4071C102.226 77.7745 101.147 77.4937 99.7514 77.5647L94.9508 77.8091L94.0801 85.5167Z"/>
</mask>
<path d="M83.2768 106.65L87.2902 71.4915L101.828 70.7515C104.439 70.6187 106.585 70.8792 108.268 71.5331C109.951 72.187 111.162 73.1609 111.899 74.4546C112.647 75.7478 112.919 77.2758 112.712 79.0385C112.541 80.3671 112.113 81.5722 111.429 82.6539C110.755 83.7236 109.891 84.6323 108.837 85.3801C107.782 86.1165 106.603 86.6544 105.3 86.9937L105.25 87.3377C106.66 87.3228 107.922 87.6341 109.035 88.2715C110.16 88.9083 111.015 89.8376 111.6 91.0594C112.185 92.2699 112.379 93.7165 112.18 95.3992C111.969 97.2874 111.299 98.9998 110.171 100.536C109.054 102.061 107.541 103.299 105.632 104.249C103.723 105.188 101.486 105.723 98.9213 105.854L83.2768 106.65ZM92.5152 99.3699L97.7244 99.1047C99.5289 99.0129 100.907 98.5957 101.859 97.8531C102.822 97.0987 103.363 96.104 103.482 94.8691C103.584 93.965 103.466 93.1973 103.126 92.566C102.786 91.9234 102.25 91.4443 101.517 91.1289C100.784 90.8021 99.8721 90.6665 98.7826 90.7219L93.4202 90.9948L92.5152 99.3699ZM94.0801 85.5167L98.7616 85.2784C99.6695 85.2322 100.496 85.0366 101.241 84.6914C101.997 84.3457 102.61 83.8708 103.08 83.2666C103.561 82.6618 103.843 81.9477 103.926 81.1242C104.06 79.9454 103.746 79.0397 102.986 78.4071C102.226 77.7745 101.147 77.4937 99.7514 77.5647L94.9508 77.8091L94.0801 85.5167Z" fill="#C21292"/>
<path d="M83.2768 106.65L81.2897 106.423L81.0221 108.767L83.3784 108.647L83.2768 106.65ZM87.2902 71.4915L87.1886 69.494L85.4954 69.5802L85.3032 71.2646L87.2902 71.4915ZM111.899 74.4546L110.161 75.4448L110.168 75.4565L111.899 74.4546ZM112.712 79.0385L114.696 79.2943L114.698 79.2825L114.699 79.2708L112.712 79.0385ZM111.429 82.6539L109.739 81.5843L109.736 81.588L111.429 82.6539ZM108.837 85.3801L109.981 87.02L109.988 87.0157L109.994 87.0114L108.837 85.3801ZM105.3 86.9937L104.796 85.0583L103.515 85.3921L103.322 86.7017L105.3 86.9937ZM105.25 87.3377L103.271 87.0456L102.929 89.3623L105.271 89.3376L105.25 87.3377ZM109.035 88.2715L108.041 90.0072L108.05 90.0119L109.035 88.2715ZM111.6 91.0594L109.797 91.9238L109.8 91.9297L111.6 91.0594ZM112.18 95.3992L110.194 95.1646L110.192 95.177L112.18 95.3992ZM110.171 100.536L108.559 99.3529L108.558 99.3543L110.171 100.536ZM105.632 104.249L106.515 106.044L106.524 106.039L105.632 104.249ZM92.5152 99.3699L90.5268 99.155L90.2749 101.486L92.6169 101.367L92.5152 99.3699ZM101.859 97.8531L103.089 99.4302L103.093 99.4274L101.859 97.8531ZM103.482 94.8691L101.495 94.645L101.493 94.661L101.492 94.6769L103.482 94.8691ZM103.126 92.566L101.358 93.5012L101.365 93.5129L103.126 92.566ZM101.517 91.1289L100.703 92.9558L100.715 92.961L100.726 92.966L101.517 91.1289ZM93.4202 90.9948L93.3186 88.9974L91.6151 89.0841L91.4318 90.78L93.4202 90.9948ZM94.0801 85.5167L92.0928 85.2922L91.8282 87.6339L94.1818 87.5141L94.0801 85.5167ZM101.241 84.6914L100.409 82.8725L100.4 82.8768L101.241 84.6914ZM103.08 83.2666L101.515 82.0213L101.508 82.03L101.501 82.0388L103.08 83.2666ZM103.926 81.1242L101.939 80.8992L101.938 80.9111L101.937 80.923L103.926 81.1242ZM94.9508 77.8091L94.8492 75.8117L93.154 75.898L92.9635 77.5846L94.9508 77.8091ZM85.2639 106.877L89.2773 71.7183L85.3032 71.2646L81.2897 106.423L85.2639 106.877ZM87.3919 73.4889L101.93 72.7489L101.727 68.7541L87.1886 69.494L87.3919 73.4889ZM101.93 72.7489C104.375 72.6245 106.214 72.8806 107.544 73.3974L108.993 69.6689C106.956 68.8778 104.502 68.6128 101.727 68.7541L101.93 72.7489ZM107.544 73.3974C108.893 73.9216 109.697 74.6299 110.161 75.4448L113.637 73.4645C112.626 71.6918 111.01 70.4525 108.993 69.6689L107.544 73.3974ZM110.168 75.4565C110.662 76.3103 110.892 77.3888 110.726 78.8062L114.699 79.2708C114.945 77.1628 114.633 75.1853 113.63 73.4527L110.168 75.4565ZM110.729 78.7827C110.593 79.8357 110.26 80.7608 109.739 81.5844L113.119 83.7234C113.966 82.3837 114.489 80.8985 114.696 79.2943L110.729 78.7827ZM109.736 81.588C109.205 82.431 108.525 83.1491 107.68 83.7487L109.994 87.0114C111.257 86.1156 112.304 85.0163 113.121 83.7198L109.736 81.588ZM107.692 83.7402C106.84 84.3347 105.88 84.7759 104.796 85.0583L105.805 88.9291C107.326 88.5328 108.723 87.8983 109.981 87.02L107.692 83.7402ZM103.322 86.7017L103.271 87.0456L107.228 87.6297L107.279 87.2858L103.322 86.7017ZM105.271 89.3376C106.361 89.3261 107.267 89.5637 108.041 90.0072L110.029 86.5358C108.576 85.7044 106.958 85.3195 105.229 85.3378L105.271 89.3376ZM108.05 90.0119C108.801 90.4371 109.379 91.0519 109.797 91.9238L113.404 90.195C112.651 88.6233 111.519 87.3795 110.02 86.5311L108.05 90.0119ZM109.8 91.9297C110.181 92.7179 110.359 93.7623 110.194 95.1646L114.166 95.6339C114.398 93.6707 114.19 91.8219 113.401 90.1892L109.8 91.9297ZM110.192 95.177C110.02 96.7163 109.481 98.0974 108.559 99.3529L111.784 101.72C113.118 99.9021 113.917 97.8585 114.167 95.6215L110.192 95.177ZM108.558 99.3543C107.652 100.59 106.401 101.632 104.741 102.459L106.524 106.039C108.681 104.965 110.456 103.532 111.785 101.718L108.558 99.3543ZM104.75 102.455C103.129 103.252 101.168 103.737 98.8196 103.856L99.023 107.851C101.804 107.71 104.317 107.125 106.515 106.044L104.75 102.455ZM98.8196 103.856L83.1751 104.653L83.3784 108.647L99.023 107.851L98.8196 103.856ZM92.6169 101.367L97.8261 101.102L97.6227 97.1073L92.4136 97.3724L92.6169 101.367ZM97.8261 101.102C99.8486 100.999 101.689 100.522 103.089 99.4302L100.629 96.276C100.126 96.6689 99.2092 97.0266 97.6227 97.1073L97.8261 101.102ZM103.093 99.4274C104.494 98.3299 105.302 96.8323 105.473 95.0612L101.492 94.6769C101.424 95.3757 101.151 95.8674 100.626 96.2788L103.093 99.4274ZM105.47 95.0931C105.605 93.8938 105.466 92.6944 104.888 91.6191L101.365 93.5129C101.465 93.7002 101.564 94.0362 101.495 94.645L105.47 95.0931ZM104.894 91.6309C104.32 90.5449 103.416 89.7689 102.308 89.2918L100.726 92.966C101.084 93.1198 101.253 93.3018 101.358 93.5011L104.894 91.6309ZM102.331 89.302C101.226 88.8096 99.9776 88.6585 98.681 88.7245L98.8843 92.7193C99.7666 92.6744 100.341 92.7946 100.703 92.9558L102.331 89.302ZM98.681 88.7245L93.3186 88.9974L93.5219 92.9923L98.8843 92.7193L98.681 88.7245ZM91.4318 90.78L90.5268 99.155L94.5037 99.5847L95.4087 91.2097L91.4318 90.78ZM94.1818 87.5141L98.8632 87.2759L98.6599 83.281L93.9785 83.5193L94.1818 87.5141ZM98.8632 87.2759C99.9995 87.218 101.081 86.9699 102.082 86.5061L100.4 82.8768C99.9111 83.1032 99.3395 83.2464 98.6599 83.281L98.8632 87.2759ZM102.072 86.5104C103.096 86.0425 103.974 85.3744 104.658 84.4944L101.501 82.0388C101.246 82.3671 100.898 82.649 100.409 82.8725L102.072 86.5104ZM104.645 84.5119C105.382 83.5855 105.797 82.5021 105.916 81.3253L101.937 80.923C101.889 81.3932 101.74 81.7381 101.515 82.0213L104.645 84.5119ZM105.914 81.3491C106.106 79.6548 105.652 78.0233 104.265 76.8696L101.707 79.9446C101.841 80.0561 102.014 80.236 101.939 80.8992L105.914 81.3491ZM104.265 76.8696C102.984 75.804 101.34 75.4813 99.6498 75.5673L99.8531 79.5622C100.954 79.5061 101.467 79.745 101.707 79.9446L104.265 76.8696ZM99.6498 75.5673L94.8492 75.8117L95.0525 79.8065L99.8531 79.5622L99.6498 75.5673ZM92.9635 77.5846L92.0928 85.2922L96.0675 85.7412L96.9382 78.0336L92.9635 77.5846Z" fill="black" mask="url(#path-1-outside-1_1_6)"/>
<mask id="path-3-outside-2_1_6" maskUnits="userSpaceOnUse" x="-2" y="18" width="39" height="39" fill="black">
<rect fill="white" x="-2" y="18" width="39" height="39"/>
<path d="M14.0199 55H0.928977L6.72443 20.0909H19.4233C22.9688 20.0909 25.9233 20.8125 28.2869 22.2557C30.6619 23.6875 32.3381 25.7443 33.3153 28.4261C34.304 31.0966 34.4915 34.2784 33.8778 37.9716C33.2869 41.5398 32.0994 44.5966 30.3153 47.142C28.5426 49.6875 26.2699 51.6364 23.4972 52.9886C20.7244 54.3295 17.5653 55 14.0199 55ZM10.5426 47.8068H14.5483C16.5028 47.8068 18.2301 47.4545 19.7301 46.75C21.2415 46.0341 22.4915 44.892 23.4801 43.3239C24.4688 41.7443 25.1733 39.6705 25.5938 37.1023C26.0028 34.6477 25.9858 32.7102 25.5426 31.2898C25.1108 29.858 24.2699 28.8352 23.0199 28.2216C21.7813 27.5966 20.1619 27.2841 18.1619 27.2841H13.9688L10.5426 47.8068Z"/>
</mask>
<path d="M14.0199 55H0.928977L6.72443 20.0909H19.4233C22.9688 20.0909 25.9233 20.8125 28.2869 22.2557C30.6619 23.6875 32.3381 25.7443 33.3153 28.4261C34.304 31.0966 34.4915 34.2784 33.8778 37.9716C33.2869 41.5398 32.0994 44.5966 30.3153 47.142C28.5426 49.6875 26.2699 51.6364 23.4972 52.9886C20.7244 54.3295 17.5653 55 14.0199 55ZM10.5426 47.8068H14.5483C16.5028 47.8068 18.2301 47.4545 19.7301 46.75C21.2415 46.0341 22.4915 44.892 23.4801 43.3239C24.4688 41.7443 25.1733 39.6705 25.5938 37.1023C26.0028 34.6477 25.9858 32.7102 25.5426 31.2898C25.1108 29.858 24.2699 28.8352 23.0199 28.2216C21.7813 27.5966 20.1619 27.2841 18.1619 27.2841H13.9688L10.5426 47.8068Z" fill="#C21292"/>
<path d="M0.928977 55L-1.04402 54.6725L-1.43043 57H0.928977V55ZM6.72443 20.0909V18.0909H5.02909L4.75144 19.7634L6.72443 20.0909ZM28.2869 22.2557L27.2447 23.9627L27.2543 23.9685L28.2869 22.2557ZM33.3153 28.4261L31.4362 29.1109L31.4397 29.1205L33.3153 28.4261ZM33.8778 37.9716L31.9049 37.6438L31.9047 37.6448L33.8778 37.9716ZM30.3153 47.142L28.6776 45.9941L28.6741 45.9991L30.3153 47.142ZM23.4972 52.9886L24.3679 54.7892L24.3739 54.7862L23.4972 52.9886ZM10.5426 47.8068L8.56991 47.4775L8.18105 49.8068H10.5426V47.8068ZM19.7301 46.75L20.5804 48.5603L20.5863 48.5575L19.7301 46.75ZM23.4801 43.3239L25.172 44.3905L25.1754 44.385L23.4801 43.3239ZM25.5938 37.1023L23.621 36.7735L23.62 36.7791L25.5938 37.1023ZM25.5426 31.2898L23.6278 31.8673L23.6305 31.8764L23.6334 31.8855L25.5426 31.2898ZM23.0199 28.2216L22.1189 30.0072L22.1287 30.0121L22.1385 30.0169L23.0199 28.2216ZM13.9688 27.2841V25.2841H12.275L11.9961 26.9548L13.9688 27.2841ZM14.0199 53H0.928977V57H14.0199V53ZM2.90197 55.3275L8.69743 20.4185L4.75144 19.7634L-1.04402 54.6725L2.90197 55.3275ZM6.72443 22.0909H19.4233V18.0909H6.72443V22.0909ZM19.4233 22.0909C22.7025 22.0909 25.2716 22.7579 27.2447 23.9627L29.3292 20.5487C26.575 18.8671 23.235 18.0909 19.4233 18.0909V22.0909ZM27.2543 23.9685C29.2258 25.157 30.6104 26.8448 31.4362 29.1109L35.1945 27.7414C34.0657 24.6438 32.0981 22.218 29.3195 20.5429L27.2543 23.9685ZM31.4397 29.1205C32.2753 31.3775 32.4789 34.1891 31.9049 37.6438L35.8508 38.2994C36.5041 34.3677 36.3326 30.8157 35.1909 27.7318L31.4397 29.1205ZM31.9047 37.6448C31.3548 40.9658 30.2639 43.7309 28.6776 45.9941L31.9531 48.29C33.935 45.4623 35.2191 42.1138 35.851 38.2984L31.9047 37.6448ZM28.6741 45.9991C27.0951 48.2663 25.0849 49.9891 22.6205 51.191L24.3739 54.7862C27.4548 53.2836 29.9901 51.1087 31.9566 48.285L28.6741 45.9991ZM22.6264 51.1881C20.1634 52.3792 17.3093 53 14.0199 53V57C17.8213 57 21.2854 56.2798 24.3679 54.7891L22.6264 51.1881ZM10.5426 49.8068H14.5483V45.8068H10.5426V49.8068ZM14.5483 49.8068C16.7445 49.8068 18.7708 49.4102 20.5804 48.5603L18.8798 44.9397C17.6894 45.4989 16.2612 45.8068 14.5483 45.8068V49.8068ZM20.5863 48.5575C22.4775 47.6616 24.0035 46.2439 25.172 44.3905L21.7883 42.2573C20.9795 43.5402 20.0055 44.4065 18.8739 44.9425L20.5863 48.5575ZM25.1754 44.385C26.349 42.51 27.1199 40.1589 27.5675 37.4254L23.62 36.7791C23.2266 39.182 22.5885 40.9786 21.7848 42.2628L25.1754 44.385ZM27.5665 37.4311C27.9968 34.8497 28.031 32.5503 27.4518 30.6941L23.6334 31.8855C23.9406 32.8701 24.0089 34.4458 23.621 36.7735L27.5665 37.4311ZM27.4574 30.7123C26.8785 28.7926 25.6897 27.3043 23.9012 26.4263L22.1385 30.0169C22.85 30.3662 23.3431 30.9233 23.6278 31.8673L27.4574 30.7123ZM23.9209 26.436C22.3071 25.6217 20.3464 25.2841 18.1619 25.2841V29.2841C19.9775 29.2841 21.2554 29.5714 22.1189 30.0072L23.9209 26.436ZM18.1619 25.2841H13.9688V29.2841H18.1619V25.2841ZM11.9961 26.9548L8.56991 47.4775L12.5153 48.1361L15.9414 27.6134L11.9961 26.9548Z" fill="black" mask="url(#path-3-outside-2_1_6)"/>
<mask id="path-5-outside-3_1_6" maskUnits="userSpaceOnUse" x="37" y="28" width="160" height="30" fill="black">
<rect fill="white" x="37" y="28" width="160" height="30"/>
<path d="M39.9995 55L43.9839 31H53.8979C55.6948 31 57.1948 31.3242 58.3979 31.9727C59.6011 32.6133 60.4565 33.5352 60.9644 34.7383C61.4722 35.9336 61.5894 37.3516 61.3159 38.9922C61.0503 40.6484 60.4565 42.0586 59.5347 43.2227C58.6206 44.3789 57.4409 45.2617 55.9956 45.8711C54.5581 46.4805 52.9253 46.7852 51.0972 46.7852H44.8276L45.6011 42.2148H50.7925C51.6597 42.2148 52.4097 42.1016 53.0425 41.875C53.6753 41.6406 54.1792 41.2891 54.5542 40.8203C54.937 40.3437 55.1909 39.7344 55.3159 38.9922C55.4331 38.25 55.3784 37.6367 55.1519 37.1523C54.9331 36.6602 54.5464 36.293 53.9917 36.0508C53.4448 35.8008 52.7417 35.6758 51.8823 35.6758H49.0229L45.8003 55H39.9995ZM55.3276 44.0312L59.4878 55H53.1597L49.1284 44.0312H55.3276ZM69.2983 55H63.064L75.146 31H82.8687L86.9819 55H80.7476L78.1108 37.0469H77.9233L69.2983 55ZM70.0483 45.5547H83.0796L82.3296 49.9609H69.2983L70.0483 45.5547ZM94.7095 55L91.7095 31H98.1196L99.1509 46.7266H99.3501L106.077 31H111.303L112.85 46.7617H113.038L119.272 31H125.67L114.713 55H109.124L107.237 40.4453H107.049L100.288 55H94.7095ZM168.672 31L164.688 55H159.766L152.536 41.1484H152.372L150.063 55H144.262L148.247 31H153.239L160.411 44.8281H160.61L162.883 31H168.672ZM188.769 38.8398C188.722 38.3477 188.613 37.9141 188.441 37.5391C188.269 37.1563 188.035 36.832 187.738 36.5664C187.441 36.3008 187.074 36.1016 186.636 35.9687C186.199 35.8281 185.691 35.7578 185.113 35.7578C183.957 35.7578 182.886 36.0391 181.902 36.6016C180.917 37.1641 180.085 37.9844 179.406 39.0625C178.726 40.1328 178.261 41.4336 178.011 42.9648C177.761 44.5039 177.753 45.8164 177.988 46.9023C178.23 47.9883 178.714 48.8164 179.441 49.3867C180.167 49.957 181.128 50.2422 182.324 50.2422C183.394 50.2422 184.339 50.0703 185.16 49.7266C185.98 49.375 186.644 48.8789 187.152 48.2383C187.667 47.5977 187.992 46.8437 188.125 45.9766L189.191 46.1055H183.355L184.058 41.875H194.394L193.867 45.0508C193.515 47.1992 192.757 49.0391 191.593 50.5703C190.437 52.1016 188.992 53.2773 187.257 54.0977C185.531 54.918 183.636 55.3281 181.574 55.3281C179.292 55.3281 177.367 54.832 175.796 53.8398C174.226 52.8477 173.109 51.4336 172.445 49.5977C171.781 47.7539 171.656 45.5664 172.07 43.0352C172.398 41.0664 172.98 39.3203 173.816 37.7969C174.66 36.2656 175.691 34.9687 176.91 33.9062C178.136 32.8437 179.492 32.0391 180.976 31.4922C182.46 30.9453 184.003 30.6719 185.605 30.6719C186.988 30.6719 188.246 30.8711 189.378 31.2695C190.511 31.668 191.48 32.2305 192.285 32.957C193.089 33.6836 193.695 34.5469 194.101 35.5469C194.515 36.5469 194.695 37.6445 194.64 38.8398H188.769Z"/>
</mask>
<path d="M39.9995 55L43.9839 31H53.8979C55.6948 31 57.1948 31.3242 58.3979 31.9727C59.6011 32.6133 60.4565 33.5352 60.9644 34.7383C61.4722 35.9336 61.5894 37.3516 61.3159 38.9922C61.0503 40.6484 60.4565 42.0586 59.5347 43.2227C58.6206 44.3789 57.4409 45.2617 55.9956 45.8711C54.5581 46.4805 52.9253 46.7852 51.0972 46.7852H44.8276L45.6011 42.2148H50.7925C51.6597 42.2148 52.4097 42.1016 53.0425 41.875C53.6753 41.6406 54.1792 41.2891 54.5542 40.8203C54.937 40.3437 55.1909 39.7344 55.3159 38.9922C55.4331 38.25 55.3784 37.6367 55.1519 37.1523C54.9331 36.6602 54.5464 36.293 53.9917 36.0508C53.4448 35.8008 52.7417 35.6758 51.8823 35.6758H49.0229L45.8003 55H39.9995ZM55.3276 44.0312L59.4878 55H53.1597L49.1284 44.0312H55.3276ZM69.2983 55H63.064L75.146 31H82.8687L86.9819 55H80.7476L78.1108 37.0469H77.9233L69.2983 55ZM70.0483 45.5547H83.0796L82.3296 49.9609H69.2983L70.0483 45.5547ZM94.7095 55L91.7095 31H98.1196L99.1509 46.7266H99.3501L106.077 31H111.303L112.85 46.7617H113.038L119.272 31H125.67L114.713 55H109.124L107.237 40.4453H107.049L100.288 55H94.7095ZM168.672 31L164.688 55H159.766L152.536 41.1484H152.372L150.063 55H144.262L148.247 31H153.239L160.411 44.8281H160.61L162.883 31H168.672ZM188.769 38.8398C188.722 38.3477 188.613 37.9141 188.441 37.5391C188.269 37.1563 188.035 36.832 187.738 36.5664C187.441 36.3008 187.074 36.1016 186.636 35.9687C186.199 35.8281 185.691 35.7578 185.113 35.7578C183.957 35.7578 182.886 36.0391 181.902 36.6016C180.917 37.1641 180.085 37.9844 179.406 39.0625C178.726 40.1328 178.261 41.4336 178.011 42.9648C177.761 44.5039 177.753 45.8164 177.988 46.9023C178.23 47.9883 178.714 48.8164 179.441 49.3867C180.167 49.957 181.128 50.2422 182.324 50.2422C183.394 50.2422 184.339 50.0703 185.16 49.7266C185.98 49.375 186.644 48.8789 187.152 48.2383C187.667 47.5977 187.992 46.8437 188.125 45.9766L189.191 46.1055H183.355L184.058 41.875H194.394L193.867 45.0508C193.515 47.1992 192.757 49.0391 191.593 50.5703C190.437 52.1016 188.992 53.2773 187.257 54.0977C185.531 54.918 183.636 55.3281 181.574 55.3281C179.292 55.3281 177.367 54.832 175.796 53.8398C174.226 52.8477 173.109 51.4336 172.445 49.5977C171.781 47.7539 171.656 45.5664 172.07 43.0352C172.398 41.0664 172.98 39.3203 173.816 37.7969C174.66 36.2656 175.691 34.9687 176.91 33.9062C178.136 32.8437 179.492 32.0391 180.976 31.4922C182.46 30.9453 184.003 30.6719 185.605 30.6719C186.988 30.6719 188.246 30.8711 189.378 31.2695C190.511 31.668 191.48 32.2305 192.285 32.957C193.089 33.6836 193.695 34.5469 194.101 35.5469C194.515 36.5469 194.695 37.6445 194.64 38.8398H188.769Z" fill="#FFA732"/>
<path d="M39.9995 55L38.0265 54.6725L37.6401 57H39.9995V55ZM43.9839 31V29H42.2885L42.0109 30.6725L43.9839 31ZM58.3979 31.9727L57.4491 33.7333L57.458 33.738L58.3979 31.9727ZM60.9644 34.7383L59.1218 35.516L59.1236 35.5203L60.9644 34.7383ZM61.3159 38.9922L59.3431 38.6634L59.3412 38.6755L61.3159 38.9922ZM59.5347 43.2227L57.9668 41.981L57.9657 41.9823L59.5347 43.2227ZM55.9956 45.8711L55.2186 44.0282L55.215 44.0297L55.9956 45.8711ZM44.8276 46.7852L42.8557 46.4514L42.4607 48.7852H44.8276V46.7852ZM45.6011 42.2148V40.2148H43.9111L43.6291 41.8811L45.6011 42.2148ZM53.0425 41.875L53.7166 43.758L53.7269 43.7543L53.7371 43.7505L53.0425 41.875ZM54.5542 40.8203L52.995 39.5678L52.9925 39.5709L54.5542 40.8203ZM55.3159 38.9922L57.2881 39.3244L57.2898 39.3142L57.2914 39.3041L55.3159 38.9922ZM55.1519 37.1523L53.3242 37.9646L53.3321 37.9822L53.3402 37.9997L55.1519 37.1523ZM53.9917 36.0508L53.1602 37.8697L53.1757 37.8768L53.1914 37.8837L53.9917 36.0508ZM49.0229 35.6758V33.6758H47.3289L47.0502 35.3468L49.0229 35.6758ZM45.8003 55V57H47.4944L47.773 55.329L45.8003 55ZM55.3276 44.0312L57.1977 43.322L56.7081 42.0312H55.3276V44.0312ZM59.4878 55V57H62.3854L61.3578 54.2908L59.4878 55ZM53.1597 55L51.2824 55.6899L51.7639 57H53.1597V55ZM49.1284 44.0312V42.0312H46.2626L47.2512 44.7212L49.1284 44.0312ZM41.9725 55.3275L45.9569 31.3275L42.0109 30.6725L38.0265 54.6725L41.9725 55.3275ZM43.9839 33H53.8979V29H43.9839V33ZM53.8979 33C55.4643 33 56.6149 33.2836 57.4491 33.7332L59.3468 30.2121C57.7748 29.3648 55.9254 29 53.8979 29V33ZM57.458 33.738C58.2749 34.173 58.8008 34.7555 59.1218 35.516L62.807 33.9606C62.1123 32.3148 60.9272 31.0535 59.3379 30.2073L57.458 33.738ZM59.1236 35.5203C59.4461 36.2795 59.5714 37.2939 59.3431 38.6634L63.2887 39.321C63.6073 37.4093 63.4982 35.5877 62.8051 33.9563L59.1236 35.5203ZM59.3412 38.6755C59.1226 40.0382 58.6497 41.1186 57.9668 41.981L61.1025 44.4643C62.2634 42.9986 62.978 41.2586 63.2907 39.3089L59.3412 38.6755ZM57.9657 41.9823C57.2741 42.8572 56.374 43.5411 55.2186 44.0282L56.7726 47.714C58.5079 46.9824 59.9671 45.9006 61.1036 44.463L57.9657 41.9823ZM55.215 44.0297C54.0629 44.5181 52.7023 44.7852 51.0972 44.7852V48.7852C53.1483 48.7852 55.0533 48.4428 56.7762 47.7125L55.215 44.0297ZM51.0972 44.7852H44.8276V48.7852H51.0972V44.7852ZM46.7996 47.1189L47.573 42.5486L43.6291 41.8811L42.8557 46.4514L46.7996 47.1189ZM45.6011 44.2148H50.7925V40.2148H45.6011V44.2148ZM50.7925 44.2148C51.8261 44.2148 52.815 44.0808 53.7166 43.758L52.3683 39.992C52.0043 40.1224 51.4932 40.2148 50.7925 40.2148V44.2148ZM53.7371 43.7505C54.6671 43.406 55.4869 42.856 56.1159 42.0697L52.9925 39.5709C52.8715 39.7221 52.6835 39.8752 52.3479 39.9995L53.7371 43.7505ZM56.1134 42.0728C56.7545 41.2748 57.1194 40.3264 57.2881 39.3244L53.3437 38.66C53.2625 39.1424 53.1195 39.4127 52.995 39.5678L56.1134 42.0728ZM57.2914 39.3041C57.4466 38.3216 57.4148 37.2699 56.9635 36.305L53.3402 37.9997C53.342 38.0035 53.4196 38.1784 53.3404 38.6803L57.2914 39.3041ZM56.9795 36.3401C56.5323 35.3339 55.7435 34.6333 54.792 34.2179L53.1914 37.8837C53.2841 37.9242 53.317 37.9547 53.3206 37.9582C53.3231 37.9606 53.3227 37.9604 53.3213 37.9585C53.32 37.9567 53.3212 37.9578 53.3242 37.9646L56.9795 36.3401ZM54.8232 34.2318C53.9284 33.8228 52.9145 33.6758 51.8823 33.6758V37.6758C52.5689 37.6758 52.9613 37.7788 53.1602 37.8697L54.8232 34.2318ZM51.8823 33.6758H49.0229V37.6758H51.8823V33.6758ZM47.0502 35.3468L43.8275 54.671L47.773 55.329L50.9957 36.0048L47.0502 35.3468ZM45.8003 53H39.9995V57H45.8003V53ZM53.4576 44.7405L57.6178 55.7092L61.3578 54.2908L57.1977 43.322L53.4576 44.7405ZM59.4878 53H53.1597V57H59.4878V53ZM55.0369 54.3101L51.0057 43.3413L47.2512 44.7212L51.2824 55.6899L55.0369 54.3101ZM49.1284 46.0312H55.3276V42.0312H49.1284V46.0312ZM69.2983 55V57H70.5563L71.1011 55.8661L69.2983 55ZM63.064 55L61.2776 54.1007L59.818 57H63.064V55ZM75.146 31V29H73.9137L73.3596 30.1007L75.146 31ZM82.8687 31L84.8399 30.6622L84.555 29H82.8687V31ZM86.9819 55V57H89.3539L88.9532 54.6622L86.9819 55ZM80.7476 55L78.7688 55.2906L79.0198 57H80.7476V55ZM78.1108 37.0469L80.0896 36.7563L79.8386 35.0469H78.1108V37.0469ZM77.9233 37.0469V35.0469H76.6653L76.1206 36.1808L77.9233 37.0469ZM70.0483 45.5547V43.5547H68.36L68.0767 45.2191L70.0483 45.5547ZM83.0796 45.5547L85.0512 45.8903L85.4488 43.5547H83.0796V45.5547ZM82.3296 49.9609V51.9609H84.0179L84.3012 50.2965L82.3296 49.9609ZM69.2983 49.9609L67.3267 49.6253L66.9291 51.9609H69.2983V49.9609ZM69.2983 53H63.064V57H69.2983V53ZM64.8504 55.8993L76.9324 31.8993L73.3596 30.1007L61.2776 54.1007L64.8504 55.8993ZM75.146 33H82.8687V29H75.146V33ZM80.8974 31.3378L85.0107 55.3378L88.9532 54.6622L84.8399 30.6622L80.8974 31.3378ZM86.9819 53H80.7476V57H86.9819V53ZM82.7263 54.7094L80.0896 36.7563L76.1321 37.3375L78.7688 55.2906L82.7263 54.7094ZM78.1108 35.0469H77.9233V39.0469H78.1108V35.0469ZM76.1206 36.1808L67.4956 54.1339L71.1011 55.8661L79.7261 37.9129L76.1206 36.1808ZM70.0483 47.5547H83.0796V43.5547H70.0483V47.5547ZM81.1079 45.2191L80.3579 49.6253L84.3012 50.2965L85.0512 45.8903L81.1079 45.2191ZM82.3296 47.9609H69.2983V51.9609H82.3296V47.9609ZM71.27 50.2965L72.02 45.8903L68.0767 45.2191L67.3267 49.6253L71.27 50.2965ZM94.7095 55L92.7249 55.2481L92.9439 57H94.7095V55ZM91.7095 31V29H89.4439L89.7249 31.2481L91.7095 31ZM98.1196 31L100.115 30.8691L99.9928 29H98.1196V31ZM99.1509 46.7266L97.1552 46.8574L97.2777 48.7266H99.1509V46.7266ZM99.3501 46.7266V48.7266H100.67L101.189 47.5131L99.3501 46.7266ZM106.077 31V29H104.757L104.238 30.2135L106.077 31ZM111.303 31L113.294 30.8047L113.117 29H111.303V31ZM112.85 46.7617L110.86 46.9571L111.037 48.7617H112.85V46.7617ZM113.038 46.7617V48.7617H114.397L114.897 47.4973L113.038 46.7617ZM119.272 31V29H117.912L117.412 30.2644L119.272 31ZM125.67 31L127.49 31.8306L128.782 29H125.67V31ZM114.713 55V57H115.999L116.533 55.8306L114.713 55ZM109.124 55L107.14 55.2571L107.366 57H109.124V55ZM107.237 40.4453L109.22 40.1882L108.994 38.4453H107.237V40.4453ZM107.049 40.4453V38.4453H105.773L105.235 39.6027L107.049 40.4453ZM100.288 55V57H101.564L102.101 55.8427L100.288 55ZM96.694 54.7519L93.694 30.7519L89.7249 31.2481L92.7249 55.2481L96.694 54.7519ZM91.7095 33H98.1196V29H91.7095V33ZM96.1239 31.1309L97.1552 46.8574L101.147 46.5957L100.115 30.8691L96.1239 31.1309ZM99.1509 48.7266H99.3501V44.7266H99.1509V48.7266ZM101.189 47.5131L107.916 31.7865L104.238 30.2135L97.5112 45.94L101.189 47.5131ZM106.077 33H111.303V29H106.077V33ZM109.313 31.1953L110.86 46.9571L114.841 46.5664L113.294 30.8047L109.313 31.1953ZM112.85 48.7617H113.038V44.7617H112.85V48.7617ZM114.897 47.4973L121.132 31.7356L117.412 30.2644L111.178 46.0261L114.897 47.4973ZM119.272 33H125.67V29H119.272V33ZM123.851 30.1694L112.894 54.1694L116.533 55.8306L127.49 31.8306L123.851 30.1694ZM114.713 53H109.124V57H114.713V53ZM111.107 54.7429L109.22 40.1882L105.253 40.7024L107.14 55.2571L111.107 54.7429ZM107.237 38.4453H107.049V42.4453H107.237V38.4453ZM105.235 39.6027L98.4738 54.1573L102.101 55.8427L108.863 41.288L105.235 39.6027ZM100.288 53H94.7095V57H100.288V53ZM168.672 31L170.645 31.3275L171.032 29H168.672V31ZM164.688 55V57H166.383L166.661 55.3275L164.688 55ZM159.766 55L157.993 55.9255L158.554 57H159.766V55ZM152.536 41.1484L154.309 40.2229L153.748 39.1484H152.536V41.1484ZM152.372 41.1484V39.1484H150.677L150.399 40.8196L152.372 41.1484ZM150.063 55V57H151.757L152.036 55.3288L150.063 55ZM144.262 55L142.289 54.6725L141.903 57H144.262V55ZM148.247 31V29H146.551L146.274 30.6725L148.247 31ZM153.239 31L155.014 30.0792L154.454 29H153.239V31ZM160.411 44.8281L158.635 45.7489L159.195 46.8281H160.411V44.8281ZM160.61 44.8281V46.8281H162.308L162.583 45.1526L160.61 44.8281ZM162.883 31V29H161.185L160.91 30.6755L162.883 31ZM166.699 30.6725L162.715 54.6725L166.661 55.3275L170.645 31.3275L166.699 30.6725ZM164.688 53H159.766V57H164.688V53ZM161.539 54.0745L154.309 40.2229L150.763 42.0739L157.993 55.9255L161.539 54.0745ZM152.536 39.1484H152.372V43.1484H152.536V39.1484ZM150.399 40.8196L148.09 54.6712L152.036 55.3288L154.344 41.4772L150.399 40.8196ZM150.063 53H144.262V57H150.063V53ZM146.235 55.3275L150.22 31.3275L146.274 30.6725L142.289 54.6725L146.235 55.3275ZM148.247 33H153.239V29H148.247V33ZM151.463 31.9208L158.635 45.7489L162.186 43.9073L155.014 30.0792L151.463 31.9208ZM160.411 46.8281H160.61V42.8281H160.411V46.8281ZM162.583 45.1526L164.857 31.3245L160.91 30.6755L158.636 44.5037L162.583 45.1526ZM162.883 33H168.672V29H162.883V33ZM188.769 38.8398L186.778 39.0295L186.95 40.8398H188.769V38.8398ZM188.441 37.5391L186.616 38.3582L186.62 38.3653L186.623 38.3724L188.441 37.5391ZM186.636 35.9687L186.024 37.8728L186.04 37.8778L186.055 37.8825L186.636 35.9687ZM181.902 36.6016L182.894 38.338L182.894 38.338L181.902 36.6016ZM179.406 39.0625L181.094 40.1347L181.098 40.1291L179.406 39.0625ZM178.011 42.9648L176.037 42.6426L176.037 42.6442L178.011 42.9648ZM177.988 46.9023L176.033 47.3243L176.036 47.3377L177.988 46.9023ZM185.16 49.7266L185.933 51.5712L185.94 51.568L185.948 51.5649L185.16 49.7266ZM187.152 48.2383L185.594 46.9843L185.589 46.9901L185.585 46.9959L187.152 48.2383ZM188.125 45.9766L188.365 43.991L186.441 43.7585L186.148 45.6738L188.125 45.9766ZM189.191 46.1055V48.1055L189.431 44.1199L189.191 46.1055ZM183.355 46.1055L181.382 45.7776L180.995 48.1055H183.355V46.1055ZM184.058 41.875V39.875H182.363L182.085 41.5471L184.058 41.875ZM194.394 41.875L196.367 42.2026L196.754 39.875H194.394V41.875ZM193.867 45.0508L191.894 44.7232L191.893 44.7278L193.867 45.0508ZM191.593 50.5703L190.001 49.3599L189.997 49.3651L191.593 50.5703ZM187.257 54.0977L186.402 52.2897L186.399 52.2912L187.257 54.0977ZM175.796 53.8398L174.728 55.5306L174.728 55.5306L175.796 53.8398ZM172.445 49.5977L170.563 50.2754L170.564 50.2779L172.445 49.5977ZM172.07 43.0352L170.097 42.7064L170.096 42.7123L172.07 43.0352ZM173.816 37.7969L172.064 36.8317L172.063 36.8348L173.816 37.7969ZM176.91 33.9062L175.6 32.3945L175.595 32.3987L176.91 33.9062ZM180.976 31.4922L180.285 29.6155L180.285 29.6155L180.976 31.4922ZM194.101 35.5469L192.248 36.2996L192.253 36.312L194.101 35.5469ZM194.64 38.8398V40.8398H196.551L196.638 38.9313L194.64 38.8398ZM190.76 38.6502C190.696 37.9783 190.541 37.32 190.259 36.7058L186.623 38.3724C186.685 38.5082 186.748 38.7171 186.778 39.0295L190.76 38.6502ZM190.265 36.7199C189.985 36.0953 189.588 35.5384 189.071 35.0759L186.404 38.0569C186.481 38.1257 186.553 38.2172 186.616 38.3582L190.265 36.7199ZM189.071 35.0759C188.528 34.5893 187.892 34.2599 187.217 34.055L186.055 37.8825C186.255 37.9432 186.354 38.0122 186.404 38.0569L189.071 35.0759ZM187.248 34.0647C186.57 33.8465 185.848 33.7578 185.113 33.7578V37.7578C185.534 37.7578 185.828 37.8097 186.024 37.8728L187.248 34.0647ZM185.113 33.7578C183.616 33.7578 182.202 34.1263 180.91 34.8651L182.894 38.338C183.57 37.9518 184.297 37.7578 185.113 37.7578V33.7578ZM180.91 34.8651C179.607 35.6095 178.546 36.6754 177.714 37.9959L181.098 40.1291C181.625 39.2933 182.228 38.7186 182.894 38.338L180.91 34.8651ZM177.717 37.9903C176.864 39.3337 176.321 40.9028 176.037 42.6426L179.985 43.2871C180.201 41.9644 180.588 40.9319 181.094 40.1347L177.717 37.9903ZM176.037 42.6442C175.762 44.3377 175.729 45.9171 176.033 47.3243L179.943 46.4804C179.778 45.7157 179.76 44.6701 179.985 43.2855L176.037 42.6442ZM176.036 47.3377C176.357 48.7786 177.046 50.0493 178.206 50.9599L180.676 47.8135C180.383 47.5835 180.103 47.198 179.94 46.467L176.036 47.3377ZM178.206 50.9599C179.377 51.8789 180.813 52.2422 182.324 52.2422V48.2422C181.443 48.2422 180.958 48.0351 180.676 47.8135L178.206 50.9599ZM182.324 52.2422C183.607 52.2422 184.823 52.0361 185.933 51.5712L184.387 47.882C183.856 48.1045 183.181 48.2422 182.324 48.2422V52.2422ZM185.948 51.5649C187.044 51.0947 187.986 50.405 188.719 49.4807L185.585 46.9959C185.302 47.3529 184.916 47.6553 184.372 47.8883L185.948 51.5649ZM188.71 49.4923C189.461 48.5586 189.919 47.4709 190.101 46.2793L186.148 45.6738C186.064 46.2166 185.874 46.6367 185.594 46.9843L188.71 49.4923ZM187.885 47.9621L188.951 48.091L189.431 44.1199L188.365 43.991L187.885 47.9621ZM189.191 44.1055H183.355V48.1055H189.191V44.1055ZM185.328 46.4334L186.031 42.2029L182.085 41.5471L181.382 45.7776L185.328 46.4334ZM184.058 43.875H194.394V39.875H184.058V43.875ZM192.421 41.5474L191.894 44.7232L195.84 45.3784L196.367 42.2026L192.421 41.5474ZM191.893 44.7278C191.587 46.5967 190.943 48.1215 190.001 49.3599L193.185 51.7807C194.572 49.9566 195.443 47.8017 195.84 45.3738L191.893 44.7278ZM189.997 49.3651C189.036 50.6386 187.845 51.6075 186.402 52.2897L188.112 55.9056C190.139 54.9472 191.838 53.5646 193.189 51.7755L189.997 49.3651ZM186.399 52.2912C184.961 52.9742 183.363 53.3281 181.574 53.3281V57.3281C183.909 57.3281 186.1 56.8617 188.116 55.9041L186.399 52.2912ZM181.574 53.3281C179.584 53.3281 178.049 52.8976 176.865 52.1491L174.728 55.5306C176.684 56.7665 179.001 57.3281 181.574 57.3281V53.3281ZM176.865 52.1491C175.69 51.4068 174.847 50.3585 174.326 48.9174L170.564 50.2779C171.371 52.5087 172.762 54.2885 174.728 55.5306L176.865 52.1491ZM174.326 48.9199C173.808 47.4804 173.668 45.654 174.044 43.358L170.096 42.7123C169.644 45.4788 169.754 48.0275 170.563 50.2754L174.326 48.9199ZM174.043 43.364C174.339 41.5847 174.856 40.0583 175.569 38.759L172.063 36.8348C171.104 38.5824 170.457 40.5481 170.097 42.7064L174.043 43.364ZM175.568 38.7621C176.308 37.4191 177.195 36.3104 178.224 35.4138L175.595 32.3987C174.186 33.6271 173.012 35.1121 172.064 36.8317L175.568 38.7621ZM178.219 35.4179C179.268 34.5092 180.415 33.8302 181.667 33.3689L180.285 29.6155C178.568 30.2479 177.004 31.1783 175.6 32.3946L178.219 35.4179ZM181.667 33.3689C182.928 32.9046 184.236 32.6719 185.605 32.6719V28.6719C183.77 28.6719 181.993 28.986 180.285 29.6155L181.667 33.3689ZM185.605 32.6719C186.795 32.6719 187.825 32.8432 188.715 33.1562L190.042 29.3828C188.666 28.899 187.18 28.6719 185.605 28.6719V32.6719ZM188.715 33.1562C189.625 33.4762 190.357 33.9107 190.944 34.4415L193.625 31.4726C192.603 30.5502 191.398 29.8597 190.042 29.3828L188.715 33.1562ZM190.944 34.4415C191.526 34.9668 191.956 35.5803 192.248 36.2996L195.954 34.7941C195.434 33.5134 194.652 32.4003 193.625 31.4726L190.944 34.4415ZM192.253 36.312C192.544 37.0135 192.685 37.815 192.642 38.7484L196.638 38.9313C196.705 37.4741 196.487 36.0803 195.949 34.7817L192.253 36.312ZM194.64 36.8398H188.769V40.8398H194.64V36.8398Z" fill="black" mask="url(#path-5-outside-3_1_6)"/>
<path d="M141.508 17.3098L133.836 27.9882L125.73 52.6604L129.177 54.992L133.31 54.6279L141.306 30.6515L141.508 17.3098Z" fill="#F3C087"/>
<path d="M133.843 28.3579L136.389 27.7959L137.271 29.5804L139.451 28.8875L141.068 30.9339" stroke="black" stroke-opacity="0.03"/>
<path d="M136.595 28.1495L133.709 28.3648L128.751 43.2132L131.33 44.2342L136.595 28.1495Z" fill="#52A2E7"/>
<path d="M141.435 30.9324L139.494 29.0867L134.147 45.0081L136.193 45.8081L141.435 30.9324Z" fill="#89CBFF"/>
<path d="M137.569 29.4561L136.454 28.0029L131.182 44.1473L134.087 45.2447L139.491 29.1501L137.569 29.4561Z" fill="#6BBEFF"/>
<path d="M139.509 20.7667C139.154 21.0752 138.998 20.7659 138.965 20.5727L141.508 17.3098L141.586 20.9634C141.379 21.115 141.041 21.3671 140.945 21.4485L140.948 21.4612C140.909 21.4841 140.913 21.4763 140.945 21.4485L140.591 19.8834C140.528 19.7159 139.843 20.4025 139.509 20.7667Z" fill="#141414"/>
<path d="M135.014 49.8402L127.199 47.0165L125.128 53.0437C126.285 56.6569 130.549 56.6245 132.537 56.1567L135.014 49.8402Z" fill="#D94948"/>
<path d="M136.337 45.5285L134.35 44.8583L132.88 49.1113L134.916 49.7983L136.337 45.5285Z" fill="#ECECEC"/>
<path d="M130.984 43.7231L128.748 42.9692L127.278 47.2222L129.57 47.995L130.984 43.7231Z" fill="#BFBFBF"/>
<path d="M134.269 44.8311L131.04 43.742L129.57 47.995L132.88 49.1113L134.269 44.8311Z" fill="#D9D9D9"/>
<mask id="path-17-outside-4_1_6" maskUnits="userSpaceOnUse" x="161.482" y="77.9624" width="34.3806" height="29.6412" fill="black">
<rect fill="white" x="161.482" y="77.9624" width="34.3806" height="29.6412"/>
<path d="M165.531 105.467L168.29 81.2959L174.084 81.0011L172.926 91.2216L173.242 91.2055L182.323 80.5817L189.146 80.2344L179.45 91.4527L186.539 104.398L179.611 104.751L174.777 95.551L172.072 98.6574L171.325 105.173L165.531 105.467Z"/>
</mask>
<path d="M165.531 105.467L168.29 81.2959L174.084 81.0011L172.926 91.2216L173.242 91.2055L182.323 80.5817L189.146 80.2344L179.45 91.4527L186.539 104.398L179.611 104.751L174.777 95.551L172.072 98.6574L171.325 105.173L165.531 105.467Z" fill="#FFA732"/>
<path d="M165.531 105.467L163.544 105.241L163.277 107.585L165.633 107.465L165.531 105.467ZM168.29 81.2959L168.189 79.2985L166.496 79.3847L166.303 81.0691L168.29 81.2959ZM174.084 81.0011L176.071 81.2262L176.336 78.8838L173.982 79.0036L174.084 81.0011ZM172.926 91.2216L170.939 90.9964L170.673 93.3388L173.028 93.219L172.926 91.2216ZM173.242 91.2055L173.344 93.2029L174.203 93.1591L174.762 92.505L173.242 91.2055ZM182.323 80.5817L182.221 78.5843L181.362 78.628L180.803 79.2822L182.323 80.5817ZM189.146 80.2344L190.659 81.5422L193.722 77.9989L189.045 78.237L189.146 80.2344ZM179.45 91.4527L177.937 90.1449L177.029 91.1954L177.696 92.4133L179.45 91.4527ZM186.539 104.398L186.641 106.396L189.825 106.234L188.293 103.438L186.539 104.398ZM179.611 104.751L177.84 105.681L178.435 106.813L179.712 106.748L179.611 104.751ZM174.777 95.551L176.548 94.6208L175.189 92.0333L173.269 94.2376L174.777 95.551ZM172.072 98.6574L170.564 97.344L170.156 97.8123L170.085 98.4293L172.072 98.6574ZM171.325 105.173L171.426 107.17L173.118 107.084L173.311 105.401L171.325 105.173ZM167.518 105.694L170.278 81.5227L166.303 81.0691L163.544 105.241L167.518 105.694ZM168.392 83.2933L174.185 82.9985L173.982 79.0036L168.189 79.2985L168.392 83.2933ZM172.096 80.7759L170.939 90.9964L174.913 91.4467L176.071 81.2262L172.096 80.7759ZM173.028 93.219L173.344 93.2029L173.14 89.2081L172.824 89.2241L173.028 93.219ZM174.762 92.505L183.843 81.8812L180.803 79.2822L171.722 89.9059L174.762 92.505ZM182.425 82.5791L189.248 82.2318L189.045 78.237L182.221 78.5843L182.425 82.5791ZM187.633 78.9266L177.937 90.1449L180.963 92.7606L190.659 81.5422L187.633 78.9266ZM177.696 92.4133L184.785 105.359L188.293 103.438L181.204 90.4921L177.696 92.4133ZM186.438 102.401L179.509 102.753L179.712 106.748L186.641 106.396L186.438 102.401ZM181.381 103.821L176.548 94.6208L173.007 96.4812L177.84 105.681L181.381 103.821ZM173.269 94.2376L170.564 97.344L173.581 99.9708L176.286 96.8644L173.269 94.2376ZM170.085 98.4293L169.338 104.944L173.311 105.401L174.059 98.8855L170.085 98.4293ZM171.223 103.175L165.43 103.47L165.633 107.465L171.426 107.17L171.223 103.175Z" fill="black" mask="url(#path-17-outside-4_1_6)"/>
<path d="M139.173 93.7921C139.516 100.53 134.976 106.021 129.296 106.31C123.616 106.599 118.543 101.597 118.2 94.8596C117.857 88.1222 122.396 82.6305 128.076 82.3414C133.756 82.0523 138.83 87.0547 139.173 93.7921Z" fill="#FFA732" stroke="black" stroke-width="2"/>
<path d="M163.142 92.5722C163.485 99.3096 158.945 104.801 153.265 105.09C147.585 105.379 142.512 100.377 142.169 93.6396C141.826 86.9022 146.365 81.4105 152.045 81.1214C157.725 80.8323 162.799 85.8347 163.142 92.5722Z" fill="#FFA732" stroke="black" stroke-width="2"/>
</svg>
