<svg width="27" height="31" viewBox="0 0 27 31" fill="none" xmlns="http://www.w3.org/2000/svg">
<ellipse cx="13.5" cy="15.5" rx="13.5" ry="15.5" fill="#FFA732"/>
<path d="M26 15.5C26 23.6423 20.2783 30 13.5 30C6.72171 30 1 23.6423 1 15.5C1 7.35767 6.72171 1 13.5 1C20.2783 1 26 7.35767 26 15.5Z" stroke="#252424" stroke-opacity="0.59" stroke-width="2"/>
<path d="M8.96979 13.0148L6 15.6462L8.96979 18.2777V16.774H12.9295V14.5185H8.96979V13.0148Z" fill="#FFFDFD"/>
<path d="M18.5378 18.3925L21.5663 15.8493L18.6571 13.1313L18.623 14.6345L14.6646 14.5179L14.6135 16.7727L18.5719 16.8893L18.5378 18.3925Z" fill="#FFFDFD"/>
<path d="M11.2908 21.285L13.5895 24.6782L15.9104 21.3048L14.5905 21.2991L14.6054 16.7881L12.6255 16.7796L12.6107 21.2907L11.2908 21.285Z" fill="#FFFDFD"/>
<path d="M15.9321 10.3831L13.5894 7.02929L11.3127 10.4417L12.6325 10.4249L12.6766 14.9357L14.6563 14.9106L14.6123 10.3998L15.9321 10.3831Z" fill="#FFFDFD"/>
</svg>
