<svg width="42" height="41" viewBox="0 0 42 41" fill="none" xmlns="http://www.w3.org/2000/svg">
<path d="M41.6376 21.6329C41.5906 20.7589 41.5877 19.8834 41.6287 19.0091L41.9324 12.5525C41.9328 8.70486 40.6005 5.73821 37.973 3.72334C35.4849 1.81562 31.9581 0.847668 27.4898 0.846626L23.2627 0.649086C22.8378 0.627419 21.7976 0.619553 20.9663 0.619553C20.1352 0.619553 19.0949 0.627419 18.6688 0.649086L14.443 0.846626C9.97464 0.847668 6.44782 1.81562 3.95976 3.72334C1.33228 5.73821 0 8.70486 0 12.5412L0.304237 19.0119C0.345273 19.8852 0.342302 20.7598 0.295168 21.6329L0.000329931 27.1032C3.21892e-07 31.1754 0.961473 34.297 2.85788 36.3942C4.9013 38.654 7.82526 39.7997 12.0614 39.7997L20.0279 40.0026C20.8186 40.0234 21.6099 40.0228 22.4004 40.0008L29.6232 39.7996C29.6235 39.7996 29.884 39.7996 29.8844 39.7996C34.1083 39.7996 37.0316 38.6538 39.0749 36.3942C40.9713 34.297 41.9328 31.1754 41.9328 27.1161L41.6376 21.6329Z" fill="#969697"/>
<path d="M41.335 18.1157L41.6389 11.6571C41.6389 3.91985 36.1008 0.853764 27.4822 0.227158L23.2473 0.029171C22.4876 -0.00971222 19.4451 -0.00971222 18.6854 0.029171L14.4506 0.227158C6.00266 0.853764 0.293823 3.91985 0.293823 11.6571L0.597722 18.1157C0.639253 18.9973 0.63629 19.8802 0.588661 20.7616L0.293823 26.2319C0.293823 33.969 3.72967 38.6508 12.3214 38.6508C12.3214 38.6508 21.2908 38.9168 21.9726 38.8906L29.6113 38.6508C38.203 38.6508 41.6389 33.969 41.6389 26.2319L41.3441 20.7616C41.2964 19.8802 41.2935 18.9973 41.335 18.1157Z" fill="#FCF6F6"/>
<path d="M40.1661 18.0477L40.4525 11.8602C40.4525 4.44777 35.207 0.910168 27.1083 0.910168L23.1166 0.720493C22.4005 0.683243 19.5324 0.683243 18.8163 0.720493L14.8246 0.910168C6.72591 0.910168 1.48035 4.44777 1.48035 11.8602L1.76678 18.0477C1.80583 18.8923 1.80303 19.7381 1.75821 20.5826L1.74996 25.8231C1.74996 33.2355 3.64027 37.7209 11.7389 37.7209L19.0375 37.9505C19.6802 37.9756 22.2527 37.9756 22.8954 37.9505L29.9243 37.7209C38.023 37.7209 40.1829 33.2355 40.1829 25.8231L40.1747 20.5826C40.1299 19.7381 40.1271 18.8923 40.1661 18.0477Z" fill="#711DB0" fill-opacity="0.54"/>
<path d="M38.966 18.1278L39.2344 12.3272C39.2344 5.37816 34.3166 2.0617 26.7243 2.0617L22.982 1.88389C22.3108 1.84901 19.622 1.84901 18.9508 1.88389L15.2085 2.0617C7.61614 2.0617 2.69836 5.37816 2.69836 12.3272L2.96683 18.1278C3.00358 18.9198 3.00095 19.7127 2.95892 20.5044L2.69836 25.4173C2.69836 32.3662 5.73457 36.5712 13.327 36.5712L19.1581 36.7864C19.7606 36.81 22.1722 36.81 22.7747 36.7864L28.6058 36.5712C36.1982 36.5712 39.2344 32.3662 39.2344 25.4173L38.9739 20.5044C38.9318 19.7127 38.9292 18.9198 38.966 18.1278Z" fill="#9200FF" fill-opacity="0.42"/>
<path d="M39.2344 12.3272C39.2344 5.37819 34.3166 2.06173 26.7243 2.06173L22.982 1.88392C22.3108 1.84905 19.622 1.84905 18.9508 1.88392L15.2085 2.06173C7.61614 2.06173 2.69836 5.37819 2.69836 12.3272L2.80747 15.3279C3.56161 9.53913 8.26531 6.76334 15.2085 6.76334L18.9508 6.58569C19.622 6.55081 22.3108 6.55081 22.982 6.58569L26.7243 6.76334C33.6675 6.76334 38.3712 9.53913 39.1253 15.3279L39.2344 12.3272Z" fill="#FCF8FF" fill-opacity="0.46"/>
<path d="M28.6058 33.0942L22.7747 33.3094C22.1722 33.333 19.7606 33.333 19.1581 33.3094L13.327 33.0942C6.45477 33.0942 3.31556 29.6488 2.78193 23.8419L2.69836 25.4173C2.69836 32.3662 5.73457 36.5712 13.327 36.5712L19.1581 36.7864C19.7606 36.81 22.1722 36.81 22.7747 36.7864L28.6058 36.5712C36.1982 36.5712 39.2344 32.3662 39.2344 25.4173L39.1509 23.8419C38.6172 29.6488 35.478 33.0942 28.6058 33.0942Z" fill="#6000A8" fill-opacity="0.84"/>
<path d="M30.3233 33.4174C30.6135 34.5482 32.8843 34.436 34.4917 33.5095C36.0989 32.5828 36.8385 31.0391 36.1437 30.0617C35.4487 29.0842 34.745 31.4266 33.1378 32.3533C31.5305 33.2799 30.0919 32.5158 30.3233 33.4174Z" fill="#FBF9FB"/>
<path d="M15.8152 5.6514C16.0245 3.47565 13.9947 3.0819 11.0836 3.76906C8.17251 4.45622 5.16219 6.82105 6.49793 8.30089C7.48379 9.39337 8.25508 7.81662 11.1662 7.12946C14.0773 6.4423 15.6308 7.56921 15.8152 5.6514Z" fill="#FBF9FB"/>
<path d="M6.1744 9.14537C5.60995 8.72209 4.76961 9.02041 4.22328 9.61124C3.67711 10.2022 3.57905 11.1616 4.14368 11.5849C4.70813 12.008 5.60846 11.872 6.15479 11.2811C6.70095 10.6902 6.73886 9.5685 6.1744 9.14537Z" fill="#FBF9FB"/>
<path d="M26.646 18.7557L26.646 15.549L20.8359 15.549C17.326 15.549 14.5 18.375 14.5 21.8849C14.5 25.3947 17.326 28.2208 20.8359 28.2208L21.9134 28.2208L21.9134 25.014L20.8359 25.014C19.0874 25.014 17.7067 23.6333 17.7067 21.8849C17.7067 20.1364 19.0874 18.7557 20.8359 18.7557L26.646 18.7557Z" fill="#FF9507" stroke="black"/>
<path d="M26.0684 22.2352L32.1505 17.1523L26.0684 12.0695L26.0684 22.2352Z" fill="#FF9507" stroke="black"/>
</svg>
